<svg xmlns="http://www.w3.org/2000/svg" width="24" height="24" viewBox="0 0 24 24" fill="none">
    <path fill-rule="evenodd" clip-rule="evenodd" d="M15.7954 3.01651C13.9831 2.25 12 2.25 12 2.25C10.0169 2.25 8.20463 3.01651 8.20463 3.01651C6.45478 3.75663 5.10571 5.10571 5.10571 5.10571C3.75663 6.45478 3.01651 8.20463 3.01651 8.20463C2.25 10.0169 2.25 12 2.25 12C2.25 13.9831 3.01651 15.7954 3.01651 15.7954C3.75663 17.5452 5.10571 18.8943 5.10571 18.8943C6.45478 20.2434 8.20463 20.9835 8.20463 20.9835C10.0169 21.75 12 21.75 12 21.75C13.9831 21.75 15.7954 20.9835 15.7954 20.9835C17.5452 20.2434 18.8943 18.8943 18.8943 18.8943C20.2434 17.5452 20.9835 15.7954 20.9835 15.7954C21.75 13.9831 21.75 12 21.75 12C21.75 10.0169 20.9835 8.20463 20.9835 8.20463C20.2434 6.45478 18.8943 5.10571 18.8943 5.10571C17.5452 3.75663 15.7954 3.01651 15.7954 3.01651ZM7.875 11.625C8.06802 11.625 8.25362 11.6994 8.39316 11.8328L10.6223 13.963L15.6073 9.20734C15.7415 9.0793 15.9184 9.00553 16.1038 9.0003L16.125 9C16.33 9 16.5261 9.08394 16.6677 9.2323C16.7964 9.36721 16.8702 9.54522 16.8748 9.73161C16.8751 9.74362 16.8751 9.75564 16.8748 9.76765C16.8701 9.96651 16.7864 10.1555 16.6425 10.2928L11.1396 15.5427C10.8496 15.8193 10.3934 15.8191 10.1037 15.5422L7.35684 12.9172C7.21303 12.7798 7.1297 12.5909 7.12519 12.392L7.125 12.375C7.125 12.182 7.19942 11.9964 7.33278 11.8568C7.4702 11.713 7.65913 11.6297 7.85799 11.6252L7.875 11.625Z" fill="#212121"/>
</svg>
