<svg width="24" height="24" viewBox="0 0 24 24" fill="none" xmlns="http://www.w3.org/2000/svg">
<path d="M5 7.55556C5 6.14416 6.14416 5 7.55556 5H16.4444C17.8558 5 19 6.14416 19 7.55556V16.4444C19 17.8558 17.8558 19 16.4444 19H7.55556C6.14416 19 5 17.8558 5 16.4444V7.55556Z" stroke="#9E9E9E" stroke-width="2"/>
<path d="M9 13H15C15.5523 13 16 12.5523 16 12C16 11.4477 15.5523 11 15 11H9C8.44772 11 8 11.4477 8 12C8 12.5523 8.44772 13 9 13Z" fill="#9E9E9E"/>
<path d="M11 9V15C11 15.5523 11.4477 16 12 16C12.5523 16 13 15.5523 13 15V9C13 8.44772 12.5523 8 12 8C11.4477 8 11 8.44772 11 9Z" fill="#9E9E9E"/>
</svg>
