<svg width="16" height="16" viewBox="0 0 16 16" fill="none" xmlns="http://www.w3.org/2000/svg">
<path d="M13.9911 8L11.152 10.8391C11.0348 10.9563 10.9688 11.1155 10.9688 11.2812C10.9688 11.2913 10.969 11.3013 10.9695 11.3113C10.9769 11.4665 11.0419 11.6133 11.1518 11.7232C11.269 11.8404 11.428 11.9062 11.5938 11.9062C11.7595 11.9062 11.9185 11.8404 12.0357 11.7232L15.3169 8.44194C15.4342 8.32473 15.5 8.16576 15.5 8C15.5 7.83424 15.4342 7.67527 15.3169 7.55806L12.0358 4.27688C11.9185 4.1596 11.7595 4.09375 11.5938 4.09375C11.428 4.09375 11.269 4.1596 11.1518 4.27681C11.0346 4.39402 10.9688 4.55299 10.9688 4.71875C10.9688 4.88451 11.0346 5.04348 11.1518 5.16069L13.9911 8Z" fill="#fff"/>
<path d="M6.125 8.625H14.875C15.2202 8.625 15.5 8.34518 15.5 8C15.5 7.65482 15.2202 7.375 14.875 7.375H6.125C5.77982 7.375 5.5 7.65482 5.5 8C5.5 8.34518 5.77982 8.625 6.125 8.625Z" fill="#fff"/>
<path d="M1.75 1.75H6.125C6.47018 1.75 6.75 1.47018 6.75 1.125C6.75 0.779822 6.47018 0.5 6.125 0.5H1.75C1.23223 0.5 0.866117 0.866117 0.866117 0.866117C0.5 1.23223 0.5 1.75 0.5 1.75V14.25C0.5 14.7678 0.866117 15.1339 0.866117 15.1339C1.23223 15.5 1.75 15.5 1.75 15.5H6.125C6.47018 15.5 6.75 15.2202 6.75 14.875C6.75 14.5298 6.47018 14.25 6.125 14.25H1.75V1.75Z" fill="#fff"/>
</svg>
