<svg width="16" height="16" viewBox="0 0 16 16" fill="none" xmlns="http://www.w3.org/2000/svg">
<path d="M9.0136 15H1.93333C1.6858 15 1.4484 14.9017 1.27337 14.7266C1.09833 14.5516 1 14.3142 1 14.0667V1.93333C1 1.6858 1.09833 1.4484 1.27337 1.27337C1.4484 1.09833 1.6858 1 1.93333 1H14.0667C14.3142 1 14.5516 1.09833 14.7266 1.27337C14.9017 1.4484 15 1.6858 15 1.93333V9.0136C14.9999 9.26096 14.9017 9.49819 14.7268 9.67316L9.67316 14.7268C9.49819 14.9017 9.26096 14.9999 9.0136 15Z" fill="white" stroke="black" stroke-width="2" stroke-linecap="round" stroke-linejoin="round"/>
<path d="M9 15V10.0152C9 9.74597 9.10696 9.48775 9.29735 9.29735C9.48775 9.10696 9.74597 9 10.0152 9H15" fill="white"/>
<path d="M9 15V10.0152C9 9.74597 9.10696 9.48775 9.29735 9.29735C9.48775 9.10696 9.74597 9 10.0152 9H15" stroke="black" stroke-width="2" stroke-linecap="round" stroke-linejoin="round"/>
</svg>
