<svg width="20" height="20" viewBox="0 0 20 20" fill="none" xmlns="http://www.w3.org/2000/svg">
<path fill-rule="evenodd" clip-rule="evenodd" d="M10 4.6875C10 4.6875 11.0804 4.6875 12.0681 5.10524C12.0681 5.10524 13.0215 5.50853 13.7565 6.2435C13.7565 6.2435 14.4915 6.97846 14.8948 7.93194C14.8948 7.93194 15.3125 8.91959 15.3125 10C15.3125 10 15.3125 11.0804 14.8948 12.0681C14.8948 12.0681 14.4915 13.0215 13.7565 13.7565C13.7565 13.7565 13.0215 14.4915 12.0681 14.8948C12.0681 14.8948 11.0804 15.3125 10 15.3125C10 15.3125 8.91959 15.3125 7.93194 14.8948C7.93194 14.8948 6.97846 14.4915 6.2435 13.7565C6.2435 13.7565 5.50853 13.0215 5.10524 12.0681C5.10524 12.0681 4.6875 11.0804 4.6875 10C4.6875 10 4.6875 8.91959 5.10524 7.93194C5.10524 7.93194 5.50853 6.97846 6.2435 6.2435C6.2435 6.2435 6.97846 5.50853 7.93194 5.10524C7.93194 5.10524 8.91959 4.6875 10 4.6875ZM10 5.9375C10 5.9375 8.31726 5.9375 7.12738 7.12738C7.12738 7.12738 5.9375 8.31726 5.9375 10C5.9375 10 5.9375 11.6827 7.12738 12.8726C7.12738 12.8726 8.31726 14.0625 10 14.0625C10 14.0625 11.6827 14.0625 12.8726 12.8726C12.8726 12.8726 14.0625 11.6827 14.0625 10C14.0625 10 14.0625 8.31726 12.8726 7.12738C12.8726 7.12738 11.6827 5.9375 10 5.9375Z" fill="#fff"/>
<path d="M10.625 2.8125V1.25C10.625 0.904822 10.3452 0.625 10 0.625C9.65482 0.625 9.375 0.904822 9.375 1.25V2.8125C9.375 3.15768 9.65482 3.4375 10 3.4375C10.3452 3.4375 10.625 3.15768 10.625 2.8125Z" fill="#fff"/>
<path d="M4.25443 3.37054C4.13722 3.25333 3.97825 3.18748 3.81248 3.18748C3.64672 3.18748 3.48775 3.25333 3.37054 3.37054C3.25333 3.48775 3.18748 3.64672 3.18748 3.81248C3.18748 3.97825 3.25333 4.13722 3.37054 4.25443L4.47211 5.35599C4.58932 5.4732 4.74829 5.53905 4.91405 5.53905C5.07981 5.53905 5.23878 5.4732 5.35599 5.35599C5.4732 5.23878 5.53905 5.07981 5.53905 4.91405C5.53905 4.74829 5.4732 4.58932 5.35599 4.47211L4.25443 3.37054Z" fill="#fff"/>
<path d="M2.8125 9.375H1.25C0.904822 9.375 0.625 9.65482 0.625 10C0.625 10.3452 0.904822 10.625 1.25 10.625H2.8125C3.15768 10.625 3.4375 10.3452 3.4375 10C3.4375 9.65482 3.15768 9.375 2.8125 9.375Z" fill="#fff"/>
<path d="M3.37054 15.7455C3.25333 15.8627 3.18748 16.0217 3.18748 16.1875C3.18748 16.1983 3.18776 16.209 3.18832 16.2198C3.19632 16.3742 3.26124 16.5201 3.37054 16.6294C3.48775 16.7466 3.64672 16.8125 3.81248 16.8125C3.97825 16.8125 4.13722 16.7466 4.25443 16.6294L5.35599 15.5278C5.4732 15.4106 5.53905 15.2517 5.53905 15.0859C5.53905 14.9201 5.4732 14.7612 5.35599 14.644C5.23878 14.5268 5.07981 14.4609 4.91405 14.4609C4.90326 14.4609 4.89248 14.4612 4.88171 14.4617C4.72734 14.4697 4.58141 14.5347 4.47211 14.644L3.37054 15.7455Z" fill="#fff"/>
<path d="M9.375 17.1875V18.75C9.375 19.0952 9.65482 19.375 10 19.375C10.3452 19.375 10.625 19.0952 10.625 18.75V17.1875C10.625 16.8423 10.3452 16.5625 10 16.5625C9.65482 16.5625 9.375 16.8423 9.375 17.1875Z" fill="#fff"/>
<path d="M14.644 15.5279L15.7455 16.6294C15.8627 16.7466 16.0217 16.8125 16.1875 16.8125C16.3532 16.8125 16.5122 16.7466 16.6294 16.6294C16.7466 16.5122 16.8125 16.3532 16.8125 16.1875C16.8125 16.0217 16.7466 15.8627 16.6294 15.7455L15.5279 14.644C15.4106 14.5268 15.2517 14.4609 15.0859 14.4609C14.9201 14.4609 14.7612 14.5268 14.644 14.644C14.5268 14.7612 14.4609 14.9201 14.4609 15.0859C14.4609 15.2517 14.5268 15.4106 14.644 15.5279Z" fill="#fff"/>
<path d="M17.1875 10.625H18.75C19.0952 10.625 19.375 10.3452 19.375 10C19.375 9.65482 19.0952 9.375 18.75 9.375H17.1875C16.8423 9.375 16.5625 9.65482 16.5625 10C16.5625 10.3452 16.8423 10.625 17.1875 10.625Z" fill="#fff"/>
<path d="M16.6294 4.25443C16.7466 4.13722 16.8125 3.97825 16.8125 3.81248C16.8125 3.64672 16.7466 3.48775 16.6294 3.37054C16.5122 3.25333 16.3532 3.18748 16.1875 3.18748C16.0217 3.18748 15.8627 3.25333 15.7455 3.37054L14.644 4.47203C14.5268 4.58932 14.4609 4.74829 14.4609 4.91405C14.4609 5.07981 14.5268 5.23878 14.644 5.35599C14.7612 5.4732 14.9201 5.53905 15.0859 5.53905C15.2517 5.53905 15.4106 5.4732 15.5278 5.35599L16.6294 4.25443Z" fill="#fff"/>
</svg>
