<svg width="40" height="40" viewBox="0 0 40 40" fill="none" xmlns="http://www.w3.org/2000/svg">
<rect width="40" height="40" fill="#141920"/>
<path d="M28.0587 27.4436C18.9783 31.7651 13.343 28.1495 9.73562 25.9534C9.5124 25.815 9.133 25.9857 9.46218 26.3638C10.664 27.8211 14.6025 31.3333 19.7434 31.3333C24.8879 31.3333 27.9484 28.5263 28.3313 28.0366C28.7115 27.5511 28.4429 27.2832 28.0586 27.4436H28.0587ZM30.6089 26.0353C30.365 25.7177 29.1261 25.6585 28.3464 25.7543C27.5655 25.8473 26.3934 26.3246 26.4953 26.6111C26.5476 26.7185 26.6544 26.6703 27.1908 26.6221C27.7287 26.5684 29.2356 26.3783 29.5496 26.7887C29.8651 27.202 29.069 29.1709 28.9236 29.4884C28.7831 29.806 28.9773 29.8879 29.2411 29.6764C29.5014 29.465 29.9725 28.9175 30.2887 28.1427C30.6027 27.3637 30.7941 26.277 30.6088 26.0353H30.6089Z" fill="#FF9900"/>
<path fill-rule="evenodd" clip-rule="evenodd" d="M21.9528 18.6257C21.9528 19.7595 21.9814 20.7052 21.4083 21.7121C20.9457 22.5309 20.213 23.0344 19.3943 23.0344C18.2767 23.0344 17.6259 22.1829 17.6259 20.9262C17.6259 18.4455 19.8486 17.9952 21.9528 17.9952V18.6257ZM24.8878 25.7198C24.6954 25.8916 24.417 25.904 24.2001 25.7893C23.2341 24.987 23.0621 24.6145 22.53 23.849C20.9335 25.4783 19.8037 25.9653 17.7324 25.9653C15.2844 25.9653 13.3768 24.4548 13.3768 21.4297C13.3768 19.0678 14.6582 17.459 16.4797 16.6731C18.0598 15.9771 20.2662 15.8543 21.9528 15.662V15.2853C21.9528 14.5935 22.0059 13.7748 21.6007 13.1772C21.2446 12.6409 20.565 12.4199 19.9673 12.4199C18.858 12.4199 17.8674 12.9888 17.6259 14.1678C17.5767 14.4298 17.3844 14.6877 17.1224 14.7L14.2978 14.3971C14.0604 14.3438 13.7985 14.1515 13.864 13.7871C14.5148 10.365 17.6053 9.33331 20.3725 9.33331C21.7889 9.33331 23.6392 9.70995 24.7567 10.7825C26.1731 12.1047 26.038 13.869 26.038 15.7888V20.3245C26.038 21.6876 26.6029 22.2852 27.1351 23.0221C27.3233 23.2841 27.3643 23.5994 27.1269 23.7958C26.5333 24.291 25.4772 25.2121 24.8959 25.728L24.8877 25.7198" fill="white"/>
</svg>
