<svg width="168" height="26" viewBox="0 0 168 26" fill="none" xmlns="http://www.w3.org/2000/svg">
<path d="M46.8206 7.28172H48.5266L53.3003 18.3629H51.0465L50.0135 15.8274H45.2085L44.2068 18.3629H42L46.8206 7.28172ZM49.3248 14.137L47.6188 9.62943L45.8815 14.137H49.3248Z" fill="#72FFA2"/>
<path d="M67.0529 7.28172H70.9031C71.4352 7.28172 71.9465 7.3339 72.4369 7.43824C72.9378 7.53215 73.3812 7.6991 73.7673 7.93908C74.1534 8.17907 74.4612 8.50253 74.6907 8.90947C74.9203 9.3164 75.0351 9.8329 75.0351 10.459C75.0351 11.2624 74.8107 11.9354 74.362 12.478C73.9238 13.0206 73.2925 13.3492 72.4682 13.464L75.4107 18.3629H73.0317L70.4649 13.6675H69.0249V18.3629H67.0529V7.28172ZM70.5588 11.9771C70.8405 11.9771 71.1222 11.9667 71.4039 11.9458C71.6857 11.9145 71.9413 11.8519 72.1709 11.758C72.4108 11.6537 72.6039 11.5024 72.75 11.3041C72.896 11.0954 72.9691 10.8085 72.9691 10.4433C72.9691 10.1198 72.9012 9.85899 72.7656 9.66073C72.63 9.46248 72.4526 9.3164 72.2335 9.2225C72.0143 9.11815 71.7691 9.05033 71.4978 9.01903C71.237 8.98773 70.9813 8.97207 70.7309 8.97207H69.0249V11.9771H70.5588Z" fill="#72FFA2"/>
<path d="M97.0391 9.87985C96.6321 9.44161 96.2356 9.14946 95.8496 9.00338C95.4739 8.8573 95.0931 8.78426 94.707 8.78426C94.1331 8.78426 93.6114 8.8886 93.1419 9.09729C92.6828 9.29554 92.2863 9.57726 91.9524 9.94246C91.6185 10.2972 91.3576 10.7146 91.1698 11.1946C90.9924 11.6745 90.9037 12.191 90.9037 12.7441C90.9037 13.3388 90.9924 13.8866 91.1698 14.3875C91.3576 14.8883 91.6185 15.3213 91.9524 15.6865C92.2863 16.0517 92.6828 16.3387 93.1419 16.5473C93.6114 16.756 94.1331 16.8604 94.707 16.8604C95.1557 16.8604 95.5887 16.756 96.0061 16.5473C96.4339 16.3282 96.8304 15.9839 97.1956 15.5144L98.8233 16.6726C98.3225 17.3612 97.7121 17.8621 96.9921 18.1751C96.2721 18.4881 95.5052 18.6446 94.6914 18.6446C93.8357 18.6446 93.048 18.509 92.328 18.2377C91.6185 17.956 91.0028 17.5647 90.4811 17.0638C89.9699 16.5526 89.5681 15.9422 89.276 15.2326C88.9838 14.5231 88.8377 13.7353 88.8377 12.8693C88.8377 11.9824 88.9838 11.1789 89.276 10.459C89.5681 9.72856 89.9699 9.10772 90.4811 8.59644C91.0028 8.08516 91.6185 7.69388 92.328 7.42259C93.048 7.14086 93.8357 7 94.6914 7C95.4426 7 96.1365 7.13565 96.773 7.40694C97.4199 7.66779 98.0199 8.11647 98.5729 8.75295L97.0391 9.87985Z" fill="#72FFA2"/>
<path d="M112.668 7.28172H114.64V11.6954H119.821V7.28172H121.793V18.3629H119.821V13.4797H114.64V18.3629H112.668V7.28172Z" fill="#72FFA2"/>
<path d="M136.79 7.28172H144.131V9.06598H138.762V11.7893H143.849V13.5736H138.762V16.5786H144.412V18.3629H136.79V7.28172Z" fill="#72FFA2"/>
<path d="M158.879 7.28172H162.73C163.262 7.28172 163.773 7.3339 164.263 7.43824C164.764 7.53215 165.208 7.6991 165.594 7.93908C165.98 8.17907 166.288 8.50253 166.517 8.90947C166.747 9.3164 166.862 9.8329 166.862 10.459C166.862 11.2624 166.637 11.9354 166.189 12.478C165.75 13.0206 165.119 13.3492 164.295 13.464L167.237 18.3629H164.858L162.291 13.6675H160.851V18.3629H158.879V7.28172ZM162.385 11.9771C162.667 11.9771 162.949 11.9667 163.23 11.9458C163.512 11.9145 163.768 11.8519 163.997 11.758C164.237 11.6537 164.43 11.5024 164.576 11.3041C164.723 11.0954 164.796 10.8085 164.796 10.4433C164.796 10.1198 164.728 9.85899 164.592 9.66073C164.456 9.46248 164.279 9.3164 164.06 9.2225C163.841 9.11815 163.596 9.05033 163.324 9.01903C163.064 8.98773 162.808 8.97207 162.557 8.97207H160.851V11.9771H162.385Z" fill="#72FFA2"/>
<path d="M30 25.5709L15.1248 0L0 26C2.67205 24.3405 5.63617 23.1011 8.79839 22.3753L15.1248 11.5L21.3832 22.2584C24.4645 22.905 27.3651 24.0373 30 25.5709Z" fill="#72FFA2"/>
</svg>
