<svg width="16" height="16" viewBox="0 0 16 16" fill="none" xmlns="http://www.w3.org/2000/svg">
  <path
    d="M10.3534 3.35374L10.3536 3.35355C10.4473 3.25979 10.5 3.13261 10.5 3C10.5 2.86739 10.4473 2.74021 10.3536 2.64645L10.3533 2.64616L10.3492 2.64218L10.3489 2.6419C10.2556 2.55092 10.1304 2.5 10 2.5C9.86739 2.5 9.74021 2.55268 9.64645 2.64645L9.64626 2.64663L4.64645 7.64645C4.55268 7.74021 4.5 7.86739 4.5 8C4.5 8.13261 4.55268 8.25979 4.64645 8.35355L9.64645 13.3536C9.74021 13.4473 9.86739 13.5 10 13.5C10.1326 13.5 10.2598 13.4473 10.3536 13.3536C10.4473 13.2598 10.5 13.1326 10.5 13C10.5 12.8674 10.4473 12.7402 10.3536 12.6464L5.70711 8L10.3534 3.35374Z"
    fill="currentColor"/>
</svg>
