<svg width="16" height="16" viewBox="0 0 16 16" fill="none" xmlns="http://www.w3.org/2000/svg">
<path d="M8.70625 7.99998L12.8563 3.85623C12.936 3.75908 12.9767 3.63575 12.9706 3.51023C12.9644 3.3847 12.9118 3.26595 12.8229 3.17709C12.734 3.08822 12.6153 3.03558 12.4898 3.02942C12.3642 3.02325 12.2409 3.064 12.1438 3.14373L8 7.29373L3.85626 3.14373C3.75911 3.064 3.63578 3.02325 3.51025 3.02942C3.38472 3.03558 3.26598 3.08822 3.17711 3.17709C3.08824 3.26595 3.03561 3.3847 3.02944 3.51023C3.02328 3.63575 3.06402 3.75908 3.14375 3.85623L7.29375 7.99998L3.14375 12.1437C3.04986 12.2385 2.99719 12.3666 2.99719 12.5C2.99719 12.6334 3.04986 12.7614 3.14375 12.8562C3.23933 12.9486 3.36706 13.0003 3.50001 13.0003C3.63295 13.0003 3.76068 12.9486 3.85626 12.8562L8 8.70623L12.1438 12.8562C12.2393 12.9486 12.3671 13.0003 12.5 13.0003C12.6329 13.0003 12.7607 12.9486 12.8563 12.8562C12.9501 12.7614 13.0028 12.6334 13.0028 12.5C13.0028 12.3666 12.9501 12.2385 12.8563 12.1437L8.70625 7.99998Z" fill="#606164"/>
</svg>
