<svg width="40" height="40" viewBox="0 0 40 40" fill="none" xmlns="http://www.w3.org/2000/svg">
<rect width="40" height="40" fill="#1300BC"/>
<path d="M17.7584 17.4917C17.7584 17.4917 17.8509 17.3529 17.9286 17.2473C18.0701 17.0553 18.3261 16.7892 18.5185 16.6242C18.5778 16.574 18.647 16.5167 18.647 16.5167C18.647 16.5167 18.5381 16.528 18.4768 16.5407C18.3306 16.5692 18.1162 16.7117 18.0088 16.8038C17.8321 16.9547 17.638 17.2008 17.7254 17.419C17.7385 17.4504 17.7584 17.4917 17.7584 17.4917ZM18.741 17.7545C19.0203 17.7358 19.2821 17.6548 19.5253 17.5202C19.7642 17.3867 20.1153 17.1262 20.0795 16.8195C20.0679 16.7206 20.0033 16.6456 19.9213 16.6105C19.8144 16.564 19.759 16.5723 19.6226 16.6122C19.524 16.6415 19.4797 16.6589 19.3866 16.7124C19.1121 16.8716 18.724 17.2122 18.513 17.4842C18.4642 17.5479 18.4149 17.6197 18.3767 17.6686C18.3518 17.6985 18.3333 17.7266 18.3354 17.7343C18.3437 17.7655 18.6317 17.7624 18.741 17.7545ZM18.0296 18.2771C18.001 18.3069 17.9707 18.3811 17.9388 18.4346C17.922 18.4629 17.8906 18.4996 17.8701 18.514C17.7974 18.5674 17.7361 18.5698 17.6654 18.5081C17.5673 18.4217 17.5105 18.2867 17.5064 18.1558C17.5042 18.0984 17.5136 18.0358 17.5033 17.9869C17.4852 17.9057 17.4036 17.8224 17.36 17.7445C17.3085 17.6522 17.2669 17.4927 17.2618 17.3898C17.2437 17.0682 17.4135 16.7724 17.6338 16.5385C17.8555 16.3022 18.1454 16.1059 18.4611 15.9725C18.7591 15.8464 19.1963 15.7609 19.5238 15.8746C19.63 15.9112 19.7788 16.002 19.8534 16.0965C19.8692 16.1165 19.8822 16.1384 19.8986 16.1486C19.9128 16.1578 19.951 16.1615 19.9813 16.1669C20.086 16.185 20.2366 16.264 20.2979 16.3166C20.4207 16.4233 20.4888 16.5252 20.52 16.6729C20.5828 16.9698 20.4117 17.296 20.2169 17.494C19.8829 17.8359 19.5532 18.0757 19.1261 18.2432C18.9389 18.3165 18.6468 18.3848 18.4338 18.3656C18.3679 18.3602 18.2997 18.3429 18.2355 18.3381C18.203 18.3353 18.0828 18.305 18.0701 18.2954C18.0542 18.2838 18.0339 18.2729 18.0296 18.2771ZM18.4111 18.9359C18.424 18.9383 18.4443 18.9442 18.4615 18.9503C18.6112 19.0075 18.6727 19.1462 18.7096 19.2981C18.7951 19.6515 18.8318 20.4328 18.8457 20.7393C18.8562 20.9684 18.8619 21.195 18.8715 21.4217C18.8796 21.6139 18.8948 21.8696 18.8551 22.05C18.8405 22.1148 18.7973 22.1895 18.7351 22.2285C18.6638 22.2739 18.5021 22.2774 18.4133 22.259C18.1941 22.2137 18.1227 22.0727 18.0917 21.8561C18.0174 21.3388 18.0529 20.3237 18.097 19.8952C18.1112 19.7545 18.1648 19.3011 18.2388 19.1113C18.2637 19.0467 18.3176 18.9176 18.4111 18.9359ZM11.6584 19.7122C11.6584 19.7122 11.3338 19.7351 11.1108 19.7599C10.8266 19.7903 10.2927 19.8825 9.98508 19.9932C9.89236 20.0254 9.70452 20.1042 9.68815 20.1989C9.67157 20.2979 9.73223 20.3745 9.80051 20.4546C9.83978 20.5006 10.0623 20.7146 10.1245 20.7668C10.3861 20.9847 10.9162 21.3218 11.3074 21.4854C11.4409 21.5411 11.663 21.6205 11.663 21.6205C11.663 21.6205 11.6464 20.9884 11.6497 20.366C11.651 20.037 11.6584 19.7122 11.6584 19.7122ZM17.6059 19.9637C17.6247 20.1334 17.5806 20.4546 17.5734 20.4969C17.5594 20.5944 17.4857 20.8194 17.4739 20.8471C17.4143 20.9834 17.3561 21.0962 17.2937 21.2077C17.1872 21.3992 16.9346 21.7027 16.7841 21.8325C16.226 22.3151 15.3616 22.59 14.6198 22.6805C14.117 22.7414 13.5388 22.732 13.0054 22.6336C12.8221 22.5998 12.5494 22.5374 12.5494 22.5374C12.5494 22.5374 12.5501 22.6465 12.5411 22.7235C12.537 22.758 12.5104 22.8505 12.4958 22.8804C12.4567 22.9605 12.3932 23.0017 12.3009 23.0191C12.1892 23.0405 12.0708 23.0468 11.9673 23.0032C11.7981 22.9314 11.737 22.7726 11.7077 22.5907C11.6837 22.4441 11.6586 22.1895 11.6586 22.1895C11.6586 22.1895 11.5321 22.1297 11.4263 22.0769C11.1017 21.9167 10.793 21.7234 10.5235 21.5236C10.4489 21.4684 10.1278 21.1992 10.0566 21.132C9.85789 20.9442 9.67921 20.7561 9.54308 20.5152C9.43726 20.3272 9.40694 20.1598 9.48722 19.9607C9.59849 19.6829 9.99664 19.4733 10.2694 19.3539C10.4698 19.2656 11.0918 19.0625 11.3506 19.0249C11.4725 19.0075 11.6619 18.9739 11.6735 18.966C11.6783 18.9625 11.6818 18.9595 11.685 18.9553C11.6909 18.9468 11.701 18.6715 11.699 18.5711C11.6968 18.4721 11.7723 17.8226 11.7965 17.6854C11.8096 17.6106 11.8659 17.3245 11.9235 17.2497C11.9608 17.1991 12.0273 17.2026 12.0815 17.2364C12.3779 17.4203 12.4678 18.06 12.4899 18.3855C12.5032 18.5836 12.5097 18.8818 12.5097 18.8818C12.5097 18.8818 12.8498 18.872 13.0593 18.8774C13.2624 18.8825 13.4865 18.9148 13.6976 18.9484C13.9679 18.9911 14.4946 19.1061 14.7965 19.2595C15.0455 19.3853 15.278 19.5981 15.3533 19.823C15.4236 20.0292 15.4129 20.1714 15.3062 20.3575C15.1864 20.5678 14.9593 20.7236 14.7291 20.7365C14.6604 20.741 14.4028 20.7066 14.3236 20.6453C14.2921 20.6204 14.2939 20.5763 14.3166 20.5464C14.3251 20.5355 14.4453 20.4725 14.5166 20.4345C14.5522 20.4151 14.5819 20.3944 14.6094 20.3691C14.6687 20.3165 14.7217 20.2593 14.7158 20.1926C14.7075 20.1053 14.6157 20.0514 14.5275 20.0169C14.1152 19.8533 13.2918 19.717 12.8935 19.6934C12.7377 19.6842 12.5165 19.6764 12.5165 19.6764L12.5632 21.8738C12.5632 21.8738 12.7464 21.9089 12.8906 21.9324C12.9738 21.9447 13.3246 21.9763 13.4177 21.9787C14.1279 21.9975 14.9205 21.9342 15.5721 21.6259C15.8581 21.4913 16.1206 21.324 16.3191 21.0973C16.5814 20.7965 16.7186 20.3859 16.6822 19.9569C16.6422 19.4874 16.3122 18.9316 16.049 18.5927C15.3529 17.6972 14.1597 16.9613 13.1103 16.5298C12.0385 16.0893 10.9795 15.8353 9.84175 15.793C9.54875 15.7825 8.90908 15.7974 8.58641 15.8868C8.53972 15.8997 8.49347 15.9154 8.45049 15.9246C8.41646 15.9328 8.36366 15.9553 8.34882 15.9669C8.34097 15.9741 8.33246 15.9826 8.33246 15.9826C8.33246 15.9826 8.35253 15.9935 8.37152 16.002C8.40577 16.0171 8.54998 16.0256 8.62459 16.0391C8.69091 16.0517 8.76094 16.0873 8.788 16.1364C8.81418 16.1826 8.81789 16.2191 8.78625 16.2577C8.71295 16.3474 8.43718 16.3317 8.3161 16.3129C8.19 16.2924 8.03314 16.2542 8.00412 16.1442C7.97096 16.0149 8.03183 15.8881 8.09837 15.7707C8.23189 15.5362 8.42257 15.414 8.70269 15.3379C9.09976 15.2288 9.60133 15.1522 9.97657 15.1378C10.8259 15.1062 11.6294 15.2541 12.4519 15.5044C12.9227 15.6464 13.5397 15.8853 13.9906 16.1028C14.314 16.2586 14.8245 16.5461 15.1111 16.734C15.2015 16.7935 15.7305 17.1821 15.8126 17.2504C15.984 17.3904 16.2085 17.5918 16.3704 17.753C16.6846 18.0643 17.0753 18.5413 17.2655 18.9196C17.3107 19.0108 17.3465 19.1 17.405 19.2049C17.4252 19.2407 17.5123 19.4562 17.5267 19.5186C17.5409 19.5802 17.5618 19.6707 17.5649 19.674C17.5692 19.7074 17.6089 19.8919 17.6059 19.9637ZM21.2646 20.1234C21.2805 20.1249 21.2844 20.1256 21.299 20.1278C21.5591 20.1631 21.8139 20.2098 22.0087 20.2971C22.1896 20.3774 22.2961 20.4781 22.3927 20.6586C22.54 20.9319 22.5498 21.3144 22.4167 21.6041C22.317 21.8194 22.0988 22.0003 21.8999 22.0963C21.6924 22.1967 21.4893 22.2442 21.2554 22.2708C20.8474 22.3156 20.4054 22.2313 20.0376 22.0533C19.8201 21.9471 19.5543 21.7642 19.4202 21.5284C19.3216 21.3552 19.3246 21.1307 19.4448 20.9666C19.6357 20.7053 20.0448 20.6477 20.3535 20.6586C20.5887 20.6673 21.0115 20.7404 21.2351 20.8194C21.2973 20.8418 21.5253 20.9308 21.565 20.971C21.5929 20.9998 21.6114 21.0406 21.5988 21.0792C21.5473 21.2352 21.1688 21.3174 21.0595 21.3338C20.766 21.3785 20.6142 21.2679 20.2811 21.1364C20.1984 21.1041 20.0882 21.0683 20.0035 21.0604C19.8526 21.046 19.67 21.0877 19.6414 21.2533C19.6266 21.3386 19.7265 21.418 19.8026 21.451C19.9813 21.5284 20.1266 21.5557 20.3029 21.5585C20.8219 21.5664 21.4055 21.4811 21.8307 21.18C21.8894 21.1388 21.9461 21.0777 21.947 21.0011C21.947 20.9913 21.933 20.9088 21.9064 20.9003C21.9025 20.8986 21.8983 20.9005 21.8953 20.8999C21.8855 20.897 21.8691 20.8702 21.8554 20.8525C21.8248 20.8152 21.7015 20.7622 21.6773 20.7519C21.3911 20.6326 20.8623 20.5746 20.5893 20.5521C20.3035 20.5277 19.8539 20.4897 19.7457 20.474C19.6346 20.4583 19.5138 20.4363 19.4171 20.3928C19.3209 20.3492 19.2262 20.2515 19.1979 20.1435C19.1481 19.9484 19.212 19.7089 19.3202 19.5527C19.6043 19.1443 20.2688 18.9896 20.766 18.9281C21.2471 18.8681 22.0247 18.8687 22.497 19.1198C22.5701 19.1587 22.6076 19.1951 22.5919 19.2732C22.5613 19.4196 22.4505 19.5138 22.3177 19.5553C22.178 19.5998 21.8885 19.617 21.7615 19.6249C21.1919 19.657 20.5036 19.6402 19.9614 19.7883C19.9189 19.8005 19.8456 19.8195 19.8214 19.8465C19.7365 19.9386 19.9791 19.9648 20.0313 19.9761C20.0465 19.9792 20.0498 19.9799 20.0657 19.9814L21.2646 20.1234ZM23.0415 22.2538C22.8116 22.1694 22.7594 21.7981 22.7488 21.6102C22.7123 20.9987 22.874 20.1478 23.0793 19.5747C23.138 19.4115 23.2224 19.1449 23.405 19.16C23.5307 19.1711 23.6203 19.268 23.6908 19.3675C23.871 19.6216 24.1079 19.9661 24.265 20.2059C24.4406 20.4747 24.6093 20.7454 24.7751 20.9904C24.7954 21.0201 24.8146 21.0489 24.8368 21.0672C24.8669 21.0914 24.894 21.0927 24.9062 21.0703C24.9119 21.0615 24.901 20.7526 24.8933 20.6906C24.8805 20.592 24.8746 20.5122 24.8634 20.4271C24.8329 20.1799 24.7541 19.8322 24.6924 19.597C24.6243 19.3339 24.5412 19.0596 24.479 18.805C24.4592 18.7223 24.4406 18.6388 24.4413 18.56C24.4419 18.4461 24.515 18.3831 24.6337 18.4256C24.8676 18.5081 25.1776 19.0158 25.2679 19.192C25.2987 19.2516 25.4204 19.5544 25.4477 19.6393C25.5448 19.9301 25.6035 20.2059 25.6303 20.5229C25.656 20.8309 25.6345 21.2797 25.5042 21.5834C25.4564 21.6951 25.3582 21.8454 25.2767 21.9211C25.1486 22.0398 24.8933 22.1325 24.7175 22.0322C24.5251 21.9231 24.2089 21.3755 24.1551 21.2819C23.9716 20.9616 23.6559 20.3352 23.607 20.265C23.5963 20.2495 23.5824 20.2347 23.5579 20.2273C23.5394 20.2218 23.532 20.2604 23.5272 20.2855C23.4958 20.4679 23.4742 21.3209 23.4737 21.3447C23.4685 21.4883 23.4615 21.8404 23.42 22.0138C23.393 22.1271 23.3655 22.22 23.2614 22.2676C23.1875 22.3009 23.1312 22.287 23.0415 22.2538ZM26.2115 22.1993C26.1866 22.1803 26.1465 22.1393 26.1173 22.1063C26.1127 22.1017 26.03 21.9778 26.0136 21.9396C25.9992 21.9067 25.9883 21.8829 25.9778 21.8554C25.9026 21.661 25.9045 21.4697 25.9462 21.2609C25.9848 21.0661 26.0215 21.0576 26.1214 20.7901C26.1277 20.7755 26.1308 20.7629 26.133 20.7467C26.1371 20.7101 26.0778 20.4635 26.0743 20.3843C26.0701 20.2635 26.1639 20.1777 26.321 20.1611C26.3354 20.1598 26.3461 20.1601 26.3566 20.157C26.4192 20.1417 26.4593 20.0217 26.4936 19.9255C26.5414 19.7903 26.616 19.5841 26.616 19.5841C26.616 19.5841 26.4175 19.5383 26.3112 19.4981C26.1925 19.4534 26.1029 19.3956 26.0492 19.2867C25.9848 19.1593 26.0271 19.0886 26.1602 19.0474C26.2091 19.0317 26.5944 18.9577 26.7161 18.9405C26.868 18.9182 27.0109 18.8993 27.1553 18.8814C27.281 18.8661 27.8574 18.7993 28.0408 18.8041C28.3205 18.8122 28.502 18.9274 28.6654 19.1641C28.7534 19.2904 28.8134 19.4405 28.6807 19.5219C28.477 19.6456 27.8168 19.655 27.6957 19.6563C27.5031 19.6583 27.2367 19.655 27.2367 19.655L27.1023 20.1042C27.1023 20.1042 27.5753 20.0992 27.841 20.0981C27.9056 20.0981 27.9702 20.1016 28.0064 20.1092C28.1421 20.1393 28.189 20.2436 28.1944 20.3939C28.2018 20.5698 28.1687 20.6507 28.0286 20.6743C27.9562 20.6858 27.1437 20.6906 27.0336 20.7035C26.9648 20.7109 26.8922 20.7218 26.8922 20.7218C26.8922 20.7218 26.8335 20.875 26.7824 21.0297C26.731 21.1909 26.6869 21.3552 26.6869 21.3552C26.6869 21.3552 26.7281 21.3569 26.7624 21.3569C26.8195 21.3574 26.8776 21.3491 26.9229 21.3412C27.1708 21.2958 27.5393 21.2413 27.8416 21.1937C28.0042 21.1678 28.086 21.1562 28.1715 21.264C28.2455 21.3593 28.2839 21.4392 28.2891 21.5544C28.2937 21.6628 28.211 21.7346 28.11 21.8118C27.7904 22.0562 27.2441 22.321 26.837 22.3664C26.6489 22.3875 26.6031 22.3666 26.4384 22.3236C26.407 22.3156 26.2931 22.2623 26.2942 22.2566C26.2942 22.2566 26.2324 22.2156 26.2115 22.1993ZM31.348 19.9417C31.1386 20.1171 30.8681 20.4747 30.7389 20.6603C30.5663 20.9064 30.404 21.1883 30.2487 21.4067C30.2153 21.4558 30.1152 21.6314 30.1187 21.6373C30.1256 21.6497 30.2264 21.6458 30.3301 21.6283C30.5506 21.5912 30.8506 21.4363 31.0107 21.3085C31.2549 21.1128 31.4248 20.844 31.5051 20.5296C31.5407 20.3867 31.5588 20.0872 31.4576 19.9539C31.4377 19.9284 31.3871 19.9083 31.348 19.9417ZM29.6847 22.5099C29.6847 22.5099 29.6184 22.7045 29.5698 22.8573C29.4858 23.1208 29.301 23.8305 29.2582 24.0511C29.1938 24.3783 29.0106 25.2359 29.0012 25.2543C28.9883 25.2791 28.9798 25.287 28.9488 25.3068C28.8734 25.3511 28.843 25.3365 28.7516 25.2876C28.6329 25.2253 28.5287 25.1615 28.4396 25.044C28.2607 24.8116 28.3035 24.3744 28.3384 24.1178C28.4612 23.2205 28.5854 22.8258 28.9268 21.9327C28.9325 21.9174 28.9325 21.9139 28.9255 21.9004C28.819 21.6737 28.7617 21.3999 28.7617 21.1787C28.7625 20.4786 29.1648 19.7859 29.616 19.2296C29.65 19.1872 29.8715 18.922 29.9721 18.9272C30.0728 18.932 30.0892 19.0496 30.0742 19.1478C30.0235 19.4711 29.796 19.8005 29.6404 20.0732C29.4655 20.378 29.4275 20.5035 29.342 20.7829C29.3282 20.8266 29.294 21.0308 29.2955 21.0569C29.299 21.132 29.3154 21.2267 29.3154 21.2267C29.3154 21.2267 29.5999 20.8283 29.7877 20.5824C29.8902 20.4474 29.964 20.3582 30.0495 20.2619C30.1361 20.1642 30.4697 19.8175 30.5657 19.7261C30.7675 19.5335 30.8569 19.4534 31.0751 19.3402C31.2481 19.2507 31.4034 19.2285 31.5721 19.34C31.8396 19.5156 31.9561 19.8871 31.9862 20.1884C32.0213 20.5484 31.9478 20.9533 31.789 21.2616C31.6007 21.6294 31.3435 21.8943 30.9937 22.126C30.6362 22.3629 30.2166 22.5241 29.8052 22.5145C29.7495 22.5132 29.6847 22.5099 29.6847 22.5099Z" fill="white"/>
</svg>
