<svg width="40" height="40" viewBox="0 0 40 40" fill="none" xmlns="http://www.w3.org/2000/svg">
  <rect width="40" height="40" fill="white"/>
  <path
    d="M31.7394 20.27C31.7394 19.48 31.6694 18.73 31.5494 18H20.2494V22.51H26.7194C26.4294 23.99 25.5794 25.24 24.3194 26.09V29.09H28.1794C30.4394 27 31.7394 23.92 31.7394 20.27Z"
    fill="#4285F4"/>
  <path
    d="M20.2494 32C23.4894 32 26.1994 30.92 28.1794 29.09L24.3194 26.09C23.2394 26.81 21.8694 27.25 20.2494 27.25C17.1194 27.25 14.4694 25.14 13.5194 22.29H9.53943V25.38C11.5094 29.3 15.5594 32 20.2494 32Z"
    fill="#34A853"/>
  <path
    d="M13.5194 22.29C13.2694 21.57 13.1394 20.8 13.1394 20C13.1394 19.2 13.2794 18.43 13.5194 17.71V14.62H9.53939C8.71939 16.24 8.24939 18.06 8.24939 20C8.24939 21.94 8.71939 23.76 9.53939 25.38L13.5194 22.29Z"
    fill="#FBBC05"/>
  <path
    d="M20.2494 12.75C22.0194 12.75 23.5994 13.36 24.8494 14.55L28.2694 11.13C26.1994 9.19 23.4894 8 20.2494 8C15.5594 8 11.5094 10.7 9.53943 14.62L13.5194 17.71C14.4694 14.86 17.1194 12.75 20.2494 12.75Z"
    fill="#EA4335"/>
</svg>
