<svg width="40" height="40" viewBox="0 0 40 40" fill="none" xmlns="http://www.w3.org/2000/svg">
<rect width="40" height="40" fill="#265DB1"/>
<path fill-rule="evenodd" clip-rule="evenodd" d="M15.7374 8.84705C15.7374 8.37932 16.1166 8 16.5848 8L24.2813 8.00055L31.4257 14.7878H15.7374V8.84705ZM31.1527 15.7385C31.6236 15.7385 32 16.1162 32 16.585L31.9973 24.2821L25.2152 31.4318V15.7385H31.1527ZM23.4162 32C23.8833 32 24.2625 31.6201 24.2625 31.1513V25.2127H8.5736L15.7191 31.9989L23.4162 32ZM8.84845 24.2658C8.37921 24.2658 8 23.8843 8 23.416L8.00109 15.7189L14.7848 8.57145V24.2658H8.84845Z" fill="white"/>
</svg>
