<svg width="40" height="40" viewBox="0 0 40 40" fill="none" xmlns="http://www.w3.org/2000/svg">
<g clip-path="url(#clip0_883_12710)">
<path fill-rule="evenodd" clip-rule="evenodd" d="M0 20V40H20H40V20V0H20H0V20Z" fill="white"/>
<path d="M10.2003 22.1951C10.2003 23.0947 10.4098 23.7854 10.6837 24.2033C11.0427 24.7505 11.5783 24.9824 12.1242 24.9824C12.8285 24.9824 13.4726 24.8178 14.7141 23.1995C15.7088 21.9026 16.8806 20.0821 17.6691 18.9408L19.0045 17.0071C19.9321 15.6644 21.0059 14.1715 22.2369 13.1596C23.2419 12.3338 24.326 11.875 25.4171 11.875C27.2489 11.875 28.9937 12.8754 30.3291 14.7516C31.7906 16.8065 32.5 19.3946 32.5 22.0656C32.5 23.6535 32.1679 24.8201 31.6027 25.7419C31.0569 26.6333 29.9927 27.5239 28.2026 27.5239V24.9824C29.7354 24.9824 30.1179 23.6551 30.1179 22.1361C30.1179 19.9715 29.5824 17.5693 28.4026 15.8528C27.5654 14.6353 26.4804 13.8914 25.2868 13.8914C23.9956 13.8914 22.9567 14.809 21.7891 16.4451C21.1685 17.3144 20.5312 18.3738 19.8156 19.5691L19.028 20.8841C17.4457 23.5281 17.045 24.1303 16.2539 25.1241C14.8671 26.8644 13.683 27.5239 12.1242 27.5239C10.2751 27.5239 9.10575 26.7694 8.38155 25.6321C7.79037 24.7055 7.5 23.4896 7.5 22.1041L10.2003 22.1951Z" fill="#0081FB"/>
<path d="M9.62924 14.931C10.8672 13.1326 12.6538 11.875 14.7029 11.875C15.8897 11.875 17.0694 12.206 18.3014 13.154C19.6489 14.1904 21.0852 15.897 22.8769 18.7098L23.5194 19.7191C25.0704 22.1541 25.9528 23.4069 26.4692 23.9976C27.1334 24.7562 27.5985 24.9824 28.2028 24.9824C29.7355 24.9824 30.118 23.6551 30.118 22.1361L32.5002 22.0656C32.5002 23.6535 32.168 24.8201 31.6029 25.7419C31.0569 26.6333 29.9928 27.5239 28.2028 27.5239C27.0899 27.5239 26.104 27.2961 25.0139 26.3269C24.1758 25.583 23.196 24.2614 22.4423 23.0734L20.2 19.5438C19.0752 17.7724 18.0432 16.4518 17.4459 15.8536C16.8034 15.2104 15.9775 14.4337 14.6595 14.4337C13.5928 14.4337 12.6869 15.1391 11.9288 16.2181L9.62924 14.931Z" fill="url(#paint0_linear_883_12710)"/>
<path d="M14.6594 14.4337C13.5926 14.4337 12.6868 15.1391 11.9287 16.2181C10.8567 17.7429 10.2003 20.0141 10.2003 22.1951C10.2003 23.0947 10.4098 23.7854 10.6837 24.2032L8.38155 25.6321C7.79037 24.7055 7.5 23.4896 7.5 22.1041C7.5 19.5847 8.23376 16.9589 9.62912 14.931C10.8671 13.1326 12.6537 11.875 14.7029 11.875L14.6594 14.4337Z" fill="url(#paint1_linear_883_12710)"/>
</g>
<defs>
<linearGradient id="paint0_linear_883_12710" x1="12.8034" y1="21.461" x2="30.0117" y2="22.3833" gradientUnits="userSpaceOnUse">
<stop stop-color="#0064E1"/>
<stop offset="0.4" stop-color="#0064E1"/>
<stop offset="0.83" stop-color="#0073EE"/>
<stop offset="1" stop-color="#0082FB"/>
</linearGradient>
<linearGradient id="paint1_linear_883_12710" x1="11.4122" y1="23.2635" x2="11.4122" y2="17.2825" gradientUnits="userSpaceOnUse">
<stop stop-color="#0082FB"/>
<stop offset="1" stop-color="#0064E0"/>
</linearGradient>
<clipPath id="clip0_883_12710">
<rect width="40" height="40" fill="white"/>
</clipPath>
</defs>
</svg>
