<svg width="32" height="32" viewBox="0 0 32 32" fill="none" xmlns="http://www.w3.org/2000/svg">
<path d="M8.875 17.5H13.375C13.7892 17.5 14.125 17.1642 14.125 16.75C14.125 16.3358 13.7892 16 13.375 16H8.125C7.71079 16 7.375 16.3358 7.375 16.75V23.5C7.375 23.9142 7.71079 24.25 8.125 24.25C8.53921 24.25 8.875 23.9142 8.875 23.5V17.5Z" fill="#72FFA2"/>
<path d="M25.375 22.75H6.625C6.21079 22.75 5.875 23.0858 5.875 23.5C5.875 23.9142 6.21079 24.25 6.625 24.25H25.375C25.7892 24.25 26.125 23.9142 26.125 23.5C26.125 23.0858 25.7892 22.75 25.375 22.75Z" fill="#72FFA2"/>
<path d="M14.125 13H18.625C19.0392 13 19.375 12.6642 19.375 12.25C19.375 11.8358 19.0392 11.5 18.625 11.5H13.375C12.9608 11.5 12.625 11.8358 12.625 12.25V23.5C12.625 23.9142 12.9608 24.25 13.375 24.25C13.7892 24.25 14.125 23.9142 14.125 23.5V13Z" fill="#72FFA2"/>
<path fill-rule="evenodd" clip-rule="evenodd" d="M17.875 23.5V7.75C17.875 7.33579 18.2108 7 18.625 7H23.875C24.2892 7 24.625 7.33579 24.625 7.75V23.5C24.625 23.9142 24.2892 24.25 23.875 24.25H18.625C18.2108 24.25 17.875 23.9142 17.875 23.5ZM23.125 22.75H19.375V8.5H23.125V22.75Z" fill="#72FFA2"/>
</svg>
