<svg width="16" height="16" viewBox="0 0 16 16" fill="none" xmlns="http://www.w3.org/2000/svg">
  <path fill-rule="evenodd" clip-rule="evenodd"
        d="M7.25 1.5C7.25 1.5 8.4195 1.5 9.48831 1.95207C9.48831 1.95207 10.5203 2.38856 11.3159 3.18414C11.3159 3.18414 12.1114 3.97972 12.5479 5.01169C12.5479 5.01169 13 6.0805 13 7.25C13 7.25 13 8.4195 12.5479 9.48831C12.5479 9.48831 12.1114 10.5203 11.3159 11.3159C11.3159 11.3159 10.5203 12.1114 9.48831 12.5479C9.48831 12.5479 8.4195 13 7.25 13C7.25 13 6.0805 13 5.01169 12.5479C5.01169 12.5479 3.97972 12.1114 3.18414 11.3159C3.18414 11.3159 2.38856 10.5203 1.95207 9.48831C1.95207 9.48831 1.5 8.4195 1.5 7.25C1.5 7.25 1.5 6.0805 1.95207 5.01169C1.95207 5.01169 2.38856 3.97972 3.18414 3.18414C3.18414 3.18414 3.97972 2.38856 5.01169 1.95207C5.01169 1.95207 6.0805 1.5 7.25 1.5ZM7.25 2.5C7.25 2.5 6.28328 2.5 5.40124 2.87307C5.40124 2.87307 4.5489 3.23358 3.89124 3.89124C3.89124 3.89124 3.23358 4.54891 2.87307 5.40124C2.87307 5.40124 2.5 6.28328 2.5 7.25C2.5 7.25 2.5 8.21672 2.87307 9.09876C2.87307 9.09876 3.23358 9.95109 3.89124 10.6088C3.89124 10.6088 4.54891 11.2664 5.40124 11.6269C5.40124 11.6269 6.28329 12 7.25 12C7.25 12 8.21671 12 9.09876 11.6269C9.09876 11.6269 9.95109 11.2664 10.6088 10.6088C10.6088 10.6088 11.2664 9.95109 11.6269 9.09876C11.6269 9.09876 12 8.21671 12 7.25C12 7.25 12 6.28329 11.6269 5.40124C11.6269 5.40124 11.2664 4.54891 10.6088 3.89124C10.6088 3.89124 9.95109 3.23358 9.09876 2.87307C9.09876 2.87307 8.21672 2.5 7.25 2.5Z"
        fill="currentColor" />
  <path
    d="M13.6462 14.3533C13.74 14.4471 13.8674 14.5 14 14.5C14.1326 14.5 14.2598 14.4473 14.3536 14.3536C14.4473 14.2598 14.5 14.1326 14.5 14C14.5 13.8674 14.4473 13.7402 14.3536 13.6465L11.3161 10.609C11.2223 10.5152 11.0951 10.4625 10.9625 10.4625C10.8299 10.4625 10.7025 10.515 10.6088 10.6088C10.515 10.7025 10.4625 10.8299 10.4625 10.9625C10.4625 11.0951 10.5152 11.2223 10.609 11.3161L13.6462 14.3533Z"
    fill="currentColor" />
</svg>
