<svg width="40" height="40" viewBox="0 0 40 40" fill="none" xmlns="http://www.w3.org/2000/svg">
<rect width="40" height="40" fill="white"/>
<path d="M19.8432 32.5827L23.1565 13.9484C26.3146 13.9484 27.3108 14.2947 27.4546 15.7083C27.4546 15.7083 29.5732 14.9183 30.6418 13.314C26.472 11.3818 22.2824 11.2947 22.2824 11.2947L19.8376 14.2723L19.8432 14.2719L17.3984 11.2942C17.3984 11.2942 13.2087 11.3814 9.03949 13.3136C10.1071 14.918 12.2265 15.7079 12.2265 15.7079C12.3712 14.2943 13.3661 13.9479 16.5031 13.9457L19.8432 32.5827Z" fill="#E82127"/>
<path d="M19.8419 10.4346C23.2125 10.4088 27.0706 10.956 31.0201 12.6774C31.548 11.7273 31.6837 11.3073 31.6837 11.3073C27.3663 9.59923 23.3231 9.01466 19.8414 9C16.3599 9.01466 12.3169 9.59932 8 11.3073C8 11.3073 8.19258 11.8246 8.66311 12.6774C12.6119 10.956 16.4706 10.4088 19.8414 10.4346H19.8419" fill="#E82127"/>
</svg>
