<svg width="16" height="16" viewBox="0 0 16 16" fill="none" xmlns="http://www.w3.org/2000/svg">
<path fill-rule="evenodd" clip-rule="evenodd" d="M8 1.5C8 1.5 9.32209 1.5 10.5302 2.01101C10.5302 2.01101 11.6968 2.50442 12.5962 3.40381C12.5962 3.40381 13.4956 4.30319 13.989 5.46975C13.989 5.46975 14.5 6.67791 14.5 8C14.5 8 14.5 9.32208 13.989 10.5302C13.989 10.5302 13.4956 11.6968 12.5962 12.5962C12.5962 12.5962 11.6968 13.4956 10.5302 13.989C10.5302 13.989 9.32208 14.5 8 14.5C8 14.5 6.67791 14.5 5.46975 13.989C5.46975 13.989 4.30319 13.4956 3.40381 12.5962C3.40381 12.5962 2.50442 11.6968 2.01101 10.5302C2.01101 10.5302 1.5 9.32209 1.5 8C1.5 8 1.5 6.67791 2.01101 5.46975C2.01101 5.46975 2.50442 4.30319 3.40381 3.40381C3.40381 3.40381 4.30319 2.50442 5.46975 2.01101C5.46975 2.01101 6.67791 1.5 8 1.5ZM8 2.5C8 2.5 6.8807 2.5 5.85931 2.93201C5.85931 2.93201 4.87238 3.34945 4.11091 4.11091C4.11091 4.11091 3.34945 4.87238 2.93201 5.85931C2.93201 5.85931 2.5 6.8807 2.5 8C2.5 8 2.5 9.1193 2.93201 10.1407C2.93201 10.1407 3.34945 11.1276 4.11091 11.8891C4.11091 11.8891 4.87238 12.6506 5.85931 13.068C5.85931 13.068 6.8807 13.5 8 13.5C8 13.5 9.1193 13.5 10.1407 13.068C10.1407 13.068 11.1276 12.6506 11.8891 11.8891C11.8891 11.8891 12.6506 11.1276 13.068 10.1407C13.068 10.1407 13.5 9.1193 13.5 8C13.5 8 13.5 6.8807 13.068 5.85931C13.068 5.85931 12.6506 4.87238 11.8891 4.11091C11.8891 4.11091 11.1276 3.34945 10.1407 2.93201C10.1407 2.93201 9.1193 2.5 8 2.5Z" fill="#949494"/>
<path d="M2.34375 6.5H13.6562C13.9324 6.5 14.1562 6.27614 14.1562 6C14.1562 5.72386 13.9324 5.5 13.6562 5.5H2.34375C2.06761 5.5 1.84375 5.72386 1.84375 6C1.84375 6.27614 2.06761 6.5 2.34375 6.5Z" fill="#949494"/>
<path d="M2.34375 10.5H13.6562C13.9324 10.5 14.1562 10.2761 14.1562 10C14.1562 9.72386 13.9324 9.5 13.6562 9.5H2.34375C2.06761 9.5 1.84375 9.72386 1.84375 10C1.84375 10.2761 2.06761 10.5 2.34375 10.5Z" fill="#949494"/>
<path fill-rule="evenodd" clip-rule="evenodd" d="M8 1.66248C8 1.66248 8.71391 1.66248 9.32446 2.26547C9.32446 2.26547 9.84281 2.7774 10.2274 3.6754C10.2274 3.6754 11 5.47944 11 7.99998C11 7.99998 11 10.5205 10.2274 12.3246C10.2274 12.3246 9.84281 13.2225 9.32446 13.7345C9.32446 13.7345 8.71391 14.3375 8 14.3375C8 14.3375 7.28609 14.3375 6.67554 13.7345C6.67554 13.7345 6.15719 13.2225 5.77261 12.3246C5.77261 12.3246 5 10.5205 5 7.99998C5 7.99998 5 5.47944 5.77261 3.6754C5.77261 3.6754 6.15719 2.7774 6.67554 2.26547C6.67554 2.26547 7.28609 1.66248 8 1.66248ZM8 2.66248C8 2.66248 7.69666 2.66248 7.37823 2.97696C7.37823 2.97696 6.9993 3.35121 6.69186 4.06908C6.69186 4.06908 6 5.68457 6 7.99998C6 7.99998 6 10.3154 6.69186 11.9309C6.69186 11.9309 6.9993 12.6487 7.37823 13.023C7.37823 13.023 7.69666 13.3375 8 13.3375C8 13.3375 8.30334 13.3375 8.62177 13.023C8.62177 13.023 9.0007 12.6487 9.30814 11.9309C9.30814 11.9309 10 10.3154 10 7.99998C10 7.99998 10 5.68457 9.30814 4.06908C9.30814 4.06908 9.0007 3.35121 8.62177 2.97696C8.62177 2.97696 8.30334 2.66248 8 2.66248Z" fill="#949494"/>
</svg>
