<svg width="40" height="40" viewBox="0 0 40 40" fill="none" xmlns="http://www.w3.org/2000/svg">
<g clip-path="url(#clip0_1270_35507)">
<path d="M40 0H0V40H40V0Z" fill="white"/>
<path d="M0 0V40H40V33.68H34.48L32.44 31.2936L30.32 33.68H14.64V20.9736H9.4664L15.9336 6.3336H22.2264L23.7464 9.6536V6.3336H31.56L32.8664 9.8136L34.1464 6.3336H40V0H0ZM35.48 8.4L33.4264 13.8136L32.88 15.2808L32.32 13.8136L30.2536 8.4H25.7336V19.0672H28.4536V12.1208L28.44 10.72L28.9736 12.1208L31.5736 19.0672H34.16L36.7736 12.1208L37.28 10.7336V19.0672H40V8.4H35.48ZM17.4 8.4L12.68 19.0672H15.7728L16.6 17.0136H21.7736L22.6 19.0672H25.7336L21.04 8.4H17.4ZM18.6528 12.0136L19.1864 10.6808L19.72 12.0136L20.8264 14.7064H17.5464L18.6528 12.0136ZM35.6936 20.9872L32.48 24.44L29.28 20.9872H25.7336H16.8264V31.6136H25.7336V29.3072H19.5464V27.4536H25.6136V25.1608H19.5464V23.2936H25.7336V20.9872L30.7064 26.32L25.7336 31.6136H29.1736L32.4136 28.1472L35.64 31.6136H39.1728L34.1864 26.28L39.1728 20.9872H35.6936ZM36.9864 26.2672L40 29.3336V23.24L36.9864 26.2672Z" fill="#006FCF"/>
</g>
<defs>
<clipPath id="clip0_1270_35507">
<rect width="40" height="40" fill="white"/>
</clipPath>
</defs>
</svg>
