<svg width="40" height="40" viewBox="0 0 40 40" fill="none" xmlns="http://www.w3.org/2000/svg">
<rect width="40" height="40" fill="url(#paint0_radial_1270_35514)"/>
<path fill-rule="evenodd" clip-rule="evenodd" d="M38.2687 25.6848C38.2687 25.6848 26.9445 25.9881 23.1506 26.2976L22.842 25.7172C22.111 26.4408 21.2581 27.0288 20.3229 27.4543C19.3875 27.8799 18.3847 28.136 17.3602 28.211C16.336 28.2861 15.3067 28.1789 14.3196 27.8941C13.3327 27.6096 12.4035 27.152 11.5755 26.5428C10.6946 28.9032 10.6946 30.5543 11.7684 30.9608C13.5112 31.6186 16.6878 28.7485 16.6878 28.7485C14.6107 31.8507 11.1897 33.7598 9.61416 32.7086C8.17377 31.7282 8.43747 28.826 10.103 25.2076C8.78419 23.6682 8.04115 21.716 8.00167 19.6867C7.962 17.6574 8.62862 15.6777 9.88661 14.0878C11.1444 12.498 12.9154 11.3972 14.8946 10.9748C16.8741 10.5523 18.9383 10.8346 20.7326 11.773C21.1457 11.4228 21.5659 11.0813 21.9929 10.7483C22.4202 10.4156 22.854 10.0917 23.2945 9.77691C23.7349 9.46213 24.182 9.15652 24.6351 8.86027C25.088 8.56402 25.5471 8.27714 26.0121 8C24.4173 9.36091 22.9061 10.7862 21.5107 12.2245C22.3723 12.7975 23.1251 13.5201 23.734 14.3579C24.343 15.1958 24.7983 16.1356 25.0787 17.1336C25.3591 18.1316 25.46 19.1716 25.3768 20.2051C25.2936 21.2386 25.0273 22.249 24.591 23.1889C30.7449 25.6655 38.2431 25.1497 38.2687 25.6848ZM9.04186 19.5061C9.04108 19.9239 9.07433 20.341 9.14142 20.7533C9.20851 21.1658 9.30905 21.5719 9.44226 21.9678C9.57547 22.3635 9.74076 22.7477 9.93658 23.1165C10.1324 23.4853 10.3578 23.8373 10.611 24.1693C11.2018 23.0697 11.8412 21.997 12.5276 20.9548C13.2139 19.9126 13.9464 18.9017 14.7229 17.925C15.4994 16.9485 16.3191 16.0073 17.1794 15.1041C18.0397 14.2011 18.94 13.3372 19.8774 12.5147C18.7104 11.9831 17.4293 11.7533 16.1509 11.8466C14.8725 11.94 13.6378 12.3532 12.5599 13.0487C11.482 13.7442 10.5952 14.6998 9.98053 15.8279C9.36603 16.9559 9.04322 18.2207 9.04186 19.5061ZM16.7006 27.1877C17.2243 27.1879 17.7466 27.1341 18.2592 27.027C18.7718 26.9199 19.272 26.7604 19.7521 26.5506C20.2323 26.3409 20.6894 26.0821 21.1167 25.7784C21.5439 25.4748 21.9389 25.128 22.2953 24.7432L19.9866 20.3962C20.2568 20.6404 20.5362 20.8739 20.8244 21.0962C21.1126 21.3185 21.4093 21.5295 21.7139 21.7287C22.0184 21.9278 22.3307 22.115 22.6498 22.2898C22.9689 22.4645 23.2947 22.6268 23.6264 22.7762C24.0212 21.9348 24.2604 21.0285 24.3323 20.1013C24.4043 19.1742 24.3078 18.2417 24.0476 17.3493C23.7874 16.4566 23.3678 15.619 22.8093 14.8769C22.2506 14.1346 21.5622 13.5004 20.7777 13.0048C16.5656 17.5067 13.4789 22.1117 11.9613 25.543C12.2958 25.8077 12.6519 26.0439 13.0256 26.2491C13.3994 26.4542 13.7897 26.6274 14.1924 26.7672C14.5951 26.9069 15.0088 27.0126 15.429 27.083C15.8492 27.1534 16.2745 27.1885 16.7006 27.1877Z" fill="white"/>
<defs>
<radialGradient id="paint0_radial_1270_35514" cx="0" cy="0" r="1" gradientUnits="userSpaceOnUse" gradientTransform="translate(28.5 11.5) rotate(90) scale(30 73.9365)">
<stop stop-color="#4EDBFF"/>
<stop offset="0.216847" stop-color="#50C7E5"/>
<stop offset="0.426632" stop-color="#3060AC"/>
<stop offset="0.675262" stop-color="#28469C"/>
<stop offset="0.889302" stop-color="#131A44"/>
</radialGradient>
</defs>
</svg>
