<svg width="40" height="40" viewBox="0 0 40 40" fill="none" xmlns="http://www.w3.org/2000/svg">
<rect width="40" height="40" fill="white"/>
<path d="M28.1136 27.3105L20.6261 21.0352L12.8677 27.3105H28.1136Z" fill="#FFC400"/>
<path fill-rule="evenodd" clip-rule="evenodd" d="M11.5477 27.3071H10.5944C8.85793 27.3071 7.5 26.0133 7.5 24.3027V15.4532C7.5 13.7275 8.56582 12.3008 11.3859 12.3008C14.1324 12.3042 15.26 13.7241 15.26 15.4498V18.5736H12.186V15.5625C12.186 15.1349 11.8398 14.7876 11.4121 14.7876C10.9847 14.7876 10.6663 15.1349 10.6663 15.5625V24.0377C10.6663 24.4662 10.9847 24.8134 11.4121 24.8134C11.8398 24.8134 12.186 24.4662 12.186 24.0377V21.0461H15.2643V23.2511C15.2643 23.7761 15.1669 24.3613 14.6006 24.8338L11.5477 27.3071ZM26.736 15.4558H24.6111V12.5913H32.3V15.4558H30.1648V27.2893H29.2539L26.736 25.1808V15.4558ZM25.4787 24.1292L20.6276 20.0631L15.9747 23.8201L18.473 12.6064H22.7621L25.4787 24.1292ZM21.4514 19.345L20.6268 15.1078L19.798 19.345H21.4514Z" fill="black"/>
</svg>
