<svg width="40" height="40" viewBox="0 0 40 40" fill="none" xmlns="http://www.w3.org/2000/svg">
<rect width="40" height="40" fill="white"/>
<path d="M17.2284 11.5046C19.4162 9.21445 23.0461 9.13144 25.3363 11.3191C25.7643 11.7279 26.1263 12.2005 26.4097 12.7202C27.3057 12.3196 28.2768 12.1144 29.2583 12.1183C33.1845 12.1183 36.3673 15.301 36.3673 19.2272C36.3673 23.1533 33.1846 26.336 29.2583 26.336C28.7927 26.3351 28.3282 26.2871 27.8723 26.1929C26.96 27.8195 25.2417 28.8282 23.3767 28.8317C22.5972 28.8351 21.8277 28.656 21.13 28.3082C19.8556 31.2962 16.4003 32.6853 13.4124 31.411C11.9271 30.7774 10.7677 29.5613 10.2058 28.0477C9.83655 28.1267 9.46007 28.1662 9.08243 28.1653C6.03357 28.1258 3.59388 25.6225 3.63328 22.5737C3.65814 20.6401 4.69298 18.8603 6.3612 17.8823C6.01215 17.0844 5.8344 16.2221 5.83968 15.3513C5.83367 11.8494 8.66757 9.00593 12.1693 9.00001C14.1514 8.99666 16.021 9.92041 17.2226 11.4968" fill="#139CD8"/>
<path d="M8.37524 20.8735C8.36133 20.8997 8.367 20.9319 8.38902 20.9518C8.45366 20.991 8.50663 21.0303 8.57131 21.0694C8.87302 21.2277 9.21105 21.3042 9.55156 21.2911C10.2182 21.2911 10.6357 20.9382 10.6357 20.3637V20.35C10.6357 19.8148 10.1652 19.6305 9.72025 19.4873L9.67119 19.4677C9.34372 19.3639 9.05759 19.2717 9.05759 19.0502V19.0365C9.05759 18.8541 9.22809 18.7091 9.48876 18.7091C9.78558 18.7129 10.0769 18.789 10.3378 18.9306C10.3649 18.9499 10.4024 18.9437 10.422 18.9169V18.9032C10.4358 18.864 10.5534 18.564 10.5534 18.5365C10.5614 18.5077 10.5515 18.4767 10.5279 18.4581C10.2355 18.2848 9.90134 18.1946 9.56134 18.1973H9.49666C8.88294 18.1973 8.4516 18.5639 8.4516 19.0992V19.1129C8.4516 19.6756 8.92213 19.8579 9.36724 19.9756L9.43189 20.001C9.75935 20.1049 10.0338 20.1833 10.0338 20.4068V20.4206C10.0338 20.6304 9.85142 20.7873 9.56332 20.7873C9.25757 20.7901 8.9578 20.7034 8.70064 20.5382C8.64767 20.5127 8.62222 20.4853 8.59681 20.4735C8.56968 20.4542 8.53204 20.4604 8.51242 20.4872V20.5009L8.37524 20.8735Z" fill="white"/>
<path d="M18.1756 20.8734C18.1616 20.8997 18.1673 20.9319 18.1893 20.9518C18.2541 20.991 18.3069 21.0302 18.3717 21.0694C18.6735 21.2277 19.0114 21.3042 19.3518 21.2911C20.0184 21.2911 20.4361 20.9382 20.4361 20.3637V20.35C20.4361 19.8148 19.9656 19.6305 19.5205 19.4873L19.4734 19.4677C19.146 19.3639 18.8598 19.2717 18.8598 19.0502V19.0365C18.8598 18.8541 19.0302 18.7091 19.2911 18.7091C19.5878 18.7129 19.8791 18.789 20.14 18.9306C20.1671 18.9498 20.2046 18.9437 20.2242 18.9169V18.9032C20.238 18.864 20.3557 18.564 20.3557 18.5365C20.3636 18.5077 20.3537 18.4767 20.3301 18.4581C20.0377 18.2848 19.7035 18.1947 19.3636 18.1973H19.2989C18.6852 18.1973 18.254 18.5639 18.254 19.0992V19.1129C18.254 19.6756 18.7244 19.8579 19.1695 19.9756L19.2342 20.001C19.5616 20.1049 19.8361 20.1833 19.8361 20.4068V20.4206C19.8361 20.6304 19.6538 20.7873 19.3656 20.7873C19.06 20.7901 18.7601 20.7034 18.5029 20.5382C18.4501 20.5127 18.4245 20.4853 18.3991 20.4735C18.3719 20.4542 18.3342 20.4604 18.3147 20.4872V20.5009L18.1756 20.8734Z" fill="white"/>
<path d="M25.448 19.1496C25.3972 18.9736 25.3126 18.8092 25.1991 18.6654C25.0789 18.5282 24.9321 18.4168 24.7678 18.338C24.3825 18.1816 23.9513 18.1816 23.566 18.338C23.4014 18.4167 23.2547 18.5282 23.1347 18.6654C23.0162 18.8059 22.9311 18.9715 22.8856 19.1496C22.7816 19.5434 22.7816 19.9576 22.8856 20.3514C22.9365 20.5274 23.021 20.6918 23.1347 20.8356C23.2547 20.9729 23.4015 21.0842 23.566 21.1631C23.9513 21.3195 24.3824 21.3195 24.7678 21.1631C24.935 21.0891 25.0828 20.9769 25.1991 20.8356C25.3176 20.6952 25.4027 20.5296 25.448 20.3514C25.5014 20.1553 25.5278 19.9527 25.5265 19.7495C25.5288 19.5462 25.5024 19.3436 25.448 19.1476M24.8854 19.7495C24.8988 20.0146 24.8354 20.2781 24.7031 20.5083C24.5826 20.6904 24.3713 20.7907 24.1541 20.7691C23.9384 20.7827 23.7308 20.6841 23.6052 20.5083C23.3612 20.0325 23.3612 19.4684 23.6052 18.9927C23.7255 18.8107 23.9369 18.7103 24.1541 18.7319C24.3698 18.7182 24.5774 18.8167 24.7031 18.9927C24.8371 19.2223 24.9005 19.4861 24.8854 19.7515" fill="white"/>
<path d="M30.0346 20.6912C30.0279 20.6632 30.0001 20.6459 29.972 20.652C29.8876 20.6858 29.8002 20.7121 29.7113 20.7304C29.6119 20.7459 29.5117 20.7545 29.4112 20.7558C29.1742 20.7695 28.9421 20.6843 28.7702 20.5207C28.594 20.3045 28.5096 20.0279 28.5349 19.7502C28.5249 19.4903 28.5984 19.234 28.7446 19.0189C28.8941 18.8273 29.1299 18.7241 29.372 18.7443C29.5709 18.7412 29.7691 18.7676 29.9602 18.8228C29.9886 18.8281 30.0164 18.8112 30.0249 18.7836C30.0778 18.6522 30.117 18.5483 30.168 18.4053C30.1757 18.3777 30.16 18.349 30.1326 18.3405C30.0099 18.2977 29.8832 18.2668 29.7544 18.2484C29.6158 18.232 29.4762 18.2235 29.3368 18.2229C29.1218 18.2191 28.9083 18.2592 28.7094 18.3405C28.5348 18.4145 28.3786 18.5263 28.2526 18.6679C28.1309 18.8103 28.0376 18.9747 27.9781 19.1521C27.9136 19.3462 27.8825 19.5497 27.8859 19.7541C27.8679 20.1569 27.9983 20.5526 28.2526 20.8658C28.5443 21.1607 28.9504 21.3133 29.3642 21.2832C29.6368 21.2865 29.9076 21.2378 30.1622 21.1401C30.1833 21.1261 30.1935 21.1002 30.1876 21.0754L30.0346 20.6912Z" fill="white"/>
<path d="M32.8974 19.0446C32.8479 18.8798 32.763 18.7279 32.6483 18.5995C32.549 18.4809 32.4235 18.3869 32.2817 18.3251C32.1074 18.2544 31.9209 18.219 31.7328 18.2211C31.5177 18.216 31.304 18.2561 31.1054 18.3387C30.9389 18.4142 30.7914 18.5261 30.674 18.6662C30.5568 18.8137 30.4683 18.9819 30.4133 19.1622C30.3597 19.3583 30.3334 19.5608 30.3349 19.7641C30.3305 19.9685 30.3616 20.1722 30.427 20.366C30.4761 20.5481 30.5705 20.7146 30.7015 20.8503C30.8367 20.984 30.9966 21.0905 31.172 21.164C31.3924 21.2488 31.6286 21.2843 31.8642 21.2678C32.1927 21.2874 32.5207 21.2248 32.8189 21.0855C32.8443 21.0717 32.8582 21.0601 32.8326 20.9934L32.7013 20.6405C32.6956 20.6174 32.6722 20.6032 32.649 20.6089C32.6489 20.6089 32.6486 20.6091 32.6483 20.6092H32.6346C32.3874 20.7156 32.1192 20.7645 31.8504 20.7523C31.6128 20.7621 31.38 20.6831 31.1976 20.5308C31.045 20.3583 30.9656 20.1334 30.976 19.9033H32.8718C32.9 19.9045 32.9236 19.8825 32.9248 19.8544V19.8543C32.964 19.8406 33.0286 19.4623 32.8994 19.0447M31.0172 19.4367C31.0348 19.2782 31.0885 19.126 31.174 18.9916C31.2887 18.809 31.494 18.7036 31.7092 18.7172C31.9234 18.7086 32.1265 18.8127 32.2445 18.9916C32.3248 19.1266 32.3699 19.2796 32.3758 19.4367H31.0172Z" fill="white"/>
<path d="M17.725 19.0446C17.6756 18.8798 17.5904 18.7279 17.4759 18.5995C17.3766 18.4809 17.2512 18.3869 17.1094 18.325C16.935 18.2544 16.7483 18.219 16.5604 18.2211C16.3453 18.2161 16.1316 18.2562 15.933 18.3387C15.7665 18.4142 15.6191 18.5261 15.5017 18.6662C15.3845 18.8137 15.2959 18.982 15.2409 19.1622C15.1874 19.3583 15.1611 19.5608 15.1625 19.7641C15.1581 19.9685 15.1892 20.1722 15.2546 20.366C15.3036 20.5481 15.3979 20.7147 15.5291 20.8503C15.6643 20.984 15.8242 21.0905 15.9996 21.164C16.22 21.2488 16.4562 21.2843 16.6917 21.2678C17.0201 21.2874 17.3483 21.2248 17.6466 21.0855C17.672 21.0717 17.6858 21.0601 17.6602 20.9934L17.5131 20.6444C17.5075 20.6213 17.4842 20.6072 17.461 20.6129C17.4607 20.6129 17.4604 20.6129 17.4603 20.6131H17.4465C17.1993 20.7195 16.9312 20.7684 16.6622 20.7561C16.4246 20.7661 16.192 20.6871 16.0094 20.5346C15.8569 20.3622 15.7774 20.1373 15.7879 19.9073H17.6837C17.7118 19.9084 17.7356 19.8865 17.7366 19.8583C17.7758 19.8446 17.8405 19.4662 17.7111 19.0486M15.829 19.4406C15.8468 19.2822 15.9004 19.13 15.9859 18.9955C16.1005 18.8129 16.306 18.7075 16.5212 18.7211C16.7353 18.7125 16.9384 18.8166 17.0564 18.9955C17.1368 19.1305 17.182 19.2836 17.1879 19.4406H15.829Z" fill="white"/>
<path d="M12.4979 19.345C12.4195 19.345 12.3273 19.3312 12.198 19.3312C12.039 19.3334 11.881 19.3552 11.7275 19.3959C11.5868 19.4326 11.4539 19.4944 11.3353 19.5782C11.2177 19.6568 11.123 19.7649 11.0609 19.8919C10.9928 20.0255 10.9571 20.1734 10.9569 20.3232C10.9504 20.4725 10.9822 20.621 11.049 20.7546C11.1054 20.8739 11.1912 20.9771 11.2981 21.0545C11.416 21.1369 11.5494 21.1949 11.6901 21.225C11.8525 21.264 12.0193 21.2818 12.1862 21.278C12.379 21.2804 12.5715 21.2627 12.7606 21.225C12.9429 21.1996 13.1782 21.1466 13.245 21.1329C13.2897 21.1234 13.3336 21.1104 13.3762 21.0937C13.4042 21.0869 13.4216 21.059 13.4155 21.0309V19.294C13.4419 18.9846 13.3323 18.679 13.1156 18.4569C12.8638 18.2685 12.553 18.176 12.2391 18.1961C12.0678 18.1943 11.8967 18.212 11.7294 18.249C11.5229 18.2853 11.3241 18.3561 11.1413 18.4588C11.117 18.4774 11.1111 18.5114 11.1276 18.5373L11.259 18.9039C11.2647 18.927 11.2879 18.9411 11.3111 18.9354C11.3114 18.9354 11.3116 18.9353 11.3118 18.9352H11.3256C11.3354 18.934 11.3445 18.929 11.3511 18.9215C11.6065 18.7989 11.8852 18.732 12.1687 18.7255C12.3339 18.714 12.4987 18.7552 12.6391 18.8432C12.7431 18.9216 12.7959 19.0392 12.7959 19.3V19.3784L12.496 19.3529M11.7509 20.686C11.708 20.6549 11.6726 20.6147 11.6471 20.5684C11.5299 20.3654 11.5735 20.1078 11.7509 19.9547C11.9119 19.8455 12.1071 19.7987 12.2999 19.8233C12.4705 19.8238 12.6409 19.837 12.8096 19.8625V20.7252C12.6416 20.7596 12.4712 20.7812 12.2999 20.7899C12.1105 20.8184 11.9168 20.7817 11.7509 20.686Z" fill="white"/>
<path d="M27.7883 18.3646C27.7997 18.3413 27.79 18.3133 27.7668 18.3019C27.6652 18.2699 27.5596 18.2521 27.453 18.249C27.2876 18.2322 27.1205 18.2592 26.9688 18.3274C26.8469 18.3796 26.7394 18.4602 26.6552 18.5627V18.3274C26.6533 18.299 26.6306 18.2764 26.6021 18.2744H26.0924C26.064 18.2764 26.0414 18.299 26.0396 18.3274V21.1623C26.0414 21.1907 26.064 21.2133 26.0924 21.2153H26.5885C26.6169 21.2133 26.6395 21.1907 26.6414 21.1623V19.7507C26.6384 19.5831 26.6603 19.416 26.7062 19.2547C26.7362 19.1491 26.7954 19.054 26.8766 18.9802C26.9415 18.9132 27.0225 18.864 27.1119 18.8371C27.1929 18.8132 27.2765 18.8001 27.361 18.798C27.4316 18.7988 27.5019 18.8074 27.5707 18.8234C27.6025 18.8269 27.6313 18.8042 27.6354 18.7724C27.6746 18.6803 27.7668 18.4196 27.7923 18.3666" fill="white"/>
<path d="M23.1078 17.0596L22.9255 17.0203C22.8395 17.0041 22.7523 16.9955 22.6648 16.9949C22.37 16.9738 22.08 17.0785 21.8668 17.2831C21.6596 17.5278 21.528 17.8275 21.4885 18.1457L21.4631 18.2771H21.0317C21.0006 18.2781 20.974 18.2997 20.9669 18.33L20.9023 18.7221C20.8975 18.7523 20.9173 18.7808 20.9473 18.7868H21.3864L20.9551 21.1511C20.9317 21.3115 20.8922 21.4691 20.8375 21.6217C20.8096 21.72 20.7653 21.8129 20.7062 21.8962C20.6654 21.9575 20.6054 22.0039 20.5356 22.0275C20.464 22.0497 20.3888 22.0582 20.3141 22.0531C20.2749 22.0531 20.2102 22.0394 20.1572 22.0394C20.1207 22.0321 20.0857 22.0187 20.0534 22.0002C20.0286 21.9923 20.0014 22.0028 19.9886 22.0257C19.975 22.0649 19.8574 22.3786 19.8455 22.404C19.8312 22.4327 19.8426 22.4676 19.871 22.4824C19.9267 22.5039 19.9837 22.5215 20.0416 22.5354C20.1316 22.5557 20.2239 22.5642 20.3161 22.5608C20.4764 22.5638 20.636 22.5372 20.7867 22.4824C20.9225 22.4287 21.0434 22.3435 21.1396 22.2334C21.2477 22.111 21.3322 21.9692 21.3885 21.8158C21.4612 21.6067 21.5183 21.3924 21.5591 21.1748L21.9905 18.7574H22.6099C22.641 18.7565 22.6676 18.7348 22.6747 18.7045L22.7393 18.3124C22.7442 18.2822 22.7243 18.2536 22.6943 18.2477H22.0727C22.0906 18.1003 22.1255 17.9557 22.1767 17.8164C22.2028 17.7408 22.2481 17.6733 22.3081 17.6203C22.3539 17.5769 22.407 17.5417 22.4649 17.5165C22.5338 17.5007 22.6041 17.4921 22.6747 17.491C22.7276 17.491 22.7924 17.5046 22.8315 17.5046C22.8635 17.5074 22.8948 17.5161 22.9236 17.5301C22.9884 17.5438 22.9884 17.5301 23.002 17.5046L23.1453 17.1125C23.1589 17.0871 23.1197 17.0734 23.106 17.0597" fill="white"/>
<path d="M14.6472 21.1619C14.6454 21.1904 14.6227 21.213 14.5943 21.215H14.0982C14.0698 21.213 14.0472 21.1904 14.0454 21.1619V17.1154C14.0472 17.0871 14.0698 17.0644 14.0982 17.0625H14.5826C14.611 17.0644 14.6335 17.0871 14.6354 17.1154V21.1658L14.6472 21.1619Z" fill="white"/>
</svg>
