<svg width="40" height="40" viewBox="0 0 40 40" fill="none" xmlns="http://www.w3.org/2000/svg">
<rect width="40" height="40" fill="#15274F"/>
<path d="M14.4539 22.7754H13.0508V28.3359H14.4539V22.7754Z" fill="white"/>
<path d="M25.7673 24.3678C25.7109 24.3385 25.2598 24.0709 24.5886 24.0709C23.6798 24.0709 23.0509 24.7025 23.0509 25.554C23.0509 26.3802 23.6535 27.0385 24.5886 27.0385C25.2482 27.0385 25.7069 26.7767 25.7673 26.7434V28.2358C25.5931 28.2851 25.1144 28.4336 24.4878 28.4336C22.9104 28.4336 21.5269 27.3456 21.5269 25.554C21.5269 23.8936 22.7802 22.6758 24.4878 22.6758C25.1482 22.6758 25.6353 22.8362 25.7673 22.8753V24.3678Z" fill="white"/>
<path d="M11.1218 24.3678C11.0654 24.3385 10.6143 24.0709 9.94314 24.0709C9.03425 24.0709 8.40535 24.7025 8.40535 25.554C8.40535 26.3802 9.00802 27.0385 9.94314 27.0385C10.6027 27.0385 11.0614 26.7767 11.1218 26.7434V28.2358C10.9476 28.2851 10.4689 28.4336 9.84225 28.4336C8.26491 28.4336 6.88135 27.3456 6.88135 25.554C6.88135 23.8936 8.13469 22.6758 9.84225 22.6758C10.5027 22.6758 10.9898 22.8362 11.1218 22.8753V24.3678Z" fill="white"/>
<path d="M30.1816 24.0918C29.3491 24.0918 28.7309 24.7469 28.7309 25.554C28.7309 26.3629 29.3491 27.0176 30.1816 27.0176C31.0131 27.0176 31.6331 26.3629 31.6331 25.554C31.6331 24.7469 31.0131 24.0918 30.1816 24.0918ZM33.1198 25.554C33.1198 27.1447 31.8918 28.4336 30.1816 28.4336C28.4713 28.4336 27.2451 27.1447 27.2451 25.554C27.2451 23.966 28.4713 22.6758 30.1816 22.6758C31.8918 22.6758 33.1198 23.966 33.1198 25.554Z" fill="white"/>
<path d="M19.775 24.0398C19.7541 24.0331 19.1635 23.87 18.6781 23.87C18.1159 23.87 17.8101 24.0585 17.8101 24.3256C17.8101 24.6642 18.2226 24.7825 18.4532 24.8553L18.8403 24.9785C19.751 25.2682 20.1661 25.8918 20.1661 26.5691C20.1661 27.966 18.9377 28.4354 17.8639 28.4354C17.1177 28.4354 16.4186 28.298 16.3497 28.2834V27.0038C16.4732 27.0349 17.0617 27.2105 17.6746 27.2105C18.3728 27.2105 18.6937 27.0065 18.6937 26.6914C18.6937 26.4096 18.4159 26.2469 18.0679 26.1376C17.983 26.1091 17.8555 26.0691 17.7683 26.0407C16.987 25.7936 16.3354 25.3345 16.3354 24.414C16.3354 23.374 17.1141 22.6758 18.4075 22.6758C19.0906 22.6758 19.7332 22.8416 19.775 22.8527V24.0398Z" fill="white"/>
<path d="M5.39334 16.7992C5.39334 16.4161 5.08045 16.1055 4.69689 16.1055C4.31333 16.1055 4 16.4161 4 16.7992V18.2588C4 18.6441 4.31333 18.9553 4.69689 18.9553C5.08045 18.9553 5.39334 18.6441 5.39334 18.2588V16.7992Z" fill="white"/>
<path d="M9.21951 14.8841C9.21951 14.501 8.90662 14.1895 8.52306 14.1895C8.13906 14.1895 7.82617 14.501 7.82617 14.8841V18.2597C7.82617 18.645 8.13906 18.9557 8.52306 18.9557C8.90662 18.9557 9.21951 18.645 9.21951 18.2597V14.8841Z" fill="white"/>
<path d="M13.0462 12.2626C13.0462 11.8795 12.7333 11.5684 12.3497 11.5684C11.9657 11.5684 11.6528 11.8795 11.6528 12.2626V19.6462C11.6528 20.0315 11.9657 20.3426 12.3497 20.3426C12.7333 20.3426 13.0462 20.0315 13.0462 19.6462V12.2626Z" fill="white"/>
<path d="M16.8723 14.8841C16.8723 14.501 16.5595 14.1895 16.1759 14.1895C15.7919 14.1895 15.479 14.501 15.479 14.8841V18.2597C15.479 18.645 15.7919 18.9557 16.1759 18.9557C16.5595 18.9557 16.8723 18.645 16.8723 18.2597V14.8841Z" fill="white"/>
<path d="M20.6946 16.7992C20.6946 16.4161 20.3839 16.1055 20.0021 16.1055C19.6186 16.1055 19.3057 16.4161 19.3057 16.7992V18.2588C19.3057 18.6441 19.6186 18.9553 20.0021 18.9553C20.3839 18.9553 20.6946 18.6441 20.6946 18.2588V16.7992Z" fill="white"/>
<path d="M20.6966 16.7992C20.6966 16.4161 20.3837 16.1055 20.0001 16.1055C19.6166 16.1055 19.3032 16.4161 19.3032 16.7992V18.2588C19.3032 18.6441 19.6166 18.9553 20.0001 18.9553C20.3837 18.9553 20.6966 18.6441 20.6966 18.2588V16.7992Z" fill="white"/>
<path d="M24.5227 14.8841C24.5227 14.501 24.2098 14.1895 23.8263 14.1895C23.4423 14.1895 23.1294 14.501 23.1294 14.8841V18.2597C23.1294 18.645 23.4423 18.9557 23.8263 18.9557C24.2098 18.9557 24.5227 18.645 24.5227 18.2597V14.8841Z" fill="white"/>
<path d="M28.3494 12.2626C28.3494 11.8795 28.0365 11.5684 27.6529 11.5684C27.2689 11.5684 26.9561 11.8795 26.9561 12.2626V19.6462C26.9561 20.0315 27.2689 20.3426 27.6529 20.3426C28.0365 20.3426 28.3494 20.0315 28.3494 19.6462V12.2626Z" fill="white"/>
<path d="M32.1756 14.8841C32.1756 14.501 31.8627 14.1895 31.4791 14.1895C31.0951 14.1895 30.7822 14.501 30.7822 14.8841V18.2597C30.7822 18.645 31.0951 18.9557 31.4791 18.9557C31.8627 18.9557 32.1756 18.645 32.1756 18.2597V14.8841Z" fill="white"/>
<path d="M35.9978 16.7992C35.9978 16.4161 35.6871 16.1055 35.3053 16.1055C34.9218 16.1055 34.6089 16.4161 34.6089 16.7992V18.2588C34.6089 18.6441 34.9218 18.9553 35.3053 18.9553C35.6871 18.9553 35.9978 18.6441 35.9978 18.2588V16.7992Z" fill="white"/>
<path d="M35.1973 27.6035V27.6906H34.9493V28.3355H34.8475V27.6906H34.5981V27.6035H35.1973Z" fill="white"/>
<path d="M35.2495 27.6035H35.4091L35.6282 28.204H35.6317L35.8437 27.6035H36.0002V28.3355H35.8957V27.7355H35.8922L35.67 28.3355H35.5735L35.3566 27.7355H35.3517V28.3355H35.2495V27.6035Z" fill="white"/>
</svg>
