<svg width="40" height="40" viewBox="0 0 40 40" fill="none" xmlns="http://www.w3.org/2000/svg">
<rect width="40" height="40" fill="white"/>
<path d="M11.6585 11.4628C11.481 11.5494 11.1225 11.6561 10.5909 11.6561C9.11876 11.6561 8.27393 10.6436 8.27393 9.35174C8.27393 7.81382 9.35043 7 10.6887 7C11.2075 7 11.4816 7.09929 11.6582 7.19311L11.4947 8.11284C11.2981 8.02578 11.0894 7.94649 10.7291 7.94649C10.0918 7.94649 9.41576 8.32552 9.41576 9.33476C9.41576 10.2376 9.95481 10.7151 10.7344 10.7151C11.0433 10.7151 11.2528 10.6545 11.4947 10.5435L11.6585 11.4628Z" fill="#0056A2"/>
<path d="M14.103 8.14005C13.7065 8.14005 13.3227 8.31985 13.1273 8.60866H13.1153V7.01562L12.1177 7.36098V11.5171H13.1153V9.57573C13.1153 9.29541 13.2975 8.99387 13.647 8.99387C14.021 8.99387 14.165 9.28822 14.165 9.71639V11.5172H15.1634V9.57868C15.1634 8.58909 14.739 8.14005 14.103 8.14005Z" fill="#0056A2"/>
<path d="M16.6683 10.2074C16.705 10.6284 17.0542 10.8521 17.5938 10.8569C17.9189 10.8594 18.2969 10.7649 18.5487 10.6165L18.6993 11.3929C18.3202 11.5833 17.8872 11.657 17.4465 11.657C16.259 11.657 15.6226 10.9429 15.6226 9.84874C15.6226 8.79037 16.3069 8.10742 17.3325 8.10742C18.3894 8.10742 18.8632 8.88563 18.8632 9.86068C18.8632 9.96343 18.8506 10.1308 18.8392 10.2074H16.6683ZM17.8669 9.49748C17.8669 9.253 17.7476 8.82548 17.2857 8.82548C16.8808 8.82548 16.6899 9.17407 16.6615 9.49748H17.8669Z" fill="#0056A2"/>
<path d="M20.0359 11.5184L18.9336 8.24609H20.0342L20.633 10.5608H20.6532L21.2521 8.24609H22.3531L21.2509 11.5184H20.0359Z" fill="#0056A2"/>
<path d="M22.6357 9.32186C22.6357 8.84045 22.6206 8.52639 22.6001 8.24564H23.5399L23.5684 8.8539H23.5936C23.7581 8.37249 24.0738 8.18959 24.3984 8.17117C24.5527 8.16218 24.6363 8.17311 24.7318 8.19161V9.14839C24.6404 9.13047 24.4589 9.10939 24.3313 9.12112C23.9474 9.15645 23.7151 9.43568 23.6499 9.75715C23.6368 9.82378 23.6301 9.89774 23.6301 9.9843V11.5179H22.6361V9.32186H22.6357Z" fill="#0056A2"/>
<path d="M28.2377 9.88032C28.2377 10.9528 27.5916 11.6551 26.5445 11.6551C25.4972 11.6551 24.8506 10.9528 24.8506 9.88032C24.8506 8.8077 25.4972 8.10547 26.5445 8.10547C27.5916 8.10547 28.2377 8.80777 28.2377 9.88032ZM27.2035 9.88032C27.2035 9.34782 27.0204 8.88432 26.5445 8.88432C26.0679 8.88432 25.8858 9.34775 25.8858 9.88032C25.8858 10.4133 26.0679 10.8761 26.5445 10.8761C27.0206 10.8761 27.2035 10.4133 27.2035 9.88032Z" fill="#0056A2"/>
<path d="M28.6816 9.28872C28.6816 8.88034 28.6666 8.53167 28.6455 8.24546H29.5853L29.6068 8.70327H29.627C29.7571 8.49037 30.1015 8.14062 30.6389 8.14062C31.2966 8.14062 31.7259 8.58966 31.7259 9.55292V11.5178H30.7292V9.70329C30.7292 9.28225 30.5848 8.99438 30.2241 8.99438C29.9475 8.99438 29.7758 9.18886 29.712 9.37528C29.6884 9.44356 29.6788 9.5363 29.6788 9.62998V11.5177H28.6816V9.28872Z" fill="#0056A2"/>
<path d="M8.30957 20.193V12.3887L20.019 16.2911L8.30957 20.193Z" fill="url(#paint0_linear_1270_35555)"/>
<path d="M8.3125 20.1927L20.019 24.0946L31.7249 20.1927V12.3887L20.019 16.2901L8.3125 20.1927Z" fill="url(#paint1_linear_1270_35555)"/>
<path d="M8.31009 29.2639L8.30908 21.457L20.0178 25.3592L8.31009 29.2639Z" fill="url(#paint2_linear_1270_35555)"/>
<path d="M31.7254 21.457L20.0157 25.358L8.31152 29.2625L20.0179 33.1654L31.7254 29.2612V21.457Z" fill="url(#paint3_linear_1270_35555)"/>
<defs>
<linearGradient id="paint0_linear_1270_35555" x1="20.019" y1="16.2908" x2="12.8157" y2="5.48315" gradientUnits="userSpaceOnUse">
<stop stop-color="#06549B"/>
<stop offset="0.55" stop-color="#2FA1D3"/>
<stop offset="0.9" stop-color="#2FA1D3"/>
</linearGradient>
<linearGradient id="paint1_linear_1270_35555" x1="8.3125" y1="19.4122" x2="16.2834" y2="-2.10973" gradientUnits="userSpaceOnUse">
<stop stop-color="#1371B1"/>
<stop offset="0.05" stop-color="#2FA1D3"/>
<stop offset="0.45" stop-color="#2FA1D3"/>
<stop offset="0.6" stop-color="#06569C"/>
</linearGradient>
<linearGradient id="paint2_linear_1270_35555" x1="20.0178" y1="25.3605" x2="11.219" y2="17.4427" gradientUnits="userSpaceOnUse">
<stop stop-color="#9D1A36"/>
<stop offset="0.4" stop-color="#9D1A36"/>
<stop offset="0.6" stop-color="#E6192F"/>
</linearGradient>
<linearGradient id="paint3_linear_1270_35555" x1="8.31152" y1="28.4821" x2="16.285" y2="6.95635" gradientUnits="userSpaceOnUse">
<stop stop-color="#A21C38"/>
<stop offset="0.13" stop-color="#E6192F"/>
<stop offset="0.45" stop-color="#E6192F"/>
<stop offset="0.6" stop-color="#A71C37"/>
</linearGradient>
</defs>
</svg>
