<svg width="40" height="40" viewBox="0 0 40 40" fill="none" xmlns="http://www.w3.org/2000/svg">
<rect width="40" height="40" fill="#1300BC"/>
<path d="M17.7582 17.4923C17.7582 17.4923 17.8507 17.3536 17.9284 17.248C18.07 17.056 18.3259 16.7898 18.5183 16.6249C18.5777 16.5747 18.6468 16.5173 18.6468 16.5173C18.6468 16.5173 18.538 16.5287 18.4766 16.5413C18.3305 16.5699 18.116 16.7124 18.0087 16.8044C17.832 16.9554 17.6378 17.2015 17.7253 17.4197C17.7384 17.4511 17.7582 17.4923 17.7582 17.4923ZM18.7408 17.7552C19.0201 17.7365 19.2819 17.6555 19.5252 17.5209C19.7641 17.3874 20.1151 17.1269 20.0793 16.8201C20.0677 16.7213 20.0032 16.6463 19.9211 16.6111C19.8142 16.5647 19.7588 16.573 19.6225 16.6129C19.5239 16.6421 19.4796 16.6596 19.3864 16.713C19.112 16.8723 18.7238 17.2128 18.5129 17.4849C18.464 17.5486 18.4147 17.6204 18.3765 17.6693C18.3516 17.6991 18.3331 17.7273 18.3353 17.7349C18.3436 17.7661 18.6315 17.7631 18.7408 17.7552ZM18.0294 18.2777C18.0008 18.3076 17.9705 18.3818 17.9386 18.4352C17.9218 18.4636 17.8904 18.5003 17.8699 18.5147C17.7973 18.5681 17.736 18.5705 17.6653 18.5088C17.5671 18.4224 17.5104 18.2873 17.5062 18.1564C17.5041 18.099 17.5134 18.0364 17.5032 17.9876C17.4851 17.9064 17.4035 17.8231 17.3599 17.7452C17.3084 17.6529 17.2667 17.4934 17.2617 17.3904C17.2436 17.0689 17.4133 16.773 17.6336 16.5391C17.8553 16.3029 18.1453 16.1065 18.4609 15.9732C18.759 15.8471 19.1962 15.7616 19.5236 15.8753C19.6299 15.9119 19.7787 16.0027 19.8533 16.0971C19.869 16.1172 19.8821 16.139 19.8984 16.1493C19.9126 16.1584 19.9508 16.1622 19.9811 16.1676C20.0859 16.1857 20.2364 16.2647 20.2977 16.3173C20.4205 16.424 20.4886 16.5258 20.5198 16.6735C20.5826 16.9705 20.4116 17.2966 20.2168 17.4947C19.8827 17.8366 19.5531 18.0764 19.1259 18.2439C18.9387 18.3172 18.6466 18.3855 18.4337 18.3663C18.3678 18.3608 18.2995 18.3436 18.2354 18.3388C18.2028 18.336 18.0826 18.3056 18.07 18.2961C18.0541 18.2845 18.0338 18.2736 18.0294 18.2777ZM18.411 18.9366C18.4239 18.939 18.4441 18.9449 18.4614 18.951C18.611 19.0081 18.6726 19.1469 18.7094 19.2987C18.795 19.6522 18.8316 20.4334 18.8456 20.74C18.856 20.969 18.8617 21.1957 18.8713 21.4224C18.8794 21.6146 18.8947 21.8703 18.8549 22.0507C18.8403 22.1155 18.7971 22.1901 18.735 22.2292C18.6636 22.2746 18.502 22.278 18.4132 22.2597C18.1939 22.2143 18.1226 22.0734 18.0916 21.8568C18.0172 21.3395 18.0527 20.3244 18.0968 19.8959C18.111 19.7552 18.1647 19.3018 18.2386 19.112C18.2635 19.0474 18.3174 18.9183 18.411 18.9366ZM11.6583 19.7128C11.6583 19.7128 11.3336 19.7357 11.1107 19.7606C10.8264 19.7909 10.2925 19.8832 9.98492 19.9938C9.8922 20.0261 9.70435 20.1049 9.68799 20.1996C9.67141 20.2986 9.73206 20.3752 9.80035 20.4553C9.83962 20.5013 10.0621 20.7153 10.1243 20.7675C10.3859 20.9854 10.9161 21.3225 11.3072 21.4861C11.4407 21.5417 11.6628 21.6211 11.6628 21.6211C11.6628 21.6211 11.6463 20.9891 11.6495 20.3667C11.6508 20.0377 11.6583 19.7128 11.6583 19.7128ZM17.6057 19.9644C17.6245 20.1341 17.5804 20.4553 17.5732 20.4976C17.5593 20.5951 17.4855 20.82 17.4737 20.8477C17.4142 20.9841 17.3559 21.0969 17.2935 21.2084C17.1871 21.3999 16.9344 21.7034 16.7839 21.8332C16.2258 22.3158 15.3614 22.5907 14.6197 22.6812C14.1168 22.7421 13.5386 22.7327 13.0052 22.6343C12.822 22.6005 12.5493 22.5381 12.5493 22.5381C12.5493 22.5381 12.5499 22.6472 12.541 22.7242C12.5368 22.7587 12.5102 22.8512 12.4956 22.8811C12.4565 22.9611 12.3931 23.0024 12.3008 23.0198C12.1891 23.0412 12.0706 23.0475 11.9672 23.0039C11.7979 22.9321 11.7368 22.7733 11.7076 22.5913C11.6836 22.4447 11.6585 22.1901 11.6585 22.1901C11.6585 22.1901 11.5319 22.1303 11.4261 22.0775C11.1015 21.9174 10.7928 21.7241 10.5234 21.5243C10.4487 21.4691 10.1276 21.1999 10.0565 21.1327C9.85773 20.9448 9.67905 20.7568 9.54291 20.5159C9.4371 20.3278 9.40677 20.1605 9.48706 19.9613C9.59833 19.6836 9.99648 19.4739 10.2692 19.3546C10.4697 19.2662 11.0917 19.0631 11.3504 19.0256C11.4724 19.0081 11.6618 18.9746 11.6733 18.9667C11.6781 18.9632 11.6816 18.9602 11.6849 18.956C11.6908 18.9475 11.7008 18.6722 11.6988 18.5718C11.6967 18.4728 11.7721 17.8233 11.7964 17.6861C11.8095 17.6112 11.8657 17.3252 11.9233 17.2504C11.9606 17.1998 12.0272 17.2032 12.0813 17.2371C12.3778 17.421 12.4677 18.0606 12.4897 18.3862C12.503 18.5842 12.5095 18.8825 12.5095 18.8825C12.5095 18.8825 12.8497 18.8727 13.0591 18.8781C13.2622 18.8831 13.4863 18.9154 13.6975 18.949C13.9678 18.9918 14.4944 19.1068 14.7964 19.2601C15.0453 19.386 15.2779 19.5987 15.3531 19.8237C15.4234 20.0298 15.4127 20.1721 15.306 20.3582C15.1862 20.5685 14.9591 20.7243 14.729 20.7371C14.6602 20.7417 14.4026 20.7072 14.3234 20.6459C14.292 20.6211 14.2937 20.577 14.3164 20.5471C14.3249 20.5362 14.4451 20.4731 14.5165 20.4352C14.552 20.4158 14.5817 20.395 14.6092 20.3697C14.6685 20.3172 14.7215 20.26 14.7157 20.1932C14.7074 20.106 14.6155 20.0521 14.5274 20.0176C14.115 19.854 13.2917 19.7176 12.8933 19.6941C12.7375 19.6849 12.5163 19.6771 12.5163 19.6771L12.563 21.8744C12.563 21.8744 12.7463 21.9096 12.8905 21.9331C12.9736 21.9453 13.3244 21.977 13.4176 21.9794C14.1277 21.9981 14.9203 21.9349 15.572 21.6266C15.858 21.492 16.1204 21.3247 16.319 21.098C16.5812 20.7971 16.7184 20.3865 16.682 19.9576C16.6421 19.4881 16.312 18.9322 16.0489 18.5934C15.3527 17.6978 14.1596 16.962 13.1102 16.5304C12.0383 16.0899 10.9793 15.836 9.84158 15.7937C9.54858 15.7832 8.90892 15.798 8.58625 15.8875C8.53956 15.9004 8.49331 15.9161 8.45033 15.9252C8.41629 15.9335 8.3635 15.956 8.34866 15.9676C8.34081 15.9747 8.3323 15.9833 8.3323 15.9833C8.3323 15.9833 8.35237 15.9942 8.37135 16.0027C8.4056 16.0177 8.54981 16.0262 8.62442 16.0398C8.69075 16.0524 8.76078 16.088 8.78783 16.1371C8.81401 16.1833 8.81772 16.2198 8.78609 16.2584C8.71278 16.348 8.43702 16.3323 8.31594 16.3136C8.18984 16.2931 8.03297 16.2549 8.00396 16.1449C7.9708 16.0155 8.03166 15.8888 8.0982 15.7714C8.23172 15.5369 8.4224 15.4147 8.70253 15.3386C9.09959 15.2295 9.60116 15.1529 9.97641 15.1385C10.8257 15.1069 11.6292 15.2548 12.4517 15.505C12.9225 15.6471 13.5395 15.886 13.9905 16.1035C14.3138 16.2592 14.8243 16.5468 15.111 16.7346C15.2013 16.7942 15.7304 17.1827 15.8124 17.251C15.9839 17.3911 16.2084 17.5925 16.3702 17.7537C16.6844 18.065 17.0751 18.5419 17.2654 18.9202C17.3105 19.0114 17.3463 19.1007 17.4048 19.2056C17.4251 19.2414 17.5121 19.4569 17.5265 19.5193C17.5407 19.5808 17.5617 19.6714 17.5647 19.6747C17.5691 19.708 17.6088 19.8926 17.6057 19.9644ZM21.2644 20.1241C21.2803 20.1256 21.2842 20.1263 21.2989 20.1284C21.5589 20.1638 21.8137 20.2105 22.0086 20.2977C22.1894 20.378 22.2959 20.4788 22.3925 20.6592C22.5398 20.9326 22.5496 21.3151 22.4165 21.6048C22.3168 21.8201 22.0987 22.001 21.8997 22.097C21.6922 22.1973 21.4891 22.2449 21.2552 22.2715C20.8473 22.3162 20.4052 22.232 20.0374 22.054C19.8199 21.9477 19.5542 21.7649 19.42 21.5291C19.3214 21.3558 19.3244 21.1314 19.4447 20.9673C19.6356 20.7059 20.0446 20.6483 20.3533 20.6592C20.5885 20.668 21.0113 20.7411 21.2349 20.82C21.2971 20.8425 21.5251 20.9315 21.5648 20.9717C21.5927 21.0005 21.6113 21.0413 21.5986 21.0799C21.5471 21.2359 21.1686 21.3181 21.0593 21.3345C20.7659 21.3792 20.614 21.2686 20.2809 21.137C20.1982 21.1047 20.088 21.069 20.0034 21.0611C19.8524 21.0467 19.6698 21.0884 19.6412 21.254C19.6264 21.3393 19.7263 21.4187 19.8025 21.4516C19.9811 21.5291 20.1264 21.5563 20.3027 21.5592C20.8217 21.567 21.4053 21.4817 21.8305 21.1807C21.8892 21.1394 21.9459 21.0783 21.9468 21.0018C21.9468 20.9919 21.9329 20.9095 21.9062 20.901C21.9023 20.8992 21.8982 20.9012 21.8951 20.9005C21.8853 20.8977 21.8689 20.8709 21.8552 20.8532C21.8246 20.8159 21.7014 20.7629 21.6772 20.7526C21.3909 20.6333 20.8621 20.5752 20.5892 20.5528C20.3034 20.5283 19.8537 20.4904 19.7455 20.4747C19.6345 20.459 19.5136 20.4369 19.417 20.3935C19.3207 20.3499 19.2261 20.2521 19.1977 20.1441C19.1479 19.9491 19.2119 19.7096 19.3201 19.5533C19.6041 19.1449 20.2687 18.9903 20.7659 18.9287C21.2469 18.8687 22.0245 18.8694 22.4968 19.1205C22.5699 19.1593 22.6074 19.1958 22.5917 19.2739C22.5612 19.4203 22.4504 19.5145 22.3175 19.556C22.1779 19.6005 21.8884 19.6177 21.7614 19.6256C21.1917 19.6576 20.5034 19.6408 19.9613 19.789C19.9187 19.8012 19.8454 19.8202 19.8212 19.8472C19.7363 19.9393 19.979 19.9655 20.0311 19.9768C20.0464 19.9799 20.0496 19.9805 20.0656 19.982L21.2644 20.1241ZM23.0414 22.2545C22.8114 22.1701 22.7593 21.7987 22.7486 21.6109C22.7122 20.9994 22.8738 20.1485 23.0791 19.5754C23.1378 19.4122 23.2222 19.1456 23.4048 19.1606C23.5305 19.1718 23.6202 19.2686 23.6906 19.3681C23.8708 19.6223 24.1078 19.9668 24.2648 20.2065C24.4405 20.4753 24.6091 20.7461 24.7749 20.9911C24.7952 21.0207 24.8144 21.0495 24.8367 21.0679C24.8668 21.0921 24.8938 21.0934 24.906 21.0709C24.9117 21.0622 24.9008 20.7533 24.8932 20.6913C24.8803 20.5927 24.8744 20.5129 24.8633 20.4278C24.8327 20.1806 24.754 19.8328 24.6922 19.5976C24.6242 19.3345 24.541 19.0603 24.4789 18.8057C24.459 18.723 24.4405 18.6394 24.4411 18.5607C24.4418 18.4468 24.5149 18.3838 24.6336 18.4263C24.8674 18.5088 25.1774 19.0164 25.2678 19.1927C25.2985 19.2523 25.4203 19.5551 25.4475 19.64C25.5446 19.9308 25.6033 20.2065 25.6301 20.5235C25.6559 20.8316 25.6343 21.2804 25.504 21.5841C25.4563 21.6958 25.3581 21.8461 25.2765 21.9218C25.1484 22.0405 24.8932 22.1332 24.7173 22.0328C24.5249 21.9237 24.2088 21.3761 24.1549 21.2825C23.9714 20.9623 23.6557 20.3359 23.6069 20.2657C23.5962 20.2502 23.5822 20.2353 23.5578 20.2279C23.5392 20.2225 23.5318 20.2611 23.527 20.2862C23.4956 20.4686 23.474 21.3216 23.4736 21.3454C23.4683 21.4889 23.4613 21.8411 23.4199 22.0145C23.3928 22.1277 23.3653 22.2207 23.2613 22.2682C23.1873 22.3016 23.131 22.2876 23.0414 22.2545ZM26.2113 22.1999C26.1865 22.181 26.1463 22.1399 26.1171 22.107C26.1125 22.1024 26.0298 21.9785 26.0135 21.9403C25.9991 21.9074 25.9882 21.8836 25.9777 21.8561C25.9024 21.6617 25.9044 21.4704 25.946 21.2616C25.9847 21.0668 26.0213 21.0583 26.1212 20.7908C26.1276 20.7762 26.1306 20.7635 26.1328 20.7474C26.1369 20.7107 26.0776 20.4642 26.0741 20.385C26.07 20.2641 26.1638 20.1784 26.3209 20.1618C26.3353 20.1605 26.346 20.1607 26.3564 20.1577C26.419 20.1424 26.4592 20.0224 26.4934 19.9262C26.5412 19.7909 26.6158 19.5848 26.6158 19.5848C26.6158 19.5848 26.4173 19.539 26.311 19.4988C26.1924 19.4541 26.1027 19.3963 26.049 19.2874C25.9847 19.16 26.027 19.0893 26.1601 19.0481C26.2089 19.0324 26.5942 18.9584 26.716 18.9412C26.8678 18.9189 27.0107 18.8999 27.1551 18.882C27.2808 18.8668 27.8572 18.8 28.0407 18.8048C28.3204 18.8129 28.5019 18.9281 28.6653 19.1648C28.7532 19.2911 28.8132 19.4412 28.6806 19.5226C28.4768 19.6463 27.8166 19.6557 27.6955 19.657C27.5029 19.6589 27.2365 19.6557 27.2365 19.6557L27.1021 20.1049C27.1021 20.1049 27.5751 20.0999 27.8408 20.0988C27.9054 20.0988 27.97 20.1023 28.0062 20.1099C28.1419 20.14 28.1888 20.2443 28.1943 20.3946C28.2017 20.5704 28.1685 20.6514 28.0285 20.6749C27.956 20.6865 27.1436 20.6913 27.0334 20.7042C26.9647 20.7116 26.892 20.7225 26.892 20.7225C26.892 20.7225 26.8333 20.8757 26.7823 21.0303C26.7308 21.1916 26.6867 21.3558 26.6867 21.3558C26.6867 21.3558 26.728 21.3576 26.7622 21.3576C26.8194 21.358 26.8774 21.3497 26.9228 21.3419C27.1706 21.2965 27.5391 21.242 27.8415 21.1944C28.004 21.1684 28.0858 21.1569 28.1714 21.2647C28.2453 21.36 28.2837 21.4398 28.2889 21.555C28.2935 21.6635 28.2108 21.7352 28.1098 21.8125C27.7902 22.0568 27.2439 22.3217 26.8368 22.3671C26.6488 22.3882 26.603 22.3673 26.4382 22.3243C26.4068 22.3162 26.2929 22.263 26.294 22.2573C26.294 22.2573 26.2323 22.2163 26.2113 22.1999ZM31.3479 19.9423C31.1384 20.1177 30.8679 20.4753 30.7387 20.661C30.5662 20.9071 30.4039 21.189 30.2485 21.4073C30.2151 21.4564 30.115 21.632 30.1185 21.6379C30.1255 21.6504 30.2263 21.6464 30.3299 21.629C30.5505 21.5919 30.8505 21.437 31.0106 21.3092C31.2547 21.1135 31.4247 20.8447 31.505 20.5303C31.5405 20.3874 31.5586 20.0879 31.4574 19.9546C31.4375 19.929 31.3869 19.909 31.3479 19.9423ZM29.6846 22.5106C29.6846 22.5106 29.6182 22.7052 29.5696 22.8579C29.4856 23.1215 29.3008 23.8312 29.258 24.0517C29.1937 24.379 29.0104 25.2366 29.001 25.2549C28.9882 25.2798 28.9797 25.2877 28.9487 25.3075C28.8732 25.3518 28.8429 25.3372 28.7515 25.2883C28.6328 25.2259 28.5285 25.1622 28.4395 25.0446C28.2606 24.8123 28.3033 24.3751 28.3383 24.1185C28.4611 23.2212 28.5852 22.8265 28.9266 21.9333C28.9323 21.9181 28.9323 21.9146 28.9253 21.9011C28.8189 21.6744 28.7615 21.4006 28.7615 21.1794C28.7624 20.4793 29.1647 19.7866 29.6158 19.2302C29.6499 19.1879 29.8713 18.9226 29.9719 18.9279C30.0727 18.9327 30.089 19.0503 30.074 19.1484C30.0234 19.4718 29.7958 19.8012 29.6403 20.0739C29.4653 20.3787 29.4273 20.5041 29.3418 20.7836C29.3281 20.8272 29.2938 21.0314 29.2954 21.0576C29.2988 21.1327 29.3152 21.2273 29.3152 21.2273C29.3152 21.2273 29.5997 20.829 29.7875 20.5831C29.8901 20.4481 29.9638 20.3588 30.0493 20.2626C30.136 20.1649 30.4695 19.8182 30.5655 19.7268C30.7673 19.5342 30.8568 19.4541 31.0749 19.3409C31.248 19.2514 31.4033 19.2292 31.5719 19.3406C31.8394 19.5163 31.9559 19.8878 31.986 20.1891C32.0211 20.5491 31.9476 20.954 31.7888 21.2623C31.6005 21.6301 31.3433 21.8949 30.9936 22.1266C30.636 22.3636 30.2165 22.5248 29.805 22.5152C29.7494 22.5139 29.6846 22.5106 29.6846 22.5106Z" fill="white"/>
</svg>
