<svg width="40" height="40" viewBox="0 0 40 40" fill="none" xmlns="http://www.w3.org/2000/svg">
<g clip-path="url(#clip0_1270_35570)">
<rect width="40" height="40" fill="white"/>
<path d="M30.3445 26.0279C30.1952 26.0279 30.058 26.0027 29.9329 25.9523C29.8078 25.9019 29.6986 25.8309 29.6053 25.7395C29.5138 25.6461 29.4429 25.5369 29.3925 25.4119C29.3421 25.2868 29.3169 25.1496 29.3169 25.0003C29.3169 24.8509 29.3421 24.7137 29.3925 24.5887C29.4429 24.4636 29.5138 24.3553 29.6053 24.2639C29.6986 24.1705 29.8078 24.0987 29.9329 24.0483C30.058 23.9979 30.1952 23.9727 30.3445 23.9727C30.4864 23.9727 30.6189 23.9979 30.7421 24.0483C30.8672 24.0987 30.9764 24.1705 31.0697 24.2639C31.1649 24.3553 31.2386 24.4636 31.2909 24.5887C31.345 24.7137 31.3721 24.8509 31.3721 25.0003C31.3721 25.1496 31.3469 25.2868 31.2965 25.4119C31.2461 25.5369 31.1742 25.6461 31.0809 25.7395C30.9894 25.8309 30.8812 25.9019 30.7561 25.9523C30.631 26.0027 30.4938 26.0279 30.3445 26.0279ZM30.3445 25.8795C30.464 25.8795 30.576 25.858 30.6805 25.8151C30.785 25.7721 30.8774 25.7115 30.9577 25.6331C31.038 25.5528 31.1005 25.4595 31.1453 25.3531C31.1901 25.2467 31.2125 25.1291 31.2125 25.0003C31.2125 24.8789 31.191 24.7651 31.1481 24.6587C31.1052 24.5523 31.0445 24.4589 30.9661 24.3787C30.8896 24.2984 30.7981 24.2359 30.6917 24.1911C30.5872 24.1444 30.4714 24.1211 30.3445 24.1211C30.1765 24.1211 30.0262 24.1593 29.8937 24.2359C29.763 24.3105 29.6604 24.4141 29.5857 24.5467C29.511 24.6773 29.4737 24.8285 29.4737 25.0003C29.4737 25.1216 29.4952 25.2355 29.5381 25.3419C29.581 25.4483 29.6408 25.5416 29.7173 25.6219C29.7957 25.7021 29.8881 25.7656 29.9945 25.8123C30.1009 25.8571 30.2176 25.8795 30.3445 25.8795ZM29.9609 25.6135V24.3899H30.3193C30.4724 24.3899 30.5844 24.4197 30.6553 24.4795C30.7262 24.5392 30.7617 24.6297 30.7617 24.7511C30.7617 24.8388 30.7393 24.9088 30.6945 24.9611C30.6497 25.0115 30.5993 25.0479 30.5433 25.0703L30.8681 25.6135H30.6273L30.3473 25.1291H30.1737V25.6135H29.9609ZM30.3137 24.9555C30.3865 24.9555 30.4434 24.9368 30.4845 24.8995C30.5256 24.8621 30.5461 24.8145 30.5461 24.7567C30.5461 24.6913 30.5274 24.6437 30.4901 24.6139C30.4528 24.584 30.393 24.5691 30.3109 24.5691H30.1737V24.9555H30.3137Z" fill="#EB192E"/>
<path d="M-0.42041 19.9992L19.5796 13.1992L39.5796 19.9992L19.5796 26.7992" fill="#EB192E"/>
<path d="M9.92274 22.2424H9.90714C9.90714 22.3484 9.65154 22.4324 9.33594 22.4356V22.7332C9.33594 22.7332 12.4987 22.7332 13.4511 22.7332C14.3371 22.7332 15.7083 21.6432 15.7083 20.0264C15.7083 18.5316 14.4947 17.2344 13.4511 17.2344C12.5067 17.2344 9.33594 17.2344 9.33594 17.2344V17.5012C9.33713 17.5012 9.33834 17.5012 9.34114 17.5012C9.64554 17.5012 9.88794 17.5792 9.91874 17.6768H9.92274V17.6844C9.92393 17.6888 9.92873 17.6916 9.92873 17.6968C9.92873 17.6988 9.92393 17.7012 9.92274 17.706V22.2424ZM11.1823 18.3948C11.1823 18.3948 12.3915 18.3948 13.3355 18.3948C13.7579 18.3948 14.5399 18.96 14.5415 20.0036C14.5431 21.0088 13.8699 21.524 13.3355 21.524C12.3847 21.524 11.1823 21.524 11.1823 21.524V18.3948ZM22.3907 20.4756C22.3907 19.1112 21.2407 18.0048 19.4875 18.0048C17.7239 18.0048 16.5835 19.1152 16.5835 20.4756C16.5835 21.8792 17.5743 22.804 19.1155 22.9316H19.8599C21.4011 22.804 22.3907 21.8792 22.3907 20.4756ZM17.8571 20.5416C17.8571 19.7752 18.5015 19.1572 19.4919 19.1572C20.4831 19.1572 21.1263 19.7752 21.1263 20.5416C21.1263 21.3064 20.4831 21.926 19.4919 21.926C18.5019 21.926 17.8571 21.3064 17.8571 20.5416ZM29.0675 22.294C29.0675 22.294 30.6331 18.7912 30.6363 18.7876C30.6843 18.7216 30.7659 18.6624 30.8883 18.6368C30.9287 18.6292 31.1087 18.63 31.1087 18.63V18.2884L28.9139 18.2972V18.6288C28.9247 18.6288 28.9771 18.6288 28.9851 18.6296C29.2551 18.6344 29.2907 18.7144 29.2907 18.8124L28.4347 21.0568L27.4651 18.4368L26.7407 18.4408H25.9803L25.0831 20.9536L24.3539 18.8028H24.3647C24.3647 18.6344 24.4727 18.6204 24.6387 18.6204V18.2988H22.5003V18.6204C22.8387 18.6204 22.8167 18.6972 22.8743 18.8028C22.8759 18.8044 22.8715 18.8072 22.8715 18.8088L24.1743 22.1776C24.1871 22.21 24.1871 22.2436 24.1871 22.2812C24.1871 22.4676 24.0259 22.5 23.8347 22.5048V22.82L26.1715 22.8288V22.5164C26.1703 22.5164 26.1703 22.5164 26.1703 22.5164C25.9239 22.5164 25.8315 22.4704 25.8315 22.2932C25.8315 22.2652 25.8363 22.24 25.8571 22.2172L26.7407 20.2916C26.7407 20.2916 27.4959 22.2212 27.4959 22.2884C27.4959 22.4568 27.4379 22.5164 27.2279 22.5164V22.8288L29.3943 22.8124V22.5064C29.0651 22.5064 29.0623 22.4364 29.0675 22.294Z" fill="white"/>
</g>
<defs>
<clipPath id="clip0_1270_35570">
<rect width="40" height="40" fill="white"/>
</clipPath>
</defs>
</svg>
