<svg width="40" height="40" viewBox="0 0 40 40" fill="none" xmlns="http://www.w3.org/2000/svg">
<g clip-path="url(#clip0_1270_35576)">
<path fill-rule="evenodd" clip-rule="evenodd" d="M0 40H40V0H0V40Z" fill="#7399C6"/>
<path fill-rule="evenodd" clip-rule="evenodd" d="M35.5257 19.3731H34.1189V14.1975H35.4439V14.7769C35.6089 14.4287 36.0226 14.1206 36.5607 14.0812C37.472 14.0425 38.092 14.545 38.092 15.6263V19.3731H36.6439V15.4719C36.6439 15.0088 36.6439 14.6219 36.3126 14.545C36.1882 14.5063 35.9814 14.545 35.8157 14.6606C35.6089 14.8544 35.5257 15.0856 35.5257 15.4719V19.3731ZM11.0614 16.785C11.0614 17.7506 11.0614 18.5231 10.8957 18.91C10.7714 19.1025 10.647 19.2188 10.357 19.2188C10.1089 19.2188 9.94325 19.1025 9.86075 18.9094C9.65387 18.5231 9.65387 17.7506 9.65387 16.785C9.65387 15.8581 9.65387 15.0475 9.86012 14.6606C9.94325 14.4675 10.1089 14.3519 10.357 14.3519C10.647 14.3519 10.7714 14.4675 10.8957 14.6606C11.1026 15.0469 11.0614 15.8575 11.0614 16.785ZM11.5989 14.545C11.2676 14.2744 10.8539 14.0812 10.357 14.0812C9.86075 14.0812 9.48825 14.275 9.11575 14.545C8.53575 15.0087 8.16325 15.8581 8.16325 16.785C8.16325 17.7506 8.53575 18.5619 9.11575 19.0256C9.48825 19.2956 9.86075 19.4887 10.357 19.4887C10.8539 19.4887 11.2682 19.2956 11.5995 19.0256C12.2201 18.5619 12.5514 17.7506 12.5514 16.785C12.5514 15.8581 12.2195 15.0087 11.5989 14.545ZM26.0464 21.3431V22.7331H25.757C25.5914 22.1538 25.3426 21.6519 24.6801 21.6131C24.2664 21.575 23.8939 21.8069 23.8526 22.1537C23.8114 22.5019 23.9351 22.81 24.6801 23.1975C25.6326 23.6987 26.3776 23.9306 26.3776 24.9738C26.3776 26.0938 25.3426 26.635 24.4732 26.635H22.817V24.7037H23.107C23.3145 25.7075 23.6451 26.3256 24.432 26.3644C24.9289 26.3644 25.3007 26.0938 25.3007 25.5919C25.3007 25.0894 24.9701 24.7806 24.1839 24.3556C23.3145 23.8538 22.7764 23.5444 22.7764 22.8494C22.7764 21.9225 23.4801 21.3431 24.5976 21.3431H26.0464ZM27.8676 19.3731V15.6263C27.8676 14.545 27.247 14.0425 26.3364 14.0812C25.7151 14.12 25.3426 14.5062 25.177 14.815C24.9701 14.2744 24.5145 14.0425 23.852 14.0812C23.3145 14.12 22.9001 14.4287 22.7345 14.7769V14.1975H21.4514V19.3725H22.8589V15.4725C22.8589 15.0862 22.9001 14.8544 23.1489 14.6612C23.3145 14.5456 23.4801 14.5069 23.6039 14.5456C23.9351 14.6225 23.9351 15.0094 23.9351 15.4725V19.3737H25.3426V15.4331C25.3426 15.085 25.4251 14.8531 25.6326 14.66C25.7982 14.5444 25.9639 14.5056 26.0876 14.5444C26.4189 14.6213 26.4601 15.0081 26.4601 15.4713V19.3725H27.8676V19.3731ZM13.5032 19.3731H14.952V13.1156H13.5032V19.3731ZM18.3876 14.6225C18.6776 15.0088 18.6776 15.935 18.6776 16.6694C18.6776 17.4419 18.7195 18.4462 18.3882 18.8706C18.2639 19.0256 18.1395 19.1025 17.9326 19.1025C17.6432 19.1025 17.4776 18.7937 17.3951 18.2912C17.3532 17.8281 17.3532 17.2487 17.3532 16.6306C17.3532 15.5881 17.4357 14.4287 17.9745 14.4287C18.1807 14.4287 18.2632 14.5063 18.3876 14.6225ZM20.0857 19.3731V13.1156H18.6364V14.5838C18.5126 14.3131 18.2226 14.12 17.8089 14.12C16.7739 14.12 15.9464 15.1244 15.9045 16.6694C15.8632 17.7125 16.2357 19.4506 17.6845 19.4506C18.2639 19.4506 18.5951 19.1412 18.7195 18.8706V19.3731H20.0857ZM31.3451 16.2831L30.8895 16.5531C30.4345 16.8238 30.352 17.1719 30.3101 17.5575C30.2689 17.8669 30.2689 18.1369 30.3101 18.6006C30.3514 19.0256 30.6414 19.1025 30.8895 19.0256C31.1795 18.9094 31.3451 18.4075 31.3451 17.8669V16.2831ZM32.1726 14.3519C32.5457 14.5456 32.7939 14.8537 32.7939 15.5494V19.3731H31.4276V18.7938C31.2626 19.2188 30.807 19.4887 30.1857 19.4887C29.6895 19.4887 28.8201 19.2575 28.8201 18.06C28.8201 16.9394 29.6064 16.7081 30.4764 16.36C31.2626 16.0512 31.3451 16.0125 31.3451 15.7037V14.8537C31.3451 14.5063 31.1382 14.3519 30.7239 14.3519C30.5589 14.3906 30.2689 14.4675 30.2689 14.6606C30.227 14.8925 30.517 14.8925 30.5589 15.24C30.6001 15.7812 30.1445 15.9738 29.7307 15.9356C29.4407 15.9356 29.1095 15.7812 29.0682 15.3563C29.027 14.6606 29.8545 14.0812 31.0139 14.0812C31.552 14.0812 31.8832 14.1975 32.1726 14.3519ZM10.8539 23.5056L10.3989 23.7763C9.94325 24.0469 9.86075 24.3944 9.81887 24.7806C9.77825 25.0894 9.77825 25.3988 9.81887 25.8231C9.81887 26.2869 10.1089 26.3644 10.357 26.2481C10.6882 26.1325 10.8539 25.6694 10.8539 25.0894V23.5056ZM11.682 21.5744C12.0545 21.8062 12.2614 22.0769 12.2614 22.7719V26.6344H10.9376V26.055C10.772 26.4412 10.317 26.7113 9.69575 26.7113C9.15762 26.7113 8.3295 26.5188 8.3295 25.3213C8.3295 24.2013 9.11637 23.9694 9.94387 23.6213C10.772 23.2744 10.8545 23.2356 10.8545 22.965V22.115C10.8545 21.7294 10.6476 21.575 10.2339 21.6131C10.0682 21.6131 9.77887 21.6906 9.77887 21.8838C9.737 22.1544 10.027 22.1544 10.0682 22.5019C10.1095 23.0038 9.6545 23.1969 9.24012 23.1969C8.95075 23.1581 8.6195 23.0037 8.57762 22.5788C8.53637 21.9225 9.3645 21.3425 10.5232 21.3425C11.062 21.3425 11.3926 21.42 11.6826 21.575L11.682 21.5744ZM21.7001 22.8881C21.7001 21.8069 21.0789 21.2656 20.1682 21.3431C19.7132 21.3813 19.3401 21.5744 19.1332 21.845V20.3388H17.7251V23.8925C17.7251 25.205 16.7314 26.4412 15.7376 26.4025C15.0345 26.4025 14.8689 25.9006 14.7857 25.36C14.662 24.5875 14.662 23.6994 14.7445 22.7331C14.8276 22.1156 14.9932 21.6131 15.4901 21.6131C15.8626 21.6131 15.9039 21.845 15.7382 21.9994C15.5726 22.1931 15.3245 22.3856 15.4482 22.8106C15.5726 23.2744 16.3589 23.3512 16.732 23.0044C17.0214 22.695 16.9801 22.1925 16.7732 21.8838C16.5245 21.4975 16.1107 21.3431 15.4901 21.3431C14.7032 21.3431 13.2132 21.9994 13.2132 24.085C13.2132 26.3256 14.7445 26.7119 15.6139 26.7119C16.6076 26.7119 17.4764 25.9006 17.7251 25.2437V26.6344H19.1326V22.7331C19.1326 22.3475 19.2151 22.1156 19.4226 21.9219C19.5882 21.8062 19.7951 21.7675 19.9195 21.8062C20.2507 21.8837 20.2507 22.27 20.2507 22.7331V26.6344H21.6995L21.7001 22.8881ZM7.21137 13V15.2019H6.92137C6.67325 14.1206 6.13512 13.3088 5.39012 13.2706C4.89325 13.2319 4.60325 13.5019 4.35512 13.8881C4.107 14.3519 3.98262 15.3175 3.98262 16.4756C3.98262 17.5575 4.02387 18.3688 4.14825 18.9481C4.23075 19.2188 4.43762 19.6431 4.97575 19.6431C5.26575 19.6431 5.47262 19.5663 5.597 19.4119C5.80325 19.18 5.84512 18.7163 5.84512 18.4075V17.3644C5.84512 16.9781 5.72137 16.7469 5.51387 16.6306C5.34887 16.5531 5.10012 16.5531 4.97637 16.5144V16.2444H7.29387V21.7681H7.0045C6.88012 21.3431 6.79762 21.0338 6.59012 20.6863C6.38387 20.3388 6.01075 19.9525 5.39012 19.9525C4.72762 19.9138 4.23075 20.3 4.23075 20.8794C4.23075 21.6519 4.72762 21.845 5.63825 22.3088C6.50762 22.7719 7.62575 23.1588 7.62575 24.51C7.62575 25.8231 6.4245 26.635 5.05887 26.635H2.86512V23.9694H3.1545C3.527 25.9781 4.43762 26.3256 5.05887 26.3256C5.84512 26.3256 6.21762 25.8619 6.21762 25.2056C6.17637 24.3556 5.55512 24.0469 4.68637 23.6219C3.4445 22.9656 2.86512 22.6563 2.86512 21.575C2.90637 20.6475 3.69262 20.0687 4.562 19.8369C2.74075 19.6431 2.20262 18.0988 2.24387 16.4375C2.24387 14.7769 3.27887 13 5.307 13H7.21137Z" fill="white"/>
</g>
<defs>
<clipPath id="clip0_1270_35576">
<rect width="40" height="40" fill="white"/>
</clipPath>
</defs>
</svg>
