<svg width="40" height="40" viewBox="0 0 40 40" fill="none" xmlns="http://www.w3.org/2000/svg">
<g clip-path="url(#clip0_1270_35581)">
<path d="M4 4H36V36H4V4Z" fill="white"/>
<path d="M7.15794 7.20029H23.2186C24.5115 7.20029 25.8045 7.19758 27.0947 7.20289C26.7372 7.56573 26.3715 7.92597 26.0115 8.28892C26.1538 8.43935 26.3043 8.57915 26.4468 8.72698C26.7748 8.50122 27.1457 8.32116 27.5489 8.29153C27.9118 8.25386 28.2774 8.34797 28.6106 8.49319C28.737 8.54692 28.8553 8.63288 28.9977 8.64634C29.1375 8.63831 29.2423 8.51468 29.2907 8.39095C29.331 8.3051 29.2933 8.20285 29.2263 8.14098C28.9144 7.82655 28.5999 7.51744 28.2908 7.20289C29.7799 7.19486 31.269 7.20289 32.7556 7.20029C32.7556 8.65176 32.7582 10.106 32.7556 11.5601C32.4492 11.2592 32.1507 10.9527 31.8469 10.6517C31.7663 10.5682 31.6347 10.5252 31.5244 10.5764C31.4518 10.6113 31.3819 10.6677 31.3497 10.7457C31.3093 10.9016 31.3793 11.0548 31.4411 11.1945C31.6293 11.5924 31.7126 12.0413 31.6562 12.4795C31.6185 12.7778 31.511 13.0708 31.3497 13.3262C31.3067 13.3879 31.2664 13.4524 31.2288 13.5171C31.3846 13.6513 31.5164 13.8126 31.675 13.9444C32.0298 13.5788 32.3953 13.2213 32.7556 12.8584C32.7556 15.2856 32.7582 17.7129 32.7556 20.1402C32.6856 20.1644 32.6076 20.2128 32.535 20.1777C32.4383 20.1159 32.3657 20.0246 32.2851 19.9466C31.4142 19.081 30.5513 18.2074 29.6778 17.3447C29.331 17.6914 28.9898 18.0408 28.6374 18.3796C28.823 18.5891 29.03 18.7746 29.2235 18.9762C29.9224 19.6752 30.6212 20.3741 31.3229 21.0728C31.3819 21.1347 31.4518 21.1885 31.4841 21.2692C31.4948 21.3578 31.433 21.4331 31.4088 21.5137C31.3739 21.6078 31.4492 21.7207 31.5486 21.7233C31.6373 21.7396 31.7126 21.6803 31.7691 21.6213C32.097 21.2905 32.4276 20.9627 32.7556 20.6346V32.7978H20.5897C20.9015 32.4861 21.2134 32.1769 21.5252 31.865C20.4639 30.8064 19.4039 29.7465 18.3452 28.6852C17.9986 29.0185 17.6653 29.3653 17.3212 29.7012C17.2486 29.7766 17.1679 29.8491 17.1331 29.9512C17.1169 30.0506 17.2083 30.1447 17.305 30.1502C17.3911 30.1394 17.4636 30.0829 17.5497 30.0641C17.6249 30.0589 17.6841 30.1179 17.7378 30.1663C18.3668 30.8006 18.9985 31.4297 19.6302 32.0614C19.7887 32.2279 19.9608 32.3784 20.1085 32.5506C20.1758 32.6258 20.1302 32.7225 20.0925 32.7978H12.8162L14.5337 31.0802C14.6412 30.9781 14.7515 30.8599 14.7675 30.7039C14.7917 30.5238 14.6091 30.3437 14.4289 30.3813C14.2783 30.4109 14.1548 30.5292 13.9989 30.5292C13.8994 30.5211 13.8241 30.4485 13.7569 30.3841C12.3887 29.0185 11.0233 27.6504 9.65779 26.2848C9.5664 26.1935 9.45623 26.1048 9.42388 25.973C9.41857 25.8172 9.52873 25.6908 9.56911 25.5484C9.62012 25.3683 9.4508 25.172 9.26791 25.1855C9.14169 25.1936 9.02881 25.2661 8.94285 25.3548C8.35143 25.9543 7.74937 26.5456 7.15794 27.1451C7.15523 20.4976 7.15794 13.8477 7.15794 7.20029Z" fill="#F96302"/>
<path d="M25.6215 8.6767C25.6457 8.64989 25.6887 8.62557 25.7129 8.66595C27.5868 10.5372 29.4595 12.4098 31.3308 14.2838C30.6733 14.9407 30.0166 15.5984 29.3605 16.2567C29.2744 16.3374 29.1696 16.4046 29.0514 16.4126C28.8874 16.4262 28.7234 16.2782 28.7368 16.1115C28.7423 15.9476 28.8819 15.8213 28.8847 15.6546C28.8901 15.5497 28.8094 15.4719 28.7423 15.3992C27.3525 14.0123 25.9655 12.6227 24.5758 11.2329C24.4979 11.1576 24.4119 11.0635 24.2936 11.0717C24.1189 11.0743 23.9872 11.2356 23.8099 11.2168C23.7076 11.2194 23.6243 11.1388 23.5733 11.0555C23.5034 10.9104 23.5678 10.7357 23.6728 10.6282C24.3233 9.97763 24.9737 9.32716 25.6215 8.6767ZM28.3203 9.22231C28.374 9.12289 28.4761 9.0315 28.597 9.04757C28.7314 9.05842 28.8282 9.16847 28.9169 9.25726C29.4539 9.7964 29.9915 10.3349 30.5298 10.8727C30.6319 10.9723 30.7528 11.069 30.777 11.2168C30.7905 11.3699 30.6507 11.507 30.5029 11.5232C30.3792 11.5259 30.2664 11.4587 30.1589 11.3996C29.9303 11.2652 29.6723 11.1576 29.4008 11.1711C29.261 11.1684 29.1267 11.2248 29.0003 11.2813C28.8524 11.1227 28.6831 10.9803 28.5433 10.8163C28.5863 10.6954 28.6427 10.5798 28.6509 10.4506C28.6698 10.1578 28.5515 9.87821 28.4035 9.63356C28.3283 9.51265 28.2691 9.362 28.3203 9.22231ZM16.4742 10.647C16.7647 10.3406 17.0711 10.053 17.3613 9.74915C17.6382 10.0179 17.9069 10.2895 18.1785 10.5609C18.2672 10.647 18.1865 10.7921 18.0871 10.827C18.0038 10.8378 17.9311 10.7813 17.8559 10.7544C17.5657 10.612 17.2055 10.596 16.9152 10.7518C16.8399 10.7841 16.778 10.8485 16.6974 10.862C16.6168 10.7975 16.5496 10.7169 16.4742 10.647ZM16.2916 10.8189C16.6867 11.2006 17.0684 11.5958 17.4581 11.9801C18.0683 12.5876 18.6757 13.2005 19.2886 13.808C18.9394 14.1613 18.5882 14.5125 18.2349 14.8617C18.1623 14.9422 18.0172 14.9773 17.9473 14.8778C17.8614 14.7864 17.9554 14.6735 17.9823 14.5794C18.0145 14.5095 17.9582 14.4478 17.9124 14.3995C17.2086 13.6983 16.5062 12.9958 15.805 12.292C15.7405 12.2328 15.6867 12.1603 15.6088 12.1199C15.5013 12.0957 15.418 12.1926 15.3131 12.198C15.2325 12.1898 15.1573 12.1093 15.168 12.0258C15.1733 11.9614 15.211 11.9049 15.2567 11.8592C15.6007 11.5125 15.9502 11.1711 16.2916 10.8189ZM17.6946 11.249C17.6598 11.1604 17.7216 11.0529 17.8157 11.0395C17.8856 11.0287 17.942 11.0823 17.9904 11.1281C18.2806 11.4184 18.5709 11.7114 18.8639 11.999C18.9149 12.0555 18.9875 12.1065 18.993 12.1898C19.0037 12.2732 18.9231 12.3538 18.8371 12.3457C18.7241 12.3457 18.6382 12.257 18.536 12.2194C18.3855 12.1496 18.2027 12.1441 18.0549 12.2248C17.977 12.1469 17.8989 12.0662 17.8183 11.9936C17.8533 11.8753 17.8856 11.7491 17.8559 11.6253C17.8344 11.4857 17.7376 11.3781 17.6946 11.249ZM22.8422 11.4587C22.9148 11.3861 23.006 11.3324 23.1083 11.3189C23.2882 11.2921 23.4764 11.4668 23.4416 11.6495C23.4174 11.8108 23.283 11.9398 23.2937 12.1093C23.3206 12.2274 23.4174 12.308 23.4952 12.3915C24.8689 13.7623 26.2424 15.1305 27.6105 16.504C27.6859 16.5713 27.7611 16.66 27.8686 16.66C28.0299 16.66 28.1536 16.5391 28.3068 16.512C28.4842 16.4826 28.6589 16.6573 28.6373 16.8347C28.6267 16.9556 28.5541 17.0605 28.4708 17.1437C27.7799 17.8318 27.0917 18.5254 26.401 19.2135C26.3123 19.3022 26.1994 19.3829 26.0678 19.3829C25.9225 19.3909 25.7828 19.2674 25.764 19.1249C25.7451 18.9367 25.9198 18.7969 25.9144 18.6086C25.9064 18.52 25.8446 18.4475 25.7855 18.3829C24.5785 17.1788 23.3743 15.9718 22.1675 14.7676C23.1647 16.6196 24.17 18.4664 25.1672 20.3183C25.1833 20.3451 25.1968 20.3748 25.2102 20.407C25.1377 20.4741 25.0678 20.5467 24.9979 20.6193C23.0007 19.6356 21.0062 18.6409 19.0118 17.6545C18.6973 17.4986 18.3855 17.3159 18.0307 17.2729C17.9124 17.2566 17.8317 17.3535 17.7458 17.4153C17.657 17.4852 17.5387 17.5282 17.4286 17.4932C17.2969 17.4342 17.2055 17.2782 17.2458 17.1357C17.2727 17.039 17.3398 16.9583 17.4097 16.8883C18.0549 16.246 18.6973 15.601 19.3425 14.9611C20.3476 15.453 21.3556 15.9342 22.3637 16.4262C22.396 16.4503 22.4308 16.4745 22.4604 16.5067C22.4766 16.4878 22.4901 16.469 22.5061 16.4503L22.4685 16.4556C21.939 15.4476 21.3827 14.4531 20.853 13.4451C21.5196 12.7839 22.1782 12.1199 22.8422 11.4587ZM19.3128 11.913C19.3612 11.8243 19.4983 11.8135 19.5628 11.8888C19.8342 12.1629 20.1112 12.4371 20.3853 12.7114C20.0791 13.0206 19.7709 13.3279 19.4608 13.6333C19.3909 13.5526 19.2967 13.4882 19.2429 13.3941C19.3316 13.2435 19.4257 13.0903 19.4499 12.9129C19.4956 12.6683 19.4553 12.4103 19.3505 12.1845C19.3209 12.0985 19.2564 11.999 19.3128 11.913ZM14.7997 12.3162C14.8535 12.2597 14.9126 12.2006 14.9905 12.1818C15.0686 12.1658 15.1653 12.214 15.176 12.3C15.1949 12.3941 15.125 12.4722 15.1062 12.5634C15.0954 12.636 15.1545 12.6872 15.1975 12.7356C15.9153 13.4531 16.6302 14.1709 17.348 14.8858C17.3964 14.9316 17.4474 14.9881 17.5173 15.0041C17.6033 14.9961 17.6758 14.9396 17.7592 14.9209C17.8614 14.91 17.9554 15.0203 17.9231 15.117C17.9098 15.1896 17.8533 15.2434 17.8049 15.2945C17.4554 15.6439 17.1059 15.9933 16.7566 16.3401C16.6948 16.402 16.6142 16.4664 16.5227 16.445C16.4716 16.4234 16.4287 16.3831 16.4098 16.3321C16.383 16.2138 16.5093 16.117 16.4797 15.9986C16.4529 15.9531 16.4152 15.918 16.3803 15.8804C16.0524 15.5552 15.7271 15.2246 15.3965 14.8994C15.2813 15.0172 15.1648 15.1336 15.047 15.2488C14.9663 15.1708 14.8857 15.0928 14.8105 15.0095C14.9287 14.894 15.0444 14.7758 15.1627 14.66C14.8722 14.3753 14.5846 14.0848 14.2971 13.7972C14.2352 13.7381 14.1815 13.6737 14.1089 13.6307C13.9772 13.5876 13.8509 13.7731 13.7246 13.6709C13.6223 13.5984 13.6547 13.4531 13.738 13.3779C14.0901 13.0204 14.4475 12.671 14.7997 12.3162Z" fill="white"/>
<path d="M13.4237 13.7099C13.5045 13.6586 13.6254 13.691 13.6629 13.7824C13.7006 13.8925 13.6012 13.9866 13.5984 14.0942C13.5957 14.1506 13.6414 14.1909 13.6764 14.2286C14.4209 14.9732 15.1629 15.7177 15.9075 16.4596C16.0417 16.6047 16.2139 16.3547 16.359 16.4623C16.4531 16.5376 16.4209 16.6853 16.3402 16.7552C15.9907 17.1074 15.6386 17.4541 15.2918 17.8062C15.2354 17.86 15.179 17.9245 15.101 17.9487C15.015 17.9729 14.9101 17.9191 14.8995 17.8278C14.8833 17.7203 14.9801 17.6369 14.9747 17.532C14.9611 17.4863 14.9317 17.4488 14.8995 17.4138C14.1947 16.7118 13.4913 16.0085 12.7893 15.3037C12.7222 15.242 12.6658 15.1639 12.577 15.1317C12.4803 15.1264 12.3996 15.199 12.3055 15.2096C12.2249 15.2123 12.155 15.1397 12.1523 15.0619C12.1443 14.9784 12.2034 14.9114 12.2599 14.8549C12.6092 14.5054 12.9586 14.1559 13.3055 13.8066C13.3431 13.7716 13.378 13.7367 13.4237 13.7099ZM11.4803 15.6317C11.6416 15.4758 11.7975 15.3145 11.9588 15.1559C12.2411 15.4302 12.5178 15.715 12.8002 15.9919C12.8486 16.0456 12.9076 16.094 12.9344 16.1639C12.9668 16.2957 12.8163 16.4408 12.6846 16.3816C12.5528 16.3225 12.4481 16.2176 12.3216 16.1477C12.1093 16.0161 11.8619 15.9327 11.6094 15.9623C11.5368 15.8871 11.4561 15.8171 11.3917 15.7366C11.413 15.6935 11.4481 15.664 11.4803 15.6317ZM10.3083 16.8036C10.6094 16.508 10.9051 16.2096 11.2035 15.9112C11.7684 16.4788 12.3346 17.0451 12.9022 17.6101C13.214 17.9191 13.5178 18.2337 13.8322 18.5374C13.921 18.6368 14.0392 18.5536 14.136 18.5185C14.2327 18.4755 14.3457 18.5616 14.343 18.6636C14.343 18.7335 14.3026 18.7927 14.2571 18.8412C13.8915 19.204 13.5313 19.5669 13.1684 19.9298C13.1173 19.9808 13.0527 20.0319 12.9775 20.0265C12.8941 20.0347 12.8135 19.954 12.8215 19.8733C12.827 19.7873 12.8941 19.7174 12.8941 19.6313C12.8996 19.5587 12.8377 19.513 12.7947 19.4646C11.9373 18.6126 11.0879 17.7526 10.2277 16.903C10.2546 16.8681 10.2788 16.8359 10.3083 16.8036ZM30.4816 16.5402C30.8149 16.8681 31.1455 17.1988 31.4735 17.532C31.5783 17.6315 31.503 17.8304 31.3632 17.852C31.2342 17.8708 31.1348 17.7686 31.0353 17.7014C30.7692 17.5186 30.4547 17.3466 30.1215 17.4031C30.0327 17.3224 29.9467 17.2391 29.8741 17.1451C30.0811 16.9461 30.28 16.7417 30.4816 16.5402ZM10.0342 17.0858C10.1337 17.1235 10.1955 17.2364 10.2761 17.3063C10.2331 17.6181 10.3808 17.911 10.5556 18.1557C10.6067 18.2337 10.6685 18.3062 10.7007 18.3949C10.7358 18.5132 10.6202 18.6368 10.5019 18.6234C10.4347 18.6234 10.389 18.5669 10.346 18.5267C10.053 18.2309 9.75741 17.9407 9.46436 17.645C9.65788 17.4621 9.83805 17.266 10.0342 17.0858ZM16.0149 18.602C16.5498 18.4298 17.1304 18.4111 17.6814 18.5239C18.6169 18.7229 19.4447 19.2712 20.106 19.9512C20.7538 20.6071 21.2699 21.4297 21.4446 22.3462C21.5413 22.8488 21.5198 23.3757 21.3748 23.8676C21.2323 24.3541 20.9741 24.8031 20.6489 25.1901C20.5091 25.0423 20.356 24.9052 20.2215 24.7547C20.2215 24.682 20.2672 24.6202 20.2808 24.5504C20.3533 24.3139 20.2808 24.0477 20.1006 23.8756C18.7729 22.5452 17.4396 21.2146 16.1116 19.884C15.9907 19.7604 15.8376 19.661 15.6628 19.6475C15.5203 19.6287 15.3805 19.6798 15.2462 19.7281C15.1923 19.7577 15.1575 19.6906 15.1225 19.6636C15.015 19.5481 14.8967 19.4433 14.7892 19.3249C14.7892 19.3169 14.7865 19.3007 14.7865 19.2927C15.144 18.9863 15.5634 18.7471 16.0149 18.602ZM19.6384 18.454C19.762 18.4943 19.8749 18.5562 19.9904 18.6153C20.4233 18.825 20.8532 19.0428 21.2888 19.255C21.3263 19.2739 21.3613 19.3035 21.3936 19.333C21.7591 19.704 22.1274 20.0695 22.4956 20.4378C22.696 20.6502 22.9425 20.8138 23.216 20.9162C23.4068 20.9888 23.6219 20.9888 23.8127 20.9215C23.9095 20.8893 24.0144 20.8517 24.1165 20.884C24.1676 20.9051 24.2119 20.9398 24.2446 20.9843C24.2773 21.0289 24.2971 21.0816 24.3019 21.1367C24.2939 21.2845 24.1997 21.4081 24.1003 21.5102C23.7715 21.8436 23.44 22.1742 23.1058 22.5022C23.0171 22.5828 22.915 22.6661 22.7913 22.6795C22.6139 22.7063 22.4392 22.5183 22.4929 22.3462C22.544 22.1715 22.6139 21.9941 22.5844 21.8113C22.5413 21.5048 22.3665 21.2334 22.173 20.9996C21.4446 20.2685 20.7135 19.54 19.9824 18.8061C19.8694 18.6878 19.7458 18.5804 19.6384 18.454ZM27.8365 19.1851C28.0383 18.9836 28.2425 18.7819 28.4441 18.5778C28.5328 18.6503 28.6107 18.7363 28.6941 18.817C28.6591 19.0857 28.7506 19.3518 28.8903 19.5776C28.9628 19.7067 29.0677 19.8168 29.1322 19.9512C29.1672 20.0158 29.143 20.0883 29.1188 20.1528C29.458 20.3819 29.7538 20.6695 29.9924 21.0022C30.2639 21.3866 30.4547 21.8436 30.4439 22.322C30.4466 22.7763 30.2504 23.2117 29.9628 23.5557C29.8848 23.4751 29.7935 23.4026 29.7262 23.3112C29.7397 23.2117 29.788 23.115 29.7638 23.0156C29.737 22.8865 29.6375 22.7951 29.5488 22.7063C28.8393 21.9994 28.1323 21.2926 27.4254 20.5856C27.3555 20.5157 27.2721 20.4512 27.1726 20.4432C27.0786 20.4324 26.9845 20.4593 26.8985 20.4888C26.8152 20.411 26.7319 20.3275 26.6513 20.2469C27.0087 19.9405 27.4737 19.7442 27.9495 19.7684C28.1323 19.7631 28.3097 19.8061 28.4871 19.8464C28.2721 19.6233 28.0435 19.4136 27.8365 19.1851ZM13.7705 20.763C13.9183 20.3517 14.1521 19.9754 14.429 19.6394C14.5661 19.7793 14.7113 19.9135 14.8457 20.0561C14.8725 20.1421 14.8027 20.2228 14.7892 20.3087C14.7193 20.5399 14.8107 20.7926 14.9801 20.9592C16.2864 22.2683 17.5955 23.5746 18.9045 24.8836C19.0309 25.0208 19.184 25.1497 19.3775 25.1794C19.5496 25.2063 19.719 25.1471 19.8776 25.088C20.0227 25.2331 20.1679 25.3756 20.313 25.5207C19.9958 25.7976 19.6275 26.0153 19.2351 26.1686C18.6437 26.3969 17.9825 26.4346 17.3616 26.2976C16.418 26.0905 15.5875 25.5234 14.9236 24.8326C14.3108 24.1903 13.8161 23.4026 13.6414 22.5236C13.5232 21.9404 13.5609 21.3222 13.7705 20.763ZM25.9873 21.5399C26.0196 21.1313 26.1997 20.7416 26.4685 20.4351C26.5463 20.5157 26.6298 20.5964 26.7103 20.677C26.6808 20.7738 26.635 20.876 26.662 20.978C26.6781 21.0695 26.7399 21.1421 26.8044 21.2066C27.5141 21.9135 28.2182 22.6231 28.928 23.33C29.0112 23.4106 29.0919 23.5074 29.2102 23.5397C29.3177 23.5693 29.4279 23.5315 29.5326 23.4993C29.6134 23.5801 29.6968 23.6607 29.7747 23.7467C29.4359 24.0261 29.0139 24.2225 28.5677 24.2225C28.135 24.2413 27.7103 24.088 27.3502 23.8623C27.0893 23.6957 26.8501 23.494 26.6513 23.2601C26.7453 23.5746 26.7239 23.9268 26.576 24.2225C26.4309 24.5127 26.2051 24.7493 25.9819 24.9778C25.9013 24.8972 25.8179 24.8137 25.7346 24.7332C25.8046 24.6202 25.8503 24.4858 25.8072 24.3541C25.7562 24.2197 25.6459 24.123 25.5492 24.0208C25.3492 23.8185 25.1485 23.6169 24.947 23.4161C24.8288 23.3058 24.7024 23.1794 24.5331 23.1687C24.4337 23.1581 24.345 23.2091 24.2616 23.2575C24.1784 23.1768 24.0977 23.0935 24.0144 23.013C24.3368 22.6877 24.7051 22.3516 25.1782 22.2925C25.5653 22.2279 25.955 22.3946 26.2292 22.6607C26.0572 22.3167 25.9497 21.9295 25.9873 21.5399ZM11.819 22.478C11.8996 22.4 12.0045 22.3409 12.1173 22.3329C12.3028 22.322 12.4723 22.5155 12.421 22.6957C12.3808 22.8328 12.2813 22.9537 12.2759 23.1016C12.2867 23.2306 12.3942 23.322 12.4803 23.408L16.6197 27.5474C16.6843 27.6093 16.7568 27.6711 16.8482 27.6791C17.004 27.6791 17.1251 27.5636 17.2729 27.5287C17.4502 27.4937 17.6277 27.655 17.6197 27.8323C17.6142 27.9534 17.547 28.0635 17.4637 28.1495L15.3805 30.2328C15.2891 30.3214 15.1763 30.3994 15.0446 30.3994C14.8833 30.4048 14.7328 30.2517 14.7461 30.0875C14.7624 29.9264 14.8967 29.7973 14.8995 29.6306C14.8941 29.5312 14.816 29.4559 14.7543 29.3861C14.136 28.7651 13.5151 28.1495 12.8996 27.5314C12.8754 27.5126 12.8431 27.4588 12.8082 27.4963C12.5932 27.7033 12.3862 27.9211 12.1711 28.128C12.026 27.9829 11.8808 27.8378 11.7356 27.6899C11.9441 27.472 12.1574 27.2587 12.3753 27.0502C12.3753 27.0394 12.3782 27.0153 12.3782 27.0044C11.7948 26.432 11.2222 25.8513 10.6417 25.2735C10.553 25.1901 10.4695 25.0854 10.346 25.0557C10.1767 25.0449 10.0449 25.1766 9.88635 25.2063C9.68208 25.2412 9.49659 25.01 9.56649 24.8191C9.60144 24.6848 9.70889 24.5879 9.80299 24.4967C10.4749 23.822 11.1496 23.1526 11.819 22.478ZM23.8207 23.2038C24.1433 23.5047 24.4471 23.8273 24.7643 24.1364C25.3664 24.7412 25.9712 25.346 26.576 25.9507C26.6189 25.9858 26.6592 26.0341 26.7157 26.0448C26.8314 26.0557 26.9226 25.9427 27.0383 25.9642C27.1082 25.9884 27.1726 26.0557 27.1647 26.1335C27.1647 26.2384 27.0759 26.311 27.0113 26.3809C26.6324 26.7546 26.2587 27.1335 25.8798 27.5072C25.7964 27.5986 25.6405 27.5529 25.5895 27.4507C25.5143 27.3244 25.7185 27.1899 25.6111 27.0744C24.831 26.2972 24.0524 25.5185 23.2751 24.7385C23.2187 24.6875 23.1704 24.623 23.1031 24.5879C22.9875 24.5557 22.8961 24.6525 22.7887 24.666C22.7053 24.6579 22.6247 24.5853 22.63 24.4993C22.6219 24.4052 22.6918 24.3328 22.7509 24.2709C23.1085 23.916 23.466 23.5586 23.8207 23.2038ZM21.4231 25.5988C21.7429 25.2842 22.0547 24.959 22.38 24.6498C22.6676 24.9401 22.958 25.2278 23.2456 25.518C23.3423 25.6121 23.2402 25.7546 23.1408 25.7976C23.0709 25.8056 23.0063 25.7626 22.9444 25.7358C22.6973 25.6147 22.4122 25.5557 22.1408 25.6256C21.9688 25.6605 21.8182 25.7572 21.6677 25.8459C21.587 25.7626 21.5065 25.6794 21.4231 25.5988ZM20.1167 26.9077C20.4878 26.5314 20.8641 26.1631 21.2349 25.7894C21.837 26.3836 22.431 26.9884 23.0359 27.5824C23.4983 28.042 23.9552 28.5071 24.4202 28.9641C24.0601 29.3349 23.6892 29.6952 23.3288 30.0633C23.2778 30.1199 23.2052 30.1521 23.138 30.1816C23.0709 30.1576 22.9875 30.1333 22.966 30.0581C22.9257 29.9317 23.0574 29.8323 23.0413 29.7086C22.9875 29.6038 22.8934 29.5285 22.8127 29.4452L20.8532 27.4856C20.7377 27.3781 20.6409 27.2492 20.5038 27.1685C20.3667 27.1415 20.2431 27.3162 20.1115 27.2221C19.9986 27.1496 20.0308 26.9884 20.1167 26.9077ZM22.7241 26.2412C22.6811 26.1309 22.7832 26.0019 22.8988 26.0206C22.9525 26.0341 22.9928 26.069 23.0305 26.1067C23.3127 26.3917 23.5977 26.6712 23.8773 26.9561C23.9686 27.0502 24.0869 27.1309 24.1245 27.2652C24.0896 27.3244 24.0519 27.405 23.9714 27.4131C23.8395 27.4265 23.7428 27.3217 23.6245 27.2786C23.5438 27.2386 23.4549 27.218 23.3648 27.2185C23.2747 27.219 23.186 27.2405 23.1058 27.2814C23.0198 27.1953 22.9365 27.1093 22.8504 27.026C22.9096 26.8997 22.9365 26.7546 22.8934 26.6201C22.8612 26.483 22.7698 26.3701 22.7241 26.2412ZM24.4524 26.9427C24.5089 26.8567 24.6459 26.8432 24.7131 26.9239C25.0035 27.2169 25.2992 27.5072 25.5868 27.8028C25.2561 28.1254 24.939 28.464 24.6003 28.7786C24.5224 28.6952 24.439 28.6146 24.3583 28.5312C24.6459 28.1765 24.6863 27.663 24.4928 27.2545C24.4577 27.1577 24.3825 27.0394 24.4524 26.9427Z" fill="white"/>
<path d="M7.15794 28.0139C7.26539 27.9709 7.36764 27.9036 7.48595 27.9063C7.62835 27.9332 7.71713 28.0596 7.81644 28.1536C9.16861 29.5003 10.5152 30.8497 11.8646 32.1963C11.9398 32.2798 12.0366 32.363 12.0501 32.4813C12.0446 32.5968 11.9828 32.699 11.9346 32.8012C10.3405 32.7984 8.74933 32.7984 7.15794 32.7984C7.15794 31.2045 7.15523 29.6078 7.15794 28.0139Z" fill="#F96302"/>
<path d="M19.6702 27.9414C20.1487 27.9011 20.6245 28.073 21.0196 28.3339C21.3287 28.5408 21.6163 28.7801 21.8366 29.0784C22.1002 29.4305 22.2614 29.8607 22.2642 30.3041C22.2721 30.8095 22.0733 31.3202 21.7131 31.6776C21.6302 31.5975 21.5486 31.516 21.4685 31.433C21.5168 31.3418 21.5732 31.245 21.5572 31.1374C21.5304 30.9761 21.4201 30.8443 21.3098 30.7342L19.4955 28.9197C19.3719 28.7988 19.2321 28.6671 19.0493 28.6537C18.9499 28.643 18.8611 28.694 18.7778 28.7424C18.6998 28.6563 18.5924 28.5919 18.5439 28.4844C18.8396 28.1806 19.2428 27.9682 19.6702 27.9414Z" fill="white"/>
<path d="M-1.5 4H6.4V36H-1.5V4Z" fill="#F96302"/>
<path d="M33.6001 4H41.5001V36H33.6001V4Z" fill="#F96302"/>
<path d="M40.5 -2L40.5 6.39999L-3.67175e-07 6.39999L0 -2L40.5 -2Z" fill="#F96302"/>
<path d="M41.5 33.5996L41.5 40.9996L-2.5 40.9996L-2.5 33.5996L41.5 33.5996Z" fill="#F96302"/>
</g>
<defs>
<clipPath id="clip0_1270_35581">
<rect width="40" height="40" fill="white"/>
</clipPath>
</defs>
</svg>
