<svg width="40" height="40" viewBox="0 0 40 40" fill="none" xmlns="http://www.w3.org/2000/svg">
<rect width="40" height="40" fill="white"/>
<path d="M6 24.4082H11.4441V25.1875H6V24.4082Z" fill="#1F70C1"/>
<path d="M6 22.9141H11.4441V23.6961H6V22.9141Z" fill="#1F70C1"/>
<path d="M7.55322 21.4219H9.88839V22.204H7.55322V21.4219Z" fill="#1F70C1"/>
<path d="M7.55322 19.9297H9.88839V20.7118H7.55322V19.9297Z" fill="#1F70C1"/>
<path d="M7.55322 18.4375H9.88839V19.2196H7.55322V18.4375Z" fill="#1F70C1"/>
<path d="M7.55322 16.9434H9.88839V17.7254H7.55322V16.9434Z" fill="#1F70C1"/>
<path d="M11.4441 15.4512H6V16.2333H11.4441V15.4512Z" fill="#1F70C1"/>
<path d="M11.4441 13.959H6V14.7411H11.4441V13.959Z" fill="#1F70C1"/>
<path d="M12.2207 23.6962H20.5935C20.7349 23.4549 20.8403 23.1914 20.9041 22.9141H12.2207V23.6962Z" fill="#1F70C1"/>
<path d="M19.9416 19.9297H13.7764V20.7118H20.5933C20.4158 20.4122 20.1967 20.1488 19.9416 19.9297Z" fill="#1F70C1"/>
<path d="M13.7764 18.4375V19.2196H19.9416C20.2023 19.0005 20.4214 18.737 20.5933 18.4375H13.7764Z" fill="#1F70C1"/>
<path d="M20.5935 15.4512H12.2207V16.2333H20.9041C20.832 15.9559 20.7267 15.6925 20.5935 15.4512Z" fill="#1F70C1"/>
<path d="M18.0198 13.959H12.2207V14.7411H20.0194C19.498 14.2585 18.7908 13.959 18.0198 13.959Z" fill="#1F70C1"/>
<path d="M16.1088 16.9434H13.7764V17.7254H16.1088V16.9434Z" fill="#1F70C1"/>
<path d="M18.4443 17.7254H20.8849C20.9542 17.4759 20.9903 17.2124 20.9903 16.9434H18.4443V17.7254Z" fill="#1F70C1"/>
<path d="M13.7764 21.4219H16.1088V22.204H13.7764V21.4219Z" fill="#1F70C1"/>
<path d="M18.4443 21.4219V22.204H20.9903C20.9903 21.9349 20.9542 21.6715 20.8849 21.4219H18.4443Z" fill="#1F70C1"/>
<path d="M12.2207 25.182L18.0198 25.1903C18.7964 25.1903 19.498 24.8908 20.0222 24.4082H12.2207V25.182Z" fill="#1F70C1"/>
<path d="M21.5557 24.4082H25.4439V25.1875H21.5557V24.4082Z" fill="#1F70C1"/>
<path d="M21.5557 22.9141H25.4439V23.6961H21.5557V22.9141Z" fill="#1F70C1"/>
<path d="M23.1089 21.4219H25.4441V22.204H23.1089V21.4219Z" fill="#1F70C1"/>
<path d="M23.1089 19.9297H25.4441V20.7118H23.1089V19.9297Z" fill="#1F70C1"/>
<path d="M26.5256 15.4512H21.5557V16.2333H26.7945L26.5256 15.4512Z" fill="#1F70C1"/>
<path d="M26.0097 13.959H21.5557V14.7411H26.2787L26.0097 13.959Z" fill="#1F70C1"/>
<path d="M30.1089 24.4082H33.9999V25.1875H30.1089V24.4082Z" fill="#1F70C1"/>
<path d="M30.1089 22.9141H33.9999V23.6961H30.1089V22.9141Z" fill="#1F70C1"/>
<path d="M30.1089 21.4219H32.4441V22.204H30.1089V21.4219Z" fill="#1F70C1"/>
<path d="M30.1089 19.9297H32.4441V20.7118H30.1089V19.9297Z" fill="#1F70C1"/>
<path d="M30.1089 19.2196H32.4441V18.4375H30.1089H27.9956L27.7765 19.0698L27.5574 18.4375H25.4441H23.1089V19.2196H25.4441V18.5013L25.6909 19.2196H29.8621L30.1089 18.5013V19.2196Z" fill="#1F70C1"/>
<path d="M32.4438 16.9434H28.5112L28.2422 17.7254H32.4438V16.9434Z" fill="#1F70C1"/>
<path d="M29.5459 13.959L29.2769 14.7411H33.9999V13.959H29.5459Z" fill="#1F70C1"/>
<path d="M27.7763 25.182L28.0453 24.4082H27.5073L27.7763 25.182Z" fill="#1F70C1"/>
<path d="M27.2604 23.6961H28.2921L28.5694 22.9141H26.9858L27.2604 23.6961Z" fill="#1F70C1"/>
<path d="M26.7365 22.204H28.8165L29.0911 21.4219H26.4619L26.7365 22.204Z" fill="#1F70C1"/>
<path d="M26.2148 20.7118H29.3404L29.6067 19.9297H25.9458L26.2148 20.7118Z" fill="#1F70C1"/>
<path d="M23.1089 17.7254H27.3105L27.0415 16.9434H23.1089V17.7254Z" fill="#1F70C1"/>
<path d="M28.7607 16.2333H33.9997V15.4512H29.027L28.7607 16.2333Z" fill="#1F70C1"/>
</svg>
