<svg width="40" height="40" viewBox="0 0 40 40" fill="none" xmlns="http://www.w3.org/2000/svg">
<rect width="40" height="40" fill="#31C5F4"/>
<path d="M9.55963 15.1348H7.75V16.9444H9.55963V15.1348Z" fill="#146AB4"/>
<path d="M9.5144 24.5634V18.0397H7.79492V24.5569H9.5144V24.5634ZM20.9003 24.6278V23.0307C20.6491 23.0307 20.4366 23.0178 20.282 22.992C20.1017 22.9663 19.9665 22.9019 19.8763 22.8117C19.7862 22.7215 19.7282 22.5927 19.696 22.4189C19.6702 22.2579 19.6574 22.0453 19.6574 21.7877V19.5144H20.9003V18.0397H19.6574V15.5023H17.9379V21.8071C17.9379 22.3416 17.983 22.7924 18.0731 23.153C18.1633 23.5072 18.3178 23.797 18.5304 24.016C18.7429 24.2349 19.0262 24.3895 19.3676 24.4861C19.7153 24.5827 20.1532 24.6278 20.6749 24.6278H20.9003ZM30.7406 24.5634V15H29.0211V24.5634H30.7406ZM16.2828 18.6837C15.8063 18.1685 15.1365 17.9109 14.2864 17.9109C13.8743 17.9109 13.4943 17.9946 13.1594 18.162C12.8181 18.3295 12.5347 18.5613 12.3029 18.8575L12.2127 18.9799V18.8704V18.0397H10.519V24.5569H12.2256V21.0858V21.3241C12.2256 21.2854 12.2256 21.2468 12.2256 21.2081C12.2449 20.5963 12.3931 20.1455 12.6764 19.8557C12.9791 19.5466 13.3462 19.3921 13.7648 19.3921C14.2607 19.3921 14.6406 19.5466 14.8918 19.8429C15.1365 20.1391 15.2653 20.5577 15.2653 21.0922V21.1115V24.5569H16.9977V20.8604C17.0041 19.933 16.7594 19.1989 16.2828 18.6837ZM28.1324 21.2919C28.1324 20.8217 28.0487 20.3838 27.8877 19.9717C27.7202 19.5659 27.4884 19.2053 27.1986 18.8962C26.9023 18.5871 26.5481 18.3488 26.136 18.1749C25.7238 18.001 25.2666 17.9173 24.7707 17.9173C24.3006 17.9173 23.8562 18.0075 23.4441 18.1814C23.0319 18.3617 22.6713 18.6 22.3686 18.9026C22.0659 19.2053 21.8212 19.5659 21.6473 19.9781C21.467 20.3903 21.3833 20.8346 21.3833 21.3047C21.3833 21.7749 21.467 22.2192 21.6344 22.6314C21.8019 23.0435 22.0402 23.4042 22.3364 23.7069C22.6326 24.0095 22.9997 24.2543 23.4248 24.4281C23.8498 24.6085 24.3199 24.6986 24.8222 24.6986C26.2777 24.6986 27.1793 24.0353 27.7202 23.4171L26.4837 22.4768C26.2261 22.7859 25.6079 23.2045 24.8351 23.2045C24.3521 23.2045 23.9528 23.0951 23.6502 22.8697C23.3475 22.6507 23.1414 22.3416 23.0319 21.9616L23.0126 21.9037H28.1324V21.2919ZM23.0255 20.6929C23.0255 20.2164 23.5729 19.3856 24.7514 19.3792C25.9299 19.3792 26.4837 20.2099 26.4837 20.6865L23.0255 20.6929ZM32.6983 23.7391C32.6661 23.6618 32.621 23.5974 32.5631 23.5394C32.5051 23.4815 32.4407 23.4364 32.3634 23.4042C32.2862 23.372 32.2024 23.3527 32.1187 23.3527C32.0286 23.3527 31.9513 23.372 31.874 23.4042C31.7967 23.4364 31.7323 23.4815 31.6744 23.5394C31.6164 23.5974 31.5713 23.6618 31.5391 23.7391C31.5069 23.8163 31.4876 23.9001 31.4876 23.9838C31.4876 24.0739 31.5069 24.1512 31.5391 24.2285C31.5713 24.3058 31.6164 24.3702 31.6744 24.4281C31.7323 24.4861 31.7967 24.5312 31.874 24.5634C31.9513 24.5956 32.035 24.6149 32.1187 24.6149C32.2089 24.6149 32.2862 24.5956 32.3634 24.5634C32.4407 24.5312 32.5051 24.4861 32.5631 24.4281C32.621 24.3702 32.6661 24.3058 32.6983 24.2285C32.7305 24.1512 32.7498 24.0675 32.7498 23.9838C32.7498 23.9001 32.7305 23.8163 32.6983 23.7391ZM32.5953 24.1899C32.5695 24.2543 32.5309 24.3122 32.4858 24.3573C32.4407 24.4024 32.3828 24.441 32.3184 24.4668C32.254 24.4925 32.1896 24.5054 32.1123 24.5054C32.0414 24.5054 31.9706 24.4925 31.9062 24.4668C31.8418 24.441 31.7838 24.4024 31.7388 24.3573C31.6937 24.3122 31.655 24.2543 31.6293 24.1899C31.6035 24.1255 31.5906 24.0611 31.5906 23.9838C31.5906 23.9129 31.6035 23.8421 31.6293 23.7777C31.655 23.7133 31.6937 23.6553 31.7388 23.6103C31.7838 23.5652 31.8418 23.5265 31.9062 23.5008C31.9706 23.475 32.035 23.4621 32.1123 23.4621C32.1831 23.4621 32.254 23.475 32.3184 23.5008C32.3828 23.5265 32.4407 23.5652 32.4858 23.6103C32.5309 23.6553 32.5695 23.7133 32.5953 23.7777C32.621 23.8421 32.6339 23.9065 32.6339 23.9838C32.6339 24.0611 32.621 24.1255 32.5953 24.1899ZM32.2346 24.0417C32.2862 24.0353 32.3248 24.016 32.357 23.9838C32.3892 23.9516 32.4085 23.9065 32.4085 23.8421C32.4085 23.7713 32.3892 23.7197 32.3441 23.6811C32.3055 23.6425 32.2346 23.6231 32.1509 23.6231H31.8676V24.3509H32.0028V24.0546H32.0994L32.2797 24.3509H32.4214L32.2346 24.0417ZM32.1638 23.9323C32.1445 23.9323 32.1252 23.9323 32.0994 23.9323H32.0028V23.7262H32.0994C32.1187 23.7262 32.138 23.7262 32.1638 23.7262C32.1831 23.7262 32.2024 23.7326 32.2218 23.7391C32.2411 23.7455 32.254 23.7584 32.2604 23.7713C32.2733 23.7841 32.2733 23.8035 32.2733 23.8292C32.2733 23.855 32.2668 23.8743 32.2604 23.8872C32.2475 23.9001 32.2346 23.9129 32.2218 23.9194C32.2024 23.9258 32.1831 23.9323 32.1638 23.9323Z" fill="white"/>
</svg>
