<svg width="40" height="40" viewBox="0 0 40 40" fill="none" xmlns="http://www.w3.org/2000/svg">
<rect width="40" height="40" fill="#C8202F"/>
<path fill-rule="evenodd" clip-rule="evenodd" d="M30.7076 17.3941C30.1399 17.7559 29.4259 18.4349 28.686 19.2942C28.5754 18.3226 28.4551 17.3108 28.381 16.1548C28.2116 13.4526 28.2013 11.1967 28.6487 10.0422C28.9137 9.35381 28.6595 9.21922 28.2013 9.41738C26.2844 10.2363 23.4744 12.622 23.418 16.4554C23.3989 17.7937 23.7146 18.982 24.2215 19.9492C23.5422 20.5421 22.7179 20.452 22.0791 20.5743C21.7657 19.5287 21.4872 18.3092 20.4068 17.7165C18.6295 16.3997 16.3358 17.7201 14.553 18.9055C14.4552 18.0512 14.3566 17.1593 14.2923 16.1548C14.1226 13.4526 14.1114 11.1967 14.5591 10.0422C14.8244 9.35381 14.5706 9.21922 14.1114 9.41738C12.1952 10.2364 9.38494 12.6222 9.32896 16.4554C9.28789 19.3215 10.7667 21.5104 12.4238 22.2757C12.3745 22.3586 12.3199 22.4392 12.2679 22.5195C11.053 24.5342 10.7258 25.6005 10.4112 26.802C9.95541 28.5613 10.0956 30.4438 11.225 30.6818C12.769 31.0099 14.3578 28.2814 14.7086 25.6519C14.9945 23.4791 14.8772 21.8144 14.6886 20.0847C14.7094 20.0577 14.7382 20.0204 14.758 19.9969C14.9182 19.7993 15.0706 19.5956 15.2147 19.386C15.926 18.7101 16.7317 18.2961 17.4798 17.9608C18.3513 17.7511 19.2575 17.926 19.9193 18.4836C20.2324 18.8669 20.6859 19.3192 20.5109 19.8072C19.8142 19.6331 19.2575 19.1803 18.4903 19.2148C17.7584 19.1451 17.0269 19.2505 16.6438 19.9124C16.3999 20.4346 16.8174 20.9223 17.1661 21.3055C18.1421 22.4208 21.0685 20.7487 21.2428 22.7347C21.731 22.5599 21.696 21.8629 21.9052 21.4097C22.7692 21.0711 23.5793 20.9498 24.7134 20.7406C25.2303 21.4435 25.857 21.9726 26.5129 22.2758C26.464 22.3587 26.4099 22.4394 26.3573 22.5196C25.1417 24.5344 24.8156 25.6006 24.5006 26.8022C24.045 28.5615 24.1856 30.4439 25.3149 30.6819C26.858 31.0101 28.447 28.2816 28.7981 25.652C29.0844 23.4792 28.9667 21.8146 28.778 20.0848C28.7983 20.0579 28.8267 20.0206 28.8474 19.997C29.5428 19.1344 30.505 18.2688 30.8354 17.9261C31.0942 17.6517 31.1855 17.0891 30.7076 17.3941ZM13.6764 26.7928C13.4215 29.4437 12.2065 29.6814 11.6767 29.4861C11.0529 29.2547 10.8833 27.3366 11.8455 24.9048C12.3045 23.743 12.8845 22.7035 13.4208 21.8629C13.6399 23.6711 13.8086 25.4139 13.6764 26.7928ZM13.9863 10.3815C13.6352 11.183 12.9341 12.6966 12.8479 15.234C12.7891 16.9008 13.0566 18.9355 13.3075 20.9432C13.0978 21.2392 12.8939 21.5454 12.6908 21.8555C11.5135 21.0349 10.9275 19.2941 10.8459 16.6086C10.7179 12.5883 12.6756 10.6195 13.7533 10.1104C14.0161 9.98528 14.1545 10.0005 13.9863 10.3815ZM20.2324 20.9921C19.7451 21.166 18.9086 21.0612 18.4211 20.7486C18.2816 20.609 17.8982 20.3297 18.1423 20.0511C18.9433 19.5977 19.6404 20.0859 20.2324 20.7486V20.9921ZM27.7655 26.7928C27.5109 29.4437 26.296 29.6814 25.7666 29.4861C25.1417 29.2547 24.9725 27.3366 25.9342 24.9048C26.3944 23.743 26.9732 22.7035 27.5103 21.8629C27.7291 23.6711 27.8982 25.4139 27.7655 26.7928ZM28.075 10.3815C27.7239 11.183 27.0235 12.6966 26.9367 15.234C26.8787 16.9008 27.1456 18.9355 27.397 20.9432C27.1854 21.2432 26.9797 21.5473 26.7802 21.8555C25.6029 21.0349 25.0166 19.2941 24.9351 16.6086C24.8076 12.5883 26.7651 10.6195 27.8428 10.1104C28.1057 9.98528 28.2437 10.0005 28.075 10.3815Z" fill="white"/>
</svg>
