<svg width="40" height="40" viewBox="0 0 40 40" fill="none" xmlns="http://www.w3.org/2000/svg">
<rect width="40" height="40" fill="#0A4879"/>
<path fill-rule="evenodd" clip-rule="evenodd" d="M7.44338 16.8232H7.77747C8.04628 16.8232 8.2632 16.7974 8.42858 16.7425C8.59361 16.6896 8.73187 16.5754 8.84167 16.4034C8.95214 16.2306 9.00704 16.0184 9.00704 15.766C9.00704 15.38 8.9123 15.0968 8.72283 14.916C8.53369 14.7353 8.22672 14.6449 7.80157 14.6449C7.64557 14.6449 7.52607 14.6499 7.44338 14.6596V16.8232ZM7.44338 16.9909V17.9744C7.44338 18.3433 7.45242 18.584 7.46983 18.6975C7.48723 18.811 7.53343 18.8963 7.60942 18.9509C7.68508 19.0068 7.82835 19.0342 8.03825 19.0342H8.19357V19.1906H6.04643V19.0342H6.17096C6.37148 19.0342 6.51041 19.0081 6.5874 18.9593C6.6644 18.908 6.71394 18.829 6.7347 18.7219C6.75512 18.6165 6.76549 18.3687 6.76549 17.9784V15.691C6.76549 15.3191 6.75512 15.0804 6.7347 14.9723C6.71394 14.8642 6.66774 14.7902 6.59611 14.7487C6.5248 14.7075 6.36981 14.6871 6.13347 14.6871H6.04643V14.5304L6.63293 14.5066C7.10159 14.4876 7.46715 14.4785 7.7296 14.4785C8.21232 14.4785 8.58457 14.5163 8.84501 14.5913C9.10646 14.6677 9.32004 14.8009 9.48708 14.9944C9.65413 15.1859 9.73748 15.4292 9.73748 15.7225C9.73748 15.9772 9.6799 16.2012 9.56642 16.396C9.45294 16.5908 9.29024 16.7388 9.07801 16.8392C8.8651 16.94 8.49151 16.9909 7.95657 16.9909H7.44338ZM3.37586 14.5304H5.53472V14.6871H5.41789C5.18925 14.6871 5.03961 14.7058 4.96897 14.7433C4.89801 14.7818 4.8508 14.8521 4.82871 14.9546C4.80561 15.0583 4.7939 15.3037 4.7939 15.6907V17.2821C4.7939 17.6775 4.77883 17.9764 4.74803 18.183C4.71657 18.3892 4.6312 18.5904 4.48893 18.7865C4.34733 18.9814 4.15785 19.133 3.92185 19.2388C3.68518 19.3439 3.41067 19.3961 3.09734 19.3961C2.74551 19.3961 2.47435 19.3309 2.28488 19.2016C2.09507 19.0714 2 18.9158 2 18.737C2 18.6289 2.03381 18.5378 2.10177 18.4635C2.17006 18.3902 2.25341 18.354 2.35284 18.354C2.45427 18.354 2.5393 18.3865 2.60692 18.4525C2.67554 18.5184 2.70935 18.5998 2.70935 18.6962C2.70935 18.7534 2.69529 18.812 2.66751 18.8746C2.6424 18.9292 2.62968 18.9697 2.62968 18.9968C2.62968 19.0698 2.67253 19.1273 2.75923 19.1682C2.8466 19.2083 2.95373 19.2298 3.08194 19.2298C3.34238 19.2298 3.56131 19.1467 3.73974 18.981C3.91783 18.815 4.02496 18.6192 4.06178 18.3932C4.09793 18.1682 4.11668 17.7957 4.11668 17.2768V15.6887C4.11668 15.3181 4.1053 15.0794 4.08387 14.9716C4.06178 14.8642 4.01592 14.7899 3.94562 14.7487C3.87599 14.7075 3.72233 14.6871 3.48633 14.6871H3.37586V14.5304ZM15.3227 14.5303L13.6278 18.3864L11.9172 14.5303H10.4954V14.687H10.6233C10.8613 14.687 11.0153 14.7077 11.0849 14.7486C11.1556 14.7901 11.2018 14.8641 11.2239 14.9722C11.2456 15.0803 11.2567 15.32 11.2567 15.6909V17.7209C11.2567 18.1065 11.2426 18.3697 11.2142 18.5126C11.1874 18.6535 11.1107 18.7737 10.9845 18.8715C10.859 18.9685 10.6956 19.0234 10.4954 19.0342V19.1908H12.1739V19.0342C11.9583 19.0204 11.7899 18.9629 11.6708 18.8611C11.5516 18.759 11.481 18.6408 11.4579 18.5059C11.4348 18.3703 11.4237 18.1162 11.4237 17.7427V15.012L13.2776 19.1908H13.4447L15.2805 15.012V17.9783C15.2805 18.3687 15.2698 18.6164 15.2477 18.7228C15.2259 18.8293 15.1757 18.908 15.0994 18.9592C15.0217 19.008 14.8841 19.0342 14.6856 19.0342H14.5196V19.1908H16.7611V19.0342H16.5546C16.3433 19.0342 16.1997 19.0067 16.1251 18.9511C16.0508 18.8962 16.0042 18.8119 15.9861 18.6991C15.9677 18.5852 15.9587 18.3452 15.9587 17.9783V15.6909C15.9587 15.3039 15.9704 15.0582 15.9949 14.9545C16.019 14.852 16.0658 14.7821 16.1371 14.7432C16.2081 14.7057 16.3587 14.687 16.589 14.687H16.7611V14.5303H15.3227ZM17.6364 17.3864C17.6364 17.9628 17.7502 18.395 17.9798 18.6849C18.2081 18.9731 18.5513 19.1174 19.0089 19.1174C19.4106 19.1174 19.7279 18.9731 19.9606 18.6849C20.1936 18.395 20.3108 17.9648 20.3108 17.3917C20.3108 16.8347 20.1959 16.4069 19.9663 16.1103C19.7363 15.814 19.4036 15.665 18.967 15.665C18.5369 15.665 18.2081 15.81 17.9798 16.1006C17.7502 16.3898 17.6364 16.8179 17.6364 17.3864ZM17.0261 17.3676C17.0261 16.8149 17.2109 16.3707 17.5805 16.0356C17.95 15.7012 18.4107 15.5338 18.9627 15.5338C19.5201 15.5338 19.9857 15.6992 20.3603 16.0306C20.7336 16.362 20.9207 16.8139 20.9207 17.3864C20.9207 17.9414 20.7413 18.3903 20.3841 18.7338C20.0255 19.0782 19.5545 19.2493 18.9711 19.2493C18.4026 19.2493 17.9363 19.0782 17.5728 18.7338C17.2082 18.3903 17.0261 17.9344 17.0261 17.3676ZM22.8793 17.3197C22.7394 17.3267 22.6055 17.3314 22.4753 17.3354V15.6945C22.558 15.6874 22.6326 15.6841 22.6969 15.6841C23.1137 15.6841 23.3848 15.7601 23.5087 15.9117C23.6329 16.063 23.6951 16.2649 23.6951 16.5173C23.6951 16.6622 23.6764 16.7838 23.6399 16.8829C23.6041 16.9806 23.5542 17.0616 23.4906 17.1225C23.4273 17.1828 23.3443 17.2287 23.2415 17.2611C23.1388 17.2936 23.0183 17.313 22.8793 17.3197ZM24.2087 19.184H25.1677V19.0615C24.9582 19.0548 24.7767 18.9945 24.6228 18.8827C24.4691 18.7686 24.2582 18.5319 23.9877 18.1687C23.656 17.7204 23.4156 17.4603 23.2653 17.3897C23.5977 17.3492 23.8485 17.2454 24.0199 17.08C24.1906 16.9137 24.2763 16.7138 24.2763 16.4788C24.2763 16.2776 24.2107 16.1045 24.0794 15.9599C23.9472 15.8153 23.7738 15.7115 23.5612 15.6469C23.3477 15.584 23.0705 15.5525 22.7287 15.5525C22.5292 15.5525 22.2587 15.5602 21.9169 15.5746L21.4054 15.5991V15.7219H21.4677C21.6518 15.7219 21.7723 15.7373 21.8275 15.7688C21.8828 15.8006 21.9189 15.8575 21.9346 15.9402C21.951 16.0232 21.9597 16.2073 21.9597 16.4929V18.2503C21.9597 18.55 21.951 18.7401 21.9346 18.8218C21.9192 18.9045 21.8818 18.9647 21.8225 19.0039C21.7629 19.0427 21.6568 19.0615 21.5028 19.0615H21.3866V19.184H23.1043V19.0615H22.9309C22.7689 19.0615 22.6587 19.041 22.6011 18.9989C22.5439 18.957 22.5081 18.8921 22.4947 18.8054C22.482 18.7197 22.4753 18.5356 22.4753 18.2554V17.4667H22.6172C22.7136 17.4667 22.7836 17.4824 22.8298 17.5152C22.875 17.5474 22.958 17.6381 23.0795 17.7857C23.2004 17.933 23.3169 18.087 23.4293 18.248C23.7792 18.7525 24.0396 19.0631 24.2087 19.184ZM27.6488 17.6534H29.1977V17.7753C29.027 17.7753 28.9105 17.794 28.8506 17.8282C28.789 17.8623 28.7485 17.9195 28.7291 18.0002C28.71 18.0809 28.7003 18.2757 28.7003 18.585V18.9677C28.6588 18.9606 28.6196 18.957 28.5868 18.957C28.4512 18.957 28.2735 18.9988 28.0539 19.0808C27.7546 19.1933 27.4771 19.2495 27.2223 19.2495C26.7098 19.2495 26.2837 19.0802 25.9442 18.7424C25.6048 18.4053 25.4344 17.9785 25.4344 17.4599C25.4344 16.9477 25.5977 16.4978 25.9221 16.1125C26.2475 15.7265 26.6884 15.5341 27.2461 15.5341C27.7261 15.5341 28.1228 15.7091 28.4375 16.0606C28.4977 15.9361 28.5339 15.8005 28.5496 15.6562H28.6722V16.8563H28.5496C28.4991 16.4898 28.3592 16.1999 28.1312 15.9853C27.9032 15.7727 27.6264 15.6649 27.2996 15.6649C26.9632 15.6649 26.6703 15.7905 26.4202 16.0402C26.1702 16.2893 26.0456 16.7328 26.0456 17.3705C26.0456 18.0056 26.1655 18.4548 26.4052 18.7206C26.6459 18.9851 26.9431 19.1173 27.2996 19.1173C27.4824 19.1173 27.6485 19.0802 27.7974 19.0048C27.9471 18.9305 28.0492 18.8395 28.1024 18.7317C28.1573 18.6235 28.1847 18.4876 28.1847 18.3233C28.1847 18.1314 28.171 18.0026 28.1452 17.9393C28.1201 17.8747 28.0803 17.8315 28.0271 17.8091C27.9742 17.7873 27.8761 17.7753 27.7345 17.7753H27.6488V17.6534ZM31.1184 16.213L31.743 17.7288H30.4927L31.1184 16.213ZM30.4382 17.8607H31.7973L32.0704 18.5248C32.1518 18.717 32.1923 18.8328 32.1923 18.8713C32.1923 18.9466 32.1618 18.9975 32.1012 19.0233C32.0406 19.0484 31.9241 19.0615 31.7521 19.0615V19.184H33.1591V19.0615C33.0342 19.0494 32.9405 19.0196 32.8775 18.9694C32.8156 18.9219 32.7657 18.8553 32.7279 18.7709L32.5649 18.3963L31.3718 15.5525H31.267L30.2209 18.0341C30.1456 18.2129 30.1024 18.315 30.0907 18.3414C29.9812 18.6223 29.8871 18.8057 29.8095 18.8934C29.7305 18.9808 29.6123 19.036 29.4533 19.0615V19.184H30.5319V19.0615C30.4157 19.0615 30.3213 19.0343 30.2477 18.9784C30.1744 18.9225 30.1382 18.8415 30.1382 18.7331C30.1382 18.633 30.2068 18.4181 30.3441 18.088L30.4382 17.8607ZM36.831 19.2676L34.2889 15.9053V18.3922C34.2889 18.5988 34.2989 18.735 34.3186 18.8003C34.3391 18.8646 34.396 18.9251 34.4907 18.9794C34.5858 19.0343 34.7281 19.0617 34.9179 19.0617V19.1839H33.5852V19.0617C33.7546 19.0493 33.8841 19.0185 33.9735 18.9677C34.0629 18.9178 34.1151 18.8636 34.1322 18.8053C34.1493 18.7471 34.157 18.6095 34.157 18.3932V16.4931C34.157 16.2183 34.1442 16.0338 34.1185 15.9401C34.093 15.848 34.0525 15.7875 33.9966 15.761C33.9404 15.7346 33.8155 15.7218 33.623 15.7218V15.599H34.6919L36.8129 18.4043V16.2601C36.8129 16.1021 36.7969 15.991 36.7641 15.9274C36.7319 15.8638 36.6646 15.8142 36.5649 15.7767C36.4641 15.7396 36.3436 15.7218 36.2027 15.7218V15.599H37.4978V15.7218C37.3475 15.7336 37.2297 15.763 37.144 15.8085C37.058 15.8537 37.0021 15.9086 36.9796 15.9732C36.9559 16.0382 36.9438 16.1473 36.9438 16.3006V19.2676H36.831ZM34.1297 24.7171C33.9098 24.4387 33.7995 24.0237 33.7995 23.47C33.7995 22.9241 33.9098 22.513 34.1297 22.2352C34.3489 21.9561 34.6646 21.8169 35.0774 21.8169C35.4963 21.8169 35.8172 21.96 36.0365 22.2445C36.2583 22.5294 36.3679 22.9402 36.3679 23.4752C36.3679 24.0256 36.256 24.4387 36.032 24.7171C35.8082 24.9939 35.5031 25.1325 35.1176 25.1325C34.6785 25.1325 34.3489 24.9939 34.1297 24.7171ZM33.7458 22.1728C33.3915 22.4946 33.2134 22.9213 33.2134 23.452C33.2134 23.9963 33.3886 24.4342 33.739 24.7641C34.0885 25.0949 34.5357 25.2592 35.0816 25.2592C35.6423 25.2592 36.094 25.0949 36.4374 24.7641C36.7814 24.4342 36.9534 24.0031 36.9534 23.47C36.9534 22.9203 36.7749 22.4863 36.4158 22.168C36.057 21.8497 35.6086 21.6909 35.0745 21.6909C34.5444 21.6909 34.1007 21.8516 33.7458 22.1728ZM5.90459 23.5359H6.05473V25.108H5.90459C5.86504 24.9292 5.79335 24.7717 5.6895 24.6344C5.29792 25.0781 4.79767 25.298 4.18908 25.298C3.54576 25.298 3.02011 25.0938 2.61213 24.6849C2.20415 24.2763 2 23.7358 2 23.0633C2 22.6215 2.09388 22.2052 2.28195 21.8152C2.47003 21.4246 2.73334 21.1353 3.07059 20.9462C3.40752 20.7575 3.77692 20.6627 4.17911 20.6627C4.51122 20.6627 4.81375 20.7311 5.0838 20.8681C5.35386 21.0044 5.55576 21.1558 5.6895 21.322C5.78563 21.1359 5.84511 20.9427 5.86376 20.7434H6.01454L6.05473 22.4351H5.90459C5.80589 21.8348 5.60527 21.415 5.30114 21.1783C4.99861 20.9417 4.65621 20.8234 4.27459 20.8234C3.80874 20.8234 3.43806 21.0131 3.16286 21.3944C2.88765 21.7747 2.75166 22.3193 2.75166 23.0279C2.75166 23.6989 2.89955 24.2136 3.20015 24.5724C3.50171 24.9292 3.87529 25.108 4.32057 25.108C4.55944 25.108 4.8041 25.0504 5.05358 24.9334C5.30306 24.8167 5.50079 24.6193 5.6461 24.3419C5.79238 24.0641 5.87822 23.7956 5.90459 23.5359ZM7.88801 23.4569H9.68068V24.2892C9.68068 24.5779 9.67361 24.7615 9.65882 24.8403C9.64306 24.9187 9.60706 24.9766 9.5508 25.0142C9.49485 25.0515 9.39455 25.0698 9.24987 25.0698H9.13156V25.1872H10.6902V25.0698H10.6124C10.4584 25.0698 10.3545 25.0502 10.2976 25.0094C10.2427 24.9685 10.2083 24.9068 10.1964 24.8229C10.1835 24.7387 10.1768 24.5612 10.1768 24.2908V22.6036C10.1768 22.3175 10.1854 22.1365 10.2038 22.06C10.2211 21.9844 10.2562 21.9326 10.3089 21.9044C10.3597 21.8764 10.47 21.8622 10.6407 21.8622H10.6902V21.7455H9.13156V21.8622H9.22222C9.39551 21.8622 9.50771 21.878 9.55851 21.9079C9.60963 21.9391 9.64306 21.9937 9.65882 22.0725C9.67361 22.1522 9.68068 22.3291 9.68068 22.6036V23.2858H7.88801V22.6036C7.88801 22.3175 7.89605 22.1365 7.91502 22.06C7.93206 21.9844 7.96839 21.9326 8.02143 21.9044C8.07416 21.8764 8.1854 21.8622 8.35547 21.8622H8.41945V21.7455H6.86018V21.8622H6.92416C7.09938 21.8622 7.21383 21.878 7.26495 21.9079C7.31703 21.9391 7.3524 21.9937 7.36815 22.0725C7.38326 22.1522 7.39194 22.3291 7.39194 22.6036V24.2908C7.39194 24.5789 7.38326 24.7625 7.36815 24.8412C7.3524 24.9194 7.3151 24.9775 7.25723 25.0142C7.20001 25.0515 7.09809 25.0698 6.9502 25.0698H6.86018V25.1872H8.41945V25.0698H8.32975C8.17382 25.0698 8.06773 25.0502 8.01147 25.0094C7.95745 24.9685 7.92145 24.9062 7.90827 24.8223C7.89573 24.7387 7.88801 24.5606 7.88801 24.2892V23.4569ZM13.2307 23.791L12.6311 22.3349L12.0299 23.791H13.2307ZM13.2818 23.9173H11.9784L11.8871 24.1363C11.7556 24.4523 11.6901 24.6584 11.6901 24.7548C11.6901 24.858 11.7241 24.9371 11.7952 24.9898C11.8656 25.0432 11.9563 25.0699 12.0681 25.0699V25.1869H11.031V25.0699C11.1847 25.0461 11.2985 24.9924 11.374 24.9088C11.4483 24.8252 11.5386 24.6474 11.6451 24.378L11.659 24.3448L11.659 24.3447C11.6784 24.2982 11.7149 24.211 11.7688 24.0839L12.7735 21.6993H12.8745L14.0206 24.4304L14.1768 24.7908C14.2122 24.8712 14.2608 24.9361 14.3209 24.9831C14.3807 25.0291 14.4704 25.058 14.5909 25.0699V25.1869H13.2394V25.0699C13.404 25.0699 13.5168 25.0574 13.5747 25.0339C13.6325 25.0085 13.6624 24.9596 13.6624 24.8882C13.6624 24.8506 13.6235 24.7397 13.5451 24.5545L13.2818 23.9173ZM15.0302 24.0423V25.1518H15.1562C15.1832 25.0071 15.2247 24.8953 15.2806 24.8165C15.533 25.1052 15.8487 25.2505 16.2274 25.2505C16.556 25.2505 16.8183 25.1582 17.0144 24.9737C17.2125 24.7895 17.3105 24.55 17.3105 24.2558C17.3105 24.0697 17.2688 23.9063 17.1887 23.7633C17.1064 23.6212 16.9981 23.5096 16.8633 23.4292C16.7286 23.3489 16.5123 23.2418 16.2162 23.109C15.9066 22.9701 15.6908 22.8441 15.5725 22.7335C15.4516 22.6252 15.3906 22.4917 15.3906 22.3339C15.3906 22.203 15.4391 22.0825 15.5349 21.9729C15.6317 21.8632 15.7831 21.8086 15.9892 21.8086C16.2059 21.8086 16.3969 21.8828 16.5608 22.032C16.7254 22.1812 16.8402 22.3866 16.9051 22.6461H17.0122V21.7456H16.9051C16.8949 21.8536 16.8508 21.9542 16.772 22.0468C16.6364 21.8983 16.5042 21.7996 16.3753 21.7529C16.2461 21.7054 16.1088 21.6816 15.9622 21.6816C15.6998 21.6816 15.4844 21.7636 15.3134 21.9269C15.1424 22.0905 15.0575 22.2943 15.0575 22.5397C15.0575 22.7004 15.0964 22.8515 15.1745 22.9942C15.2533 23.1367 15.3636 23.2514 15.5034 23.3402C15.6429 23.4292 15.8506 23.5331 16.1271 23.6514C16.4367 23.7832 16.6499 23.9063 16.7656 24.0211C16.8823 24.1378 16.9399 24.2828 16.9399 24.4548C16.9399 24.6255 16.874 24.7792 16.7412 24.9174C16.609 25.0544 16.4203 25.1238 16.1792 25.1238C15.6417 25.1238 15.2999 24.7638 15.1562 24.0423H15.0302ZM20.693 24.1147H20.8104L20.7355 25.1869H17.8999V25.0702H17.9712C18.14 25.0702 18.2503 25.0474 18.2992 25.0014C18.3493 24.9558 18.3795 24.8976 18.3937 24.8281C18.4065 24.758 18.4133 24.579 18.4133 24.2909V22.6037C18.4133 22.3404 18.4065 22.1681 18.3921 22.0854C18.377 22.0022 18.3438 21.9443 18.293 21.9118C18.24 21.8784 18.1304 21.862 17.9629 21.862V21.7456H20.4133L20.4953 22.6002H20.3783C20.3233 22.3616 20.258 22.1915 20.1796 22.0919C20.1018 21.9909 20.0098 21.9276 19.9015 21.9015C19.7941 21.8752 19.6215 21.862 19.3826 21.862H18.9097V23.3039H19.272C19.4385 23.3039 19.5549 23.2898 19.6205 23.2615C19.6874 23.2325 19.7308 23.1891 19.7517 23.1309C19.7735 23.0724 19.7832 22.9589 19.7832 22.7905H19.8999V23.9614H19.7832C19.7832 23.7707 19.7678 23.6431 19.7356 23.5772C19.7038 23.5129 19.6581 23.4701 19.5961 23.4502C19.5343 23.4315 19.4308 23.4213 19.2845 23.4213H18.9097V24.235C18.9097 24.642 18.9348 24.8821 18.9881 24.9532C19.0409 25.0255 19.1813 25.0612 19.4112 25.0612H19.6658C19.8465 25.0612 19.9954 25.04 20.1124 24.9982C20.2272 24.9558 20.3387 24.8632 20.4439 24.7182C20.549 24.5738 20.6329 24.3729 20.693 24.1147ZM24.7773 21.4188C24.7773 21.7306 24.5487 22.02 24.0886 22.2878C23.8079 21.901 23.6668 21.595 23.6668 21.3712C23.6668 21.2079 23.7163 21.0713 23.8166 20.9623C23.9179 20.853 24.051 20.798 24.2172 20.798C24.385 20.798 24.5217 20.8542 24.6242 20.9687C24.7271 21.0835 24.7773 21.2336 24.7773 21.4188ZM23.1846 23.2201C23.3154 23.0237 23.5025 22.8517 23.7449 22.7048C24.0941 23.162 24.5111 23.758 24.9949 24.4962C24.7229 24.8141 24.4265 24.9729 24.1044 24.9729C23.8157 24.9729 23.5575 24.8466 23.3289 24.5939C23.1 24.3428 22.9859 24.0744 22.9859 23.7914C22.9859 23.6082 23.0511 23.4175 23.1846 23.2201ZM26.7104 22.3788H25.229V22.5395C25.5913 22.5807 25.7726 22.7331 25.7726 22.9964C25.7726 23.107 25.7327 23.2597 25.6585 23.4552C25.582 23.6513 25.4781 23.8416 25.3479 24.0245C24.9833 23.5076 24.5972 22.9719 24.1863 22.4183C24.8473 22.0856 25.1785 21.7429 25.1785 21.3883C25.1785 21.1616 25.0782 20.9777 24.8792 20.8372C24.6776 20.6974 24.4538 20.6266 24.206 20.6266C23.9275 20.6266 23.6964 20.7205 23.5115 20.9076C23.3279 21.0954 23.236 21.3082 23.236 21.5477C23.236 21.8502 23.3707 22.1891 23.6408 22.564C23.1926 22.862 22.8897 23.1102 22.7322 23.3063C22.5737 23.5031 22.4949 23.7455 22.4949 24.0348C22.4949 24.2872 22.558 24.5106 22.6856 24.7029C22.8123 24.8961 22.9762 25.0459 23.1788 25.1527C23.3804 25.2594 23.5906 25.3128 23.8121 25.3128C24.2645 25.3128 24.693 25.0884 25.0981 24.6376C25.4395 25.0884 25.8343 25.3128 26.2848 25.3128C26.4912 25.3128 26.6741 25.2549 26.8319 25.1392C26.9892 25.0237 27.093 24.8714 27.1406 24.682H26.9808C26.8641 24.8887 26.6966 24.9926 26.4799 24.9926C26.3211 24.9926 26.1719 24.9456 26.0311 24.8508C25.8909 24.7556 25.6971 24.5325 25.4508 24.1795C25.5543 24.0412 25.6688 23.8271 25.7922 23.5333C25.9398 23.1777 26.0832 22.9356 26.2227 22.8077C26.3613 22.6791 26.5243 22.5894 26.7104 22.5395V22.3788ZM32.2203 23.5207H32.3704V25.0925H32.2203C32.1808 24.9144 32.1081 24.7566 32.0052 24.6193C31.6136 25.062 31.1121 25.2829 30.5054 25.2829C29.8621 25.2829 29.3362 25.0787 28.9275 24.6701C28.5192 24.2608 28.3151 23.7201 28.3151 23.0475C28.3151 22.6054 28.4096 22.1891 28.598 21.7998C28.7854 21.4095 29.0494 21.1201 29.3863 20.9308C29.7226 20.7424 30.092 20.6475 30.4948 20.6475C30.8276 20.6475 31.1295 20.715 31.3995 20.8526C31.6693 20.9886 31.8715 21.1407 32.0052 21.3066C32.1017 21.1201 32.1602 20.9275 32.1808 20.7273H32.3299L32.3704 22.4193H32.2203C32.1216 21.8191 31.921 21.4001 31.6169 21.1632C31.314 20.9256 30.9716 20.8073 30.5906 20.8073C30.1238 20.8073 29.7544 20.9976 29.4786 21.3789C29.2037 21.7586 29.0674 22.3035 29.0674 23.0128C29.0674 23.6841 29.2175 24.1988 29.5168 24.5569C29.8165 24.9135 30.1897 25.0925 30.6366 25.0925C30.8755 25.0925 31.1198 25.0343 31.3696 24.9173C31.6188 24.8016 31.8178 24.6048 31.9618 24.3271C32.1081 24.049 32.1943 23.7802 32.2203 23.5207ZM37.3541 24.6449C37.2792 24.7185 37.2422 24.8072 37.2422 24.9108C37.2422 25.0114 37.2792 25.0998 37.3519 25.1766C37.4252 25.2528 37.5142 25.2914 37.62 25.2914C37.7222 25.2914 37.8119 25.2544 37.8875 25.1805C37.9624 25.1056 38 25.0168 38 24.9108C38 24.8072 37.9624 24.7185 37.8891 24.6449C37.8148 24.5706 37.7248 24.5343 37.62 24.5343C37.5161 24.5343 37.4274 24.5706 37.3541 24.6449Z" fill="white"/>
</svg>
