<svg width="40" height="40" viewBox="0 0 40 40" fill="none" xmlns="http://www.w3.org/2000/svg">
<g clip-path="url(#clip0_1270_35497)">
<path d="M40 0H0V40H40V0Z" fill="#E50001"/>
<path d="M33.5787 6.41992H6.41846V33.5802H33.5787V6.41992Z" fill="#E50001"/>
<path d="M24.9019 11.5918C26.8332 11.5918 28.4 19.7401 28.4 29.8033H31.2182C31.2182 18.9694 28.375 10.1992 24.8935 10.1992C22.9039 10.1992 21.1469 12.8269 19.9862 16.955C18.8259 12.827 17.0685 10.1992 15.0957 10.1992C11.6142 10.1992 8.7793 18.961 8.7793 29.795H11.5977C11.5977 19.7319 13.1477 11.5918 15.0791 11.5918C17.0105 11.5918 18.5771 19.1185 18.5771 28.4024H21.3789C21.3789 19.1184 22.9537 11.5918 24.8854 11.5918" fill="#FFCC00"/>
</g>
<defs>
<clipPath id="clip0_1270_35497">
<rect width="40" height="40" fill="white"/>
</clipPath>
</defs>
</svg>
