<svg width="40" height="40" viewBox="0 0 40 40" fill="none" xmlns="http://www.w3.org/2000/svg">
<g clip-path="url(#clip0_1270_35681)">
<rect width="40" height="40" fill="white"/>
<mask id="mask0_1270_35681" style="mask-type:luminance" maskUnits="userSpaceOnUse" x="-31" y="-580" width="548" height="711">
<path d="M-30.9448 130.818H516.236V-579.7H-30.9448V130.818Z" fill="white"/>
</mask>
<g mask="url(#mask0_1270_35681)">
<path d="M28.0906 12.8537L26.0799 21.0331L24.0634 12.8537H18.2393V15.8741C17.5317 13.2309 14.9354 12.568 12.6156 12.5304C9.78705 12.4934 6.65296 13.7191 6.54425 17.4592H10.4564C10.4564 16.3302 11.4902 15.6836 12.4664 15.7C13.665 15.69 14.2164 16.2016 14.2441 16.9981C14.2029 17.6894 13.7951 18.1705 12.4763 18.1705H11.1605V20.8846H12.3549C13.0334 20.8846 13.9777 21.2541 14.0146 22.2204C14.0601 23.3721 13.2593 23.878 12.2739 23.888C10.5146 23.8226 10.0606 22.4712 10.0606 21.3088H6C6.01705 22.0918 5.99147 27.1954 12.3556 27.1578C15.4044 27.1855 17.6233 25.9037 18.2493 24.1366V26.8451H22.1657V18.0205L24.3313 26.8451H27.8306L30.0041 18.0305V26.853H34V12.8537H28.0906ZM18.2521 21.0139C17.7533 19.9823 17.0514 19.5311 16.6563 19.3883C17.4855 19.0195 17.9196 18.5193 18.2521 17.5225V21.0139Z" fill="#FF0000"/>
</g>
</g>
<defs>
<clipPath id="clip0_1270_35681">
<rect width="40" height="40" fill="white"/>
</clipPath>
</defs>
</svg>
