<svg width="40" height="40" viewBox="0 0 40 40" fill="none" xmlns="http://www.w3.org/2000/svg">
<rect width="40" height="39.9991" fill="white"/>
<path d="M13.9995 14C13.9995 10.6861 16.6861 8 19.9995 8C23.3139 8 25.9995 10.6861 25.9995 14H13.9995ZM13.9995 25.9995C13.9995 22.6861 16.6861 19.9995 19.9995 19.9995C16.6861 19.9995 13.9995 17.3139 13.9995 14C10.6861 14 8 16.6861 8 19.9995C8 23.3139 10.6861 25.9995 13.9995 25.9995ZM13.9995 25.9995C13.9995 29.3139 16.6861 31.9995 19.9995 31.9995C23.3139 31.9995 25.9995 29.3139 25.9995 25.9995H13.9995ZM19.9995 19.9995C23.3139 19.9995 25.9995 22.6861 25.9995 25.9995C29.3134 25.9995 32 23.3139 32 19.9995C32 16.6861 29.3134 14 25.9995 14C25.9995 17.3139 23.3139 19.9995 19.9995 19.9995Z" fill="#007A73"/>
</svg>
