<svg width="40" height="40" viewBox="0 0 40 40" fill="none" xmlns="http://www.w3.org/2000/svg">
<rect width="40" height="40" fill="black"/>
<path d="M11.3139 25.3295C10.5988 25.2985 10.0137 25.085 9.55625 24.6885C9.46895 24.6127 9.26091 24.3856 9.19111 24.2898C9.0056 24.0352 8.87948 23.7875 8.79536 23.5127C8.5365 22.6666 8.66972 21.5564 9.17642 20.338C9.61025 19.2949 10.2797 18.2603 11.4476 16.8275C11.6196 16.6166 12.132 16 12.1353 16C12.1365 16 12.1086 16.0528 12.0734 16.117C11.7698 16.6721 11.5099 17.3258 11.3684 17.8918C11.141 18.8 11.1684 19.5794 11.4487 20.1837C11.642 20.6 11.9735 20.9607 12.3462 21.16C12.9988 21.5089 13.9541 21.5377 15.1208 21.2444C15.2011 21.2241 19.1815 20.0712 23.966 18.6823C28.7506 17.2932 32.6659 16.1577 32.6665 16.1586C32.6678 16.1598 21.5506 21.3507 15.7795 24.0436C14.8655 24.47 14.6211 24.5777 14.1914 24.7423C13.0931 25.1632 12.1092 25.364 11.3139 25.3295Z" fill="white"/>
</svg>
