<svg width="40" height="40" viewBox="0 0 40 40" fill="none" xmlns="http://www.w3.org/2000/svg">
<g clip-path="url(#clip0_1270_35687)">
<rect width="40" height="40" fill="white"/>
<path d="M20 40C31.0457 40 40 31.0457 40 20C40 8.9543 31.0457 0 20 0C8.9543 0 0 8.9543 0 20C0 31.0457 8.9543 40 20 40Z" fill="url(#paint0_radial_1270_35687)"/>
<path d="M5.31111 19.9954C5.31111 10.8342 11.0944 3.02313 19.2111 0.0175781C8.53333 0.434245 0 9.21758 0 20.0009C0 30.7954 8.55 39.5898 19.2444 39.9842C11.1167 36.9842 5.31111 29.1676 5.31111 19.9954Z" fill="url(#paint1_radial_1270_35687)"/>
<mask id="mask0_1270_35687" style="mask-type:luminance" maskUnits="userSpaceOnUse" x="0" y="0" width="20" height="40">
<path d="M5.31111 19.9954C5.31111 10.8342 11.0944 3.02313 19.2111 0.0175781C8.53333 0.434245 0 9.21758 0 20.0009C0 30.7954 8.55 39.5898 19.2444 39.9842C11.1167 36.9842 5.31111 29.1676 5.31111 19.9954Z" fill="url(#paint2_radial_1270_35687)"/>
</mask>
<g mask="url(#mask0_1270_35687)">
<path d="M5.31111 19.9954C5.31111 10.8342 11.0944 3.02313 19.2111 0.0175781C8.53333 0.434245 0 9.21758 0 20.0009C0 30.7954 8.55 39.5898 19.2444 39.9842C11.1167 36.9842 5.31111 29.1676 5.31111 19.9954Z" fill="url(#paint3_radial_1270_35687)"/>
</g>
<path d="M19.661 18.0928C20.9888 14.8205 18.5055 13.9316 16.8888 13.9316H11.5332C11.9777 14.2372 11.9055 14.6428 11.8166 14.8928L8.69436 24.865C8.57214 25.2594 8.10547 25.6761 7.85547 25.7372H12.1888C11.9499 25.6927 11.611 25.3539 11.7332 24.8928L12.8666 21.2872C12.8721 21.2872 18.0832 21.9928 19.661 18.0928ZM15.4499 14.8483C16.0166 14.8483 17.5888 14.9261 16.5721 17.8983C15.511 21.0205 13.1555 20.3761 13.1555 20.3761L14.8888 14.8483H15.4499Z" fill="white"/>
<path d="M23.1279 25.7433H26.0445C25.1112 25.4433 23.7334 24.56 23.1834 23.9322C23.6279 23.4489 24.1779 22.8378 24.2779 21.5989H22.7668C22.7668 21.5989 23.0557 21.7656 23.0557 22.1211C23.0557 22.4489 22.9223 22.9044 22.6668 23.2211C22.2223 22.5656 21.7501 21.8156 21.5834 20.7156C22.1779 20.4211 23.0112 20.0989 23.6723 19.5211C24.3001 18.9711 24.4445 18.4489 24.4557 18.11V18.0656C24.4557 17.71 24.3168 17.3767 24.0612 17.1267C23.6223 16.6933 22.9334 16.5156 22.2057 16.6489C21.6223 16.76 21.1279 17.0711 20.8779 17.2989C20.0001 18.1267 19.889 19.4878 19.889 20.1044C19.889 20.2544 19.8945 20.3656 19.9001 20.4322C19.8501 20.4544 19.7612 20.4878 19.7612 20.4878C19.1168 20.7267 17.4001 21.1822 16.789 22.5933C16.7112 22.7711 16.6001 23.16 16.6001 23.61C16.6001 23.9989 16.6834 24.4322 16.9334 24.8267C17.3668 25.5044 18.1001 25.9322 19.2779 25.91C20.5557 25.8878 21.8168 25.0156 22.039 24.8544C22.2557 25.06 22.8279 25.5989 23.1279 25.7433ZM23.1279 17.8544C22.9779 18.8044 21.7445 19.7656 21.4445 19.8933C21.389 19.36 21.4168 18.5156 21.8612 17.8267C22.1557 17.3711 22.5501 17.1711 22.8668 17.2822C23.1223 17.3711 23.1501 17.6044 23.1279 17.8544ZM21.4168 24.21C21.2445 24.3156 20.5668 24.66 19.9334 24.7211C19.3445 24.7767 18.3668 24.5489 18.3723 23.3711C18.3723 22.3656 19.4668 21.6267 20.0612 21.3711C20.3001 22.3433 20.839 23.4433 21.4168 24.21Z" fill="white"/>
<path d="M31.9889 14.8603C33.7223 14.4437 35.15 15.7992 35.2778 15.8937L35.7723 14.3214C35.0889 14.1159 30.1167 12.4325 26.6 16.4437C24.4389 18.9103 23.9112 23.9659 26.65 25.3214C29.5834 26.7714 32.8223 25.0992 33.0612 24.9825L34.4 20.7159C34.5445 20.1992 34.8723 19.8659 35.45 19.6492H30.7945C31.4723 19.9325 31.4223 20.4437 31.3723 20.6548L30.0334 24.9214C29.8556 24.9548 26.1112 25.8881 28.2056 19.3381C28.6667 17.9325 29.9278 15.3548 31.9889 14.8603Z" fill="white"/>
</g>
<defs>
<radialGradient id="paint0_radial_1270_35687" cx="0" cy="0" r="1" gradientUnits="userSpaceOnUse" gradientTransform="translate(8.48315 7.78389) scale(37.3507)">
<stop stop-color="#00A1DF"/>
<stop offset="0.13" stop-color="#0092D7"/>
<stop offset="0.37" stop-color="#006CC1"/>
<stop offset="0.62" stop-color="#003DA6"/>
<stop offset="0.73" stop-color="#043799"/>
<stop offset="0.93" stop-color="#102777"/>
<stop offset="1" stop-color="#152169"/>
</radialGradient>
<radialGradient id="paint1_radial_1270_35687" cx="0" cy="0" r="1" gradientUnits="userSpaceOnUse" gradientTransform="translate(5.76404 3.08482) scale(61.93 61.93)">
<stop offset="0.02" stop-color="white"/>
<stop offset="0.03" stop-color="#FBFEFF"/>
<stop offset="0.09" stop-color="#BAE7F9"/>
<stop offset="0.14" stop-color="#87D5F4"/>
<stop offset="0.19" stop-color="#63C9F1"/>
<stop offset="0.23" stop-color="#4CC1EF"/>
<stop offset="0.26" stop-color="#44BEEE"/>
<stop offset="0.28" stop-color="#37B8EB"/>
<stop offset="0.35" stop-color="#19ACE5"/>
<stop offset="0.41" stop-color="#07A4E0"/>
<stop offset="0.45" stop-color="#00A1DF"/>
<stop offset="0.79" stop-color="#0045AB"/>
<stop offset="0.82" stop-color="#003DA6"/>
<stop offset="0.96" stop-color="#0059B6"/>
</radialGradient>
<radialGradient id="paint2_radial_1270_35687" cx="0" cy="0" r="1" gradientUnits="userSpaceOnUse" gradientTransform="translate(16.7771 19.3914) rotate(-88.2324) scale(21.5407 21.9201)">
<stop offset="0.1" stop-color="white"/>
<stop offset="0.35" stop-color="#FDFDFD"/>
<stop offset="0.45" stop-color="#F6F6F6"/>
<stop offset="0.51" stop-color="#EAEAEA"/>
<stop offset="0.57" stop-color="#D9D9D9"/>
<stop offset="0.62" stop-color="#C3C3C3"/>
<stop offset="0.66" stop-color="#A7A7A7"/>
<stop offset="0.7" stop-color="#868686"/>
<stop offset="0.73" stop-color="#606060"/>
<stop offset="0.77" stop-color="#353535"/>
<stop offset="0.8"/>
</radialGradient>
<radialGradient id="paint3_radial_1270_35687" cx="0" cy="0" r="1" gradientUnits="userSpaceOnUse" gradientTransform="translate(15.5588 16.0986) scale(25.1628 25.1628)">
<stop offset="0.32" stop-color="#44BEEE" stop-opacity="0"/>
<stop offset="0.48" stop-color="#2B99D9" stop-opacity="0.27"/>
<stop offset="0.67" stop-color="#1476C6" stop-opacity="0.58"/>
<stop offset="0.82" stop-color="#0561BA" stop-opacity="0.84"/>
<stop offset="0.92" stop-color="#0059B6"/>
</radialGradient>
<clipPath id="clip0_1270_35687">
<rect width="40" height="40" fill="white"/>
</clipPath>
</defs>
</svg>
