<svg width="40" height="40" viewBox="0 0 40 40" fill="none" xmlns="http://www.w3.org/2000/svg">
<rect width="40" height="40" fill="white"/>
<path fill-rule="evenodd" clip-rule="evenodd" d="M4.4797 16.5762H4.53329H4.54061C6.03617 15.7639 7.71716 15.3541 9.41873 15.3874C11.3414 15.3224 13.2371 15.8586 14.8409 16.9214H14.8945C14.9148 16.9279 14.9362 16.9279 14.956 16.9214C18.2787 14.8663 22.4779 14.8663 25.8007 16.9214H25.8621C25.8824 16.9279 25.9038 16.9279 25.9238 16.9214C27.5277 15.8584 29.4231 15.3221 31.3461 15.3874C33.0495 15.3497 34.7335 15.7566 36.2315 16.5684H36.2775C36.2908 16.5684 36.304 16.566 36.3162 16.5608C36.3668 16.5397 36.3909 16.4815 36.3698 16.4306C34.6092 12.4138 31.4018 9.20642 27.385 7.44585C18.5516 3.57416 8.25177 7.59689 4.38008 16.4306C4.37656 16.4458 4.37656 16.4615 4.38008 16.4766C4.38008 16.5316 4.42475 16.5762 4.4797 16.5762ZM21.2146 16.6069C21.2582 16.611 21.2915 16.6475 21.2912 16.6914L21.2991 30.9259C21.3096 32.3319 20.4053 33.5811 19.0664 34.0102C17.3762 34.5518 15.5669 33.6206 15.0255 31.9304C14.9368 31.5166 15.1576 31.0983 15.5496 30.9381C15.9965 30.7556 16.507 30.9698 16.6898 31.4167C16.8982 32.0049 17.4539 32.3979 18.0776 32.3982C18.8907 32.3982 19.5501 31.7393 19.5504 30.9262V16.6378C19.5504 16.5939 19.5837 16.5574 19.6273 16.5533C19.8698 16.5411 20.1132 16.5411 20.3557 16.5533C20.6429 16.5547 20.9296 16.5725 21.2146 16.6069Z" fill="#CB2D2F"/>
</svg>
