<svg width="40" height="40" viewBox="0 0 40 40" fill="none" xmlns="http://www.w3.org/2000/svg">
<rect width="40" height="40" fill="#0066F5"/>
<path d="M35.0709 19.2191H34.8001C34.7222 19.2191 34.6604 19.1573 34.6604 19.0794V17.9448H33.5623V19.0794C33.5623 19.1573 33.5008 19.2191 33.4226 19.2191H33.1521C33.0742 19.2191 33.0127 19.1573 33.0127 19.0794V16.5122C33.0127 16.4384 33.0742 16.373 33.1482 16.373H33.4268C33.5008 16.373 33.5623 16.4384 33.5623 16.5122V17.5441H34.6604V16.5122C34.6604 16.4384 34.7222 16.373 34.796 16.373H35.0748C35.1488 16.373 35.2106 16.4384 35.2106 16.5122V19.0794C35.2106 19.1573 35.1488 19.2191 35.0709 19.2191Z" fill="white"/>
<path d="M6.18321 19.2685C5.31022 19.2685 4.99854 18.7765 4.99854 18.1918V16.1595C4.99854 16.0765 5.06894 16 5.15355 16H5.40039C5.48471 16 5.55539 16.0765 5.55539 16.1595V18.2497C5.55539 18.7787 5.84788 18.9209 6.19546 18.9209C6.65547 18.9209 6.83552 18.6866 6.83552 18.2497V16.1595C6.83552 16.0765 6.90621 16 6.99053 16H7.2076C7.2922 16 7.36232 16.0765 7.36232 16.1595V18.1918C7.36232 18.868 6.95129 19.2685 6.18321 19.2685Z" fill="white"/>
<path d="M18.3058 16.7031H17.8188V18.8893H18.3058C18.9478 18.8893 19.1042 18.4021 19.1042 17.8124C19.1042 17.2229 18.9534 16.7031 18.3058 16.7031ZM18.4366 19.2191H17.4095C17.3357 19.2191 17.2739 19.1551 17.2739 19.0816V16.5147C17.2739 16.4409 17.3357 16.373 17.4095 16.373H18.4366C19.1123 16.373 19.6488 16.7357 19.6488 17.8124C19.6488 18.9055 19.0714 19.2191 18.4366 19.2191Z" fill="white"/>
<path d="M22.576 19.2196H22.3327C22.2451 19.2196 22.1758 19.1508 22.1758 19.0635V17.7633H20.8701V19.0635C20.8701 19.1508 20.801 19.2196 20.7128 19.2196H20.4696C20.3819 19.2196 20.3135 19.1508 20.3135 19.0635V16.1782C20.3135 16.0952 20.3819 16.0215 20.4651 16.0215H20.7181C20.801 16.0215 20.8701 16.0952 20.8701 16.1782V17.3534H22.1758V16.1782C22.1758 16.0952 22.2451 16.0215 22.3283 16.0215H22.5804C22.6631 16.0215 22.7326 16.0952 22.7326 16.1782V19.0635C22.7326 19.1508 22.6631 19.2196 22.576 19.2196Z" fill="white"/>
<path d="M30.2299 19.2194H28.8557C28.7781 19.2194 28.7163 19.1576 28.7163 19.0794V16.5122C28.7163 16.4384 28.7781 16.373 28.8518 16.373H29.1387C29.2128 16.373 29.2743 16.4384 29.2743 16.5122V18.8178H30.2299C30.3037 18.8178 30.3652 18.8838 30.3652 18.9572V19.0836C30.3652 19.1576 30.3037 19.2194 30.2299 19.2194Z" fill="white"/>
<path d="M11.6508 19.2194H11.3728C11.2946 19.2194 11.2334 19.1551 11.2334 19.0775V16.5147C11.2334 16.4409 11.2946 16.373 11.3689 16.373H11.655C11.7288 16.373 11.7903 16.441 11.7903 16.5147V19.0775C11.7903 19.1551 11.7288 19.2194 11.6508 19.2194Z" fill="white"/>
<path d="M14.2838 16.7746H13.6371V19.0775C13.6371 19.1551 13.5753 19.2194 13.4977 19.2194H13.2191C13.1418 19.2194 13.08 19.1551 13.08 19.0775V16.7746H12.4282C12.3545 16.7746 12.293 16.7137 12.293 16.6399V16.513C12.293 16.4396 12.3545 16.373 12.4282 16.373H14.2838C14.3576 16.373 14.4188 16.4396 14.4188 16.513V16.6399C14.4188 16.7137 14.3576 16.7746 14.2838 16.7746Z" fill="white"/>
<path d="M32.3704 16.7746H31.6788V19.0775C31.6788 19.1551 31.6176 19.2194 31.54 19.2194H31.2614C31.184 19.2194 31.1223 19.1551 31.1223 19.0775V16.7746H30.4263C30.3522 16.7746 30.291 16.7137 30.291 16.6399V16.513C30.291 16.4396 30.3522 16.373 30.4263 16.373H32.3704C32.4441 16.373 32.5051 16.4396 32.5051 16.513V16.6399C32.5051 16.7137 32.4441 16.7746 32.3704 16.7746Z" fill="white"/>
<path d="M16.6439 19.2194H15.0388C14.965 19.2194 14.9038 19.1718 14.9038 19.0983V16.513C14.9038 16.4396 14.965 16.373 15.0388 16.373H16.5861C16.6601 16.373 16.7216 16.4396 16.7216 16.513V16.6263C16.7216 16.7 16.6601 16.761 16.5861 16.761H15.4604V17.5499H16.4717C16.5454 17.5499 16.6069 17.6156 16.6069 17.6894V17.8026C16.6069 17.8761 16.5454 17.9379 16.4717 17.9379H15.4604V18.8295L16.6439 18.8309C16.7177 18.8309 16.7789 18.8963 16.7789 18.9698V19.0984C16.7789 19.1718 16.7177 19.2194 16.6439 19.2194Z" fill="white"/>
<path d="M25.2168 19.2194H23.6119C23.5381 19.2194 23.4761 19.1718 23.4761 19.0983V16.513C23.4761 16.4396 23.5381 16.373 23.6119 16.373H25.1589C25.2324 16.373 25.2939 16.4396 25.2939 16.513V16.6263C25.2939 16.7 25.2324 16.761 25.1589 16.761H24.0332V17.5499H25.0442C25.1183 17.5499 25.1795 17.6156 25.1795 17.6894V17.8026C25.1795 17.8761 25.1183 17.9379 25.0442 17.9379H24.0332V18.8295L25.2168 18.8309C25.2902 18.8309 25.3515 18.8963 25.3515 18.9698V19.0984C25.3515 19.1718 25.2902 19.2194 25.2168 19.2194Z" fill="white"/>
<path d="M10.2412 19.2194H9.82095C9.69071 19.2194 9.62977 19.1596 9.59665 19.0855C9.38793 18.6425 8.57978 16.8297 8.57978 16.8297V19.0816C8.57978 19.1551 8.51829 19.2194 8.44454 19.2194H8.25586C8.18183 19.2194 8.12061 19.1551 8.12061 19.0816V16.51C8.12061 16.4359 8.18183 16.373 8.25586 16.373H8.66661C8.78822 16.373 8.8628 16.4151 8.90399 16.5061C9.12133 16.9814 9.91641 18.7491 9.91641 18.7491V16.51C9.91641 16.4359 9.97819 16.373 10.0522 16.373H10.2412C10.3146 16.373 10.3764 16.4359 10.3764 16.51V19.0816C10.3764 19.1551 10.3146 19.2194 10.2412 19.2194Z" fill="white"/>
<path d="M26.5221 18.205L26.9459 16.7947L27.3452 18.205H26.5221ZM28.1851 19.0388L27.3675 16.5041C27.3386 16.4181 27.2695 16.373 27.1674 16.373H26.8059C26.701 16.373 26.6434 16.4181 26.6139 16.5041L25.7982 19.0549C25.7899 19.0797 25.7812 19.0964 25.7812 19.1209C25.7812 19.1782 25.8311 19.2194 25.88 19.2194H26.064C26.1617 19.2194 26.2332 19.174 26.2619 19.0878L26.4227 18.5548H27.4596L27.6277 19.0878C27.6516 19.1618 27.7059 19.2194 27.8308 19.2194H28.0986C28.1606 19.2194 28.201 19.1782 28.201 19.1164C28.201 19.0878 28.1929 19.0677 28.1851 19.0388Z" fill="white"/>
<path d="M17.4427 21.7176C17.7972 21.7176 17.9389 21.5574 17.9389 21.251C17.9389 20.9267 17.7747 20.7754 17.451 20.7754H16.9788V23.1539C16.9788 23.2276 16.9181 23.2894 16.8435 23.2894H16.5522C16.4787 23.2894 16.4175 23.2276 16.4175 23.1539V20.5825C16.4175 20.5085 16.4787 20.4434 16.5522 20.4434H17.5081C18.0944 20.4434 18.4593 20.7097 18.4593 21.251C18.4593 21.6773 18.1891 21.8824 17.8771 21.9648L18.4924 23.1169C18.5049 23.1419 18.5169 23.1667 18.5169 23.1948C18.5169 23.2443 18.4846 23.2894 18.439 23.2894H18.0822C18.041 23.2894 17.9959 23.2563 17.9756 23.2112L17.3183 21.9272C17.3019 21.8955 17.2724 21.8437 17.2724 21.795C17.2724 21.7519 17.2935 21.7176 17.3689 21.7176L17.4427 21.7176Z" fill="white"/>
<path d="M20.166 20.7026C19.5765 20.7026 19.475 21.233 19.475 21.8661C19.475 22.505 19.5827 23.0296 20.1576 23.0296C20.7214 23.0296 20.8567 22.527 20.8567 21.8661C20.8567 21.233 20.7465 20.7026 20.166 20.7026ZM20.166 23.3491C19.6172 23.3491 18.917 23.1604 18.917 21.8661C18.917 20.5798 19.6119 20.3828 20.166 20.3828C20.7195 20.3828 21.4144 20.5798 21.4144 21.8661C21.4144 23.1359 20.7351 23.3491 20.166 23.3491Z" fill="white"/>
<path d="M23.0259 23.3495C22.2629 23.3495 21.9512 22.919 21.9512 22.3981V20.5825C21.9512 20.5085 22.0127 20.4434 22.0861 20.4434H22.3731C22.4474 20.4434 22.5091 20.5085 22.5091 20.5825V22.4306C22.5091 22.902 22.7357 23.0301 23.0524 23.0301C23.469 23.0301 23.5959 22.7846 23.5959 22.4306V20.5825C23.5959 20.5085 23.6574 20.4434 23.7308 20.4434H23.9649C24.0386 20.4434 24.1004 20.5085 24.1004 20.5825V22.3981C24.1004 23.0008 23.7222 23.3495 23.0259 23.3495Z" fill="white"/>
<path d="M25.5925 21.8663H25.7333C26.0213 21.8663 26.2465 21.7196 26.2465 21.3333C26.2465 20.9103 26.0283 20.7717 25.7197 20.7717H25.2786V23.1542C25.2786 23.2276 25.2249 23.2894 25.1514 23.2894H24.8681C24.7943 23.2894 24.7334 23.2276 24.7334 23.1542V20.5828C24.7334 20.5088 24.7943 20.4434 24.8681 20.4434H25.8933C26.4449 20.4434 26.7669 20.7798 26.7669 21.3333C26.7669 21.8337 26.4735 22.1704 25.8922 22.1704C25.7817 22.1704 25.6729 22.1596 25.6053 22.1482C25.4881 22.1284 25.4347 22.0644 25.4347 21.9982C25.4347 21.9308 25.4876 21.8663 25.5925 21.8663Z" fill="white"/>
<path d="M15.6603 23.197C15.5106 23.2633 15.276 23.3601 14.7845 23.3601C13.9822 23.3601 13.2637 23.0231 13.2637 21.6907C13.2637 20.6449 13.7061 20.0215 14.7845 20.0215C15.2818 20.0215 15.5568 20.1539 15.6216 20.1812C15.7204 20.2232 15.7271 20.2436 15.7271 20.2895C15.7271 20.3115 15.7146 20.3794 15.7118 20.3961C15.6956 20.4773 15.6731 20.6101 15.6603 20.6816C15.6534 20.7211 15.6481 20.7759 15.5874 20.7759C15.5379 20.7759 15.495 20.7183 15.468 20.6908C15.4257 20.6474 15.1869 20.4 14.7845 20.4C14.0198 20.4 13.8901 21.1332 13.8901 21.6907C13.8901 22.4601 14.1397 22.9816 14.7845 22.9816C15.0308 22.9816 15.1599 22.9418 15.1997 22.931V21.876C15.1997 21.812 15.2373 21.792 15.303 21.792H15.6567C15.7313 21.792 15.7571 21.822 15.7571 21.8813V23.0351C15.7571 23.1447 15.7504 23.1572 15.6603 23.197Z" fill="white"/>
</svg>
