<svg width="40" height="40" viewBox="0 0 40 40" fill="none" xmlns="http://www.w3.org/2000/svg">
<rect width="40" height="40" fill="#F9FAFB"/>
<path d="M17.1564 24.2253H14.8882L16.3069 15.4531H18.5749L17.1564 24.2253Z" fill="#1732D5"/>
<path d="M25.3787 15.6684C24.9313 15.4909 24.2217 15.2949 23.3443 15.2949C21.1044 15.2949 19.527 16.4894 19.5174 18.1971C19.4988 19.457 20.6467 20.1568 21.5052 20.5769C22.3828 21.0062 22.6811 21.2864 22.6811 21.669C22.6721 22.2567 21.972 22.5276 21.3189 22.5276C20.4134 22.5276 19.9282 22.3879 19.1908 22.061L18.8921 21.9208L18.5747 23.8899C19.1067 24.1323 20.0868 24.3474 21.1044 24.3568C23.4843 24.3568 25.0337 23.1808 25.0521 21.361C25.0611 20.3624 24.455 19.5973 23.1482 18.972C22.3549 18.5706 21.869 18.3 21.869 17.8893C21.8783 17.516 22.28 17.1336 23.1755 17.1336C23.9128 17.1149 24.4546 17.2921 24.8651 17.4695L25.0702 17.5626L25.3787 15.6684Z" fill="#1732D5"/>
<path d="M28.3931 21.1176C28.5799 20.6137 29.2986 18.6632 29.2986 18.6632C29.2892 18.682 29.485 18.15 29.5971 17.8234L29.7556 18.5793C29.7556 18.5793 30.1851 20.679 30.2784 21.1176C29.9239 21.1176 28.8411 21.1176 28.3931 21.1176ZM31.1929 15.4531H29.4384C28.8974 15.4531 28.4863 15.6116 28.2529 16.181L24.8838 24.2251H27.2637C27.2637 24.2251 27.6556 23.1425 27.7398 22.9093C28.0009 22.9093 30.3161 22.9093 30.652 22.9093C30.7171 23.2173 30.9226 24.2251 30.9226 24.2251H33.0227L31.1929 15.4531Z" fill="#1732D5"/>
<path d="M12.9935 15.4531L10.7722 21.4349L10.5295 20.2217C10.1188 18.8219 8.83085 17.301 7.39355 16.5447L9.4282 24.216H11.8267L15.392 15.4531H12.9935Z" fill="#1732D5"/>
<path d="M8.70959 15.4531H5.06028L5.02295 15.6304C7.86964 16.3583 9.75494 18.113 10.5295 20.2221L9.73621 16.1905C9.6056 15.6302 9.20423 15.4716 8.70959 15.4531Z" fill="#1732D5"/>
</svg>
