<svg width="40" height="40" viewBox="0 0 40 40" fill="none" xmlns="http://www.w3.org/2000/svg">
<g clip-path="url(#clip0_1270_35734)">
<rect width="40" height="40" fill="white"/>
<g opacity="0.999">
<path d="M32.6828 22.7318C32.7316 21.7968 32.756 20.8456 32.756 19.9188C32.756 18.992 32.7316 18.0407 32.6828 17.1058C33.6422 17.1546 34.5853 17.2115 35.504 17.2684C35.5609 18.1546 35.5934 19.0407 35.5934 19.9188C35.5934 20.7968 35.5609 21.683 35.504 22.5692C34.5934 22.6261 33.6422 22.683 32.6828 22.7318ZM30.1462 34.2521C30.4389 33.3822 30.7153 32.4635 30.9511 31.5285C29.5527 31.8619 28.0975 32.122 26.6097 32.3253C26.5121 33.2684 26.4064 34.1952 26.2845 35.0895C27.6097 34.87 28.9023 34.5936 30.1462 34.2521ZM25.1869 39.3253C25.4145 38.1464 25.6178 36.8944 25.7966 35.5854C24.8698 35.7237 23.9186 35.8212 22.9674 35.8944C22.8779 37.2765 22.7723 38.6017 22.6584 39.8375C23.504 39.7237 24.3576 39.5529 25.1869 39.3253ZM7.0812 19.9188C7.0812 18.992 7.10559 18.0407 7.15437 17.1058C6.19502 17.1546 5.25193 17.2115 4.33323 17.2684C4.27632 18.1546 4.2438 19.0407 4.2438 19.9188C4.2438 20.7968 4.27632 21.683 4.33323 22.5692C5.2438 22.6261 6.19502 22.683 7.15437 22.7318C7.10559 21.7968 7.0812 20.8456 7.0812 19.9188ZM22.9511 26.7643C22.9755 25.6749 22.9999 24.5611 23.0162 23.4391C21.9836 23.4472 20.943 23.4554 19.9186 23.4554C18.9023 23.4554 17.8617 23.4472 16.821 23.4391C16.8373 24.5611 16.8536 25.6749 16.8861 26.7643C17.8942 26.7887 18.9105 26.7968 19.9186 26.7968C20.9267 26.7968 21.943 26.7887 22.9511 26.7643ZM26.2275 7.88626C25.2275 7.75618 24.2032 7.66675 23.1706 7.60171C23.2519 9.23585 23.3088 10.935 23.3576 12.6586C24.4471 12.683 25.5365 12.7318 26.6015 12.7806C26.5121 11.122 26.3901 9.47162 26.2275 7.88626ZM13.2194 7.51227C13.317 6.56919 13.4227 5.64236 13.5446 4.74805C12.2275 4.95943 10.9267 5.24398 9.69096 5.57731C9.39827 6.44723 9.12185 7.36593 8.88608 8.30089C10.2763 7.98382 11.7316 7.71553 13.2194 7.51227ZM22.9511 13.0733C21.943 13.0489 20.9267 13.0407 19.9186 13.0407C18.9105 13.0407 17.8942 13.0489 16.8861 13.0733C16.8617 14.1627 16.8373 15.2765 16.821 16.3985C17.8454 16.3903 18.8861 16.3822 19.9186 16.3822C20.9511 16.3822 21.9918 16.3903 23.0162 16.3985C22.9999 15.2765 22.9755 14.1627 22.9511 13.0733ZM5.23567 30.4716C4.11372 30.0814 3.04868 29.6505 2.06494 29.1789C2.58527 30.1708 3.18689 31.1302 3.86982 32.0326C4.56901 32.3903 5.30071 32.7237 6.06494 33.0326C5.76413 32.2033 5.47958 31.3415 5.23567 30.4716ZM35.9674 7.80496C35.2682 7.44723 34.5365 7.1139 33.7723 6.80496C34.0812 7.63423 34.3576 8.48788 34.6015 9.36593C35.7235 9.75618 36.7885 10.1871 37.7723 10.6586C37.2519 9.66675 36.6422 8.7074 35.9674 7.80496Z" fill="#43BEAC"/>
<path d="M35.5854 25.7967C35.7236 24.8618 35.8211 23.9187 35.8943 22.9675C37.2764 22.878 38.5935 22.7724 39.8374 22.6585C39.7236 23.5122 39.5528 24.3577 39.3252 25.187C38.1545 25.4065 36.8943 25.6179 35.5854 25.7967ZM34.252 30.1463C34.5935 28.9024 34.8699 27.6098 35.0813 26.2927C34.187 26.4065 33.2602 26.5203 32.3171 26.6179C32.1219 28.1057 31.8537 29.561 31.5203 30.9593C32.4634 30.7154 33.3821 30.439 34.252 30.1463ZM26.2276 31.9512C26.3821 30.3659 26.5122 28.7236 26.6016 27.0569C25.5366 27.1138 24.4472 27.1545 23.3577 27.1789C23.3089 28.9106 23.252 30.6098 23.1707 32.2358C24.2033 32.1707 25.2276 32.0732 26.2276 31.9512ZM12.6585 23.3577C10.9187 23.3089 9.21951 23.252 7.60163 23.1707C7.66667 24.2033 7.76423 25.2276 7.88618 26.2276C9.47154 26.3821 11.1138 26.5122 12.7805 26.6016C12.7317 25.5447 12.6911 24.4553 12.6585 23.3577ZM16.8699 35.8943C15.9187 35.8211 14.9675 35.7236 14.0406 35.5854C14.2195 36.8943 14.4309 38.1463 14.6504 39.3252C15.4797 39.5528 16.3333 39.7236 17.1789 39.8374C17.065 38.6016 16.9675 37.2764 16.8699 35.8943ZM34.252 9.69106C33.3821 9.39837 32.4634 9.12195 31.5285 8.88618C31.8618 10.2846 32.122 11.7398 32.3252 13.2276C33.2683 13.3252 34.1951 13.4309 35.0894 13.5528C34.8699 12.2276 34.5935 10.935 34.252 9.69106ZM25.187 0.512195C24.3577 0.284553 23.5041 0.113821 22.6585 0C22.7724 1.23577 22.878 2.56098 22.9675 3.94309C23.9187 4.01626 24.8699 4.11382 25.7967 4.25203C25.6179 2.94309 25.4065 1.69106 25.187 0.512195ZM3.94309 16.8699C4.01626 15.9187 4.11382 14.9675 4.25203 14.0406C2.94309 14.2195 1.69106 14.4309 0.512195 14.6504C0.284553 15.4797 0.113821 16.3252 0 17.1789C1.23577 17.065 2.56098 16.9675 3.94309 16.8699ZM12.6585 16.4797C12.6829 15.3902 12.7317 14.3008 12.7805 13.2358C11.1138 13.3252 9.47154 13.4553 7.88618 13.6098C7.7561 14.6098 7.66667 15.6341 7.60163 16.6667C9.23577 16.5854 10.935 16.5203 12.6585 16.4797ZM22.5691 4.33333C21.6829 4.27642 20.7967 4.2439 19.9187 4.2439C19.0406 4.2439 18.1545 4.27642 17.2683 4.33333C17.2114 5.2439 17.1545 6.19512 17.1057 7.15447C18.0406 7.10569 18.9837 7.0813 19.9187 7.0813C20.8537 7.0813 21.7967 7.10569 22.7317 7.15447C22.6829 6.19512 22.626 5.2439 22.5691 4.33333ZM9.36585 34.6016C8.49593 34.3577 7.63415 34.0813 6.80488 33.7724C7.11382 34.5366 7.44715 35.2683 7.80488 35.9675C8.70732 36.6504 9.66667 37.252 10.6585 37.7724C10.187 36.7805 9.7561 35.7236 9.36585 34.6016ZM32.0325 3.86992C31.1301 3.18699 30.1707 2.58537 29.1789 2.06504C29.6504 3.04878 30.0894 4.11382 30.4715 5.23577C31.3415 5.47967 32.2033 5.7561 33.0325 6.06504C32.7236 5.30894 32.3821 4.56911 32.0325 3.86992Z" fill="#56AEE1"/>
<path d="M8.30884 30.9512C7.36575 30.7073 6.45518 30.439 5.58527 30.1463C5.2438 28.9024 4.96738 27.6098 4.756 26.2927C5.65031 26.4065 6.57714 26.5203 7.52023 26.6179C7.71535 28.0976 7.98364 29.561 8.30884 30.9512ZM16.382 19.9187C16.382 18.8943 16.3901 17.8537 16.3983 16.8211C15.2845 16.8374 14.1706 16.8537 13.0731 16.8862C13.0487 17.8943 13.0406 18.9106 13.0406 19.9187C13.0406 20.9268 13.0487 21.9431 13.0731 22.9512C14.1706 22.9756 15.2845 23 16.3983 23.0163C16.3901 21.9837 16.382 20.9431 16.382 19.9187ZM22.569 35.5041C22.6259 34.5935 22.6828 33.6423 22.7316 32.6829C21.7966 32.7317 20.8454 32.7561 19.9186 32.7561C18.9918 32.7561 18.0487 32.7317 17.1056 32.6829C17.1544 33.6423 17.2113 34.5854 17.2682 35.5041C18.1544 35.561 19.0406 35.5935 19.9186 35.5935C20.7966 35.5935 21.6828 35.561 22.569 35.5041ZM31.9511 13.6098C30.3658 13.4553 28.7235 13.3252 27.0568 13.2358C27.1137 14.3008 27.1544 15.3902 27.1788 16.4797C28.9105 16.5285 30.6097 16.5854 32.2357 16.6667C32.1706 15.6341 32.0731 14.6098 31.9511 13.6098ZM16.8698 3.94309C16.9593 2.56098 17.0649 1.23577 17.1788 0C16.3251 0.113821 15.4796 0.284553 14.6503 0.512195C14.4227 1.68293 14.2194 2.94309 14.0406 4.25203C14.9674 4.11382 15.9186 4.00813 16.8698 3.94309ZM35.9674 32.0325C36.6503 31.1301 37.2519 30.1789 37.7723 29.1789C36.7885 29.6504 35.7235 30.0894 34.6015 30.4715C34.3576 31.3415 34.0812 32.2033 33.7723 33.0325C34.5284 32.7236 35.2682 32.3902 35.9674 32.0325ZM5.23567 9.36585C5.47958 8.49593 5.756 7.63415 6.06494 6.80488C5.30071 7.11382 4.56901 7.44715 3.86982 7.80488C3.18689 8.70732 2.58527 9.65854 2.06494 10.6585C3.05681 10.187 4.11372 9.7561 5.23567 9.36585Z" fill="#91AEDB"/>
<path d="M27.0488 26.6092C27.1057 25.5441 27.1463 24.4547 27.1707 23.3653C28.9106 23.3165 30.6098 23.2596 32.2276 23.1783C32.1626 24.2108 32.065 25.2352 31.9431 26.2352C30.3659 26.3897 28.7154 26.5116 27.0488 26.6092ZM26.7642 22.9506C26.7886 21.9425 26.7967 20.9262 26.7967 19.9181C26.7967 18.91 26.7886 17.8937 26.7642 16.8856C25.6667 16.8612 24.5528 16.8368 23.439 16.8205C23.4472 17.8531 23.4553 18.8856 23.4553 19.9181C23.4553 20.9425 23.4472 21.9832 23.439 23.0157C24.5528 22.9994 25.6748 22.975 26.7642 22.9506ZM3.94309 22.9669C2.56098 22.8775 1.2439 22.7718 0 22.6579C0.113821 23.5116 0.284553 24.3571 0.512195 25.1864C1.68293 25.414 2.94309 25.6173 4.25203 25.7962C4.11382 24.8693 4.00813 23.9181 3.94309 22.9669ZM13.2195 32.3246C11.7317 32.1295 10.2764 31.8612 8.87805 31.5279C9.11382 32.471 9.39024 33.3815 9.68293 34.2514C10.9268 34.5929 12.2195 34.8693 13.5366 35.0807C13.4309 34.1945 13.3171 33.2596 13.2195 32.3246ZM16.4797 27.1783C15.3902 27.1539 14.3008 27.1051 13.2358 27.0563C13.3252 28.723 13.4553 30.3653 13.6098 31.9506C14.6098 32.0807 15.6341 32.1783 16.6667 32.2352C16.5854 30.601 16.5203 28.9018 16.4797 27.1783ZM39.3252 14.6498C38.1463 14.4222 36.8943 14.2189 35.5854 14.0401C35.7236 14.9669 35.8211 15.9181 35.8943 16.8693C37.2764 16.9588 38.5935 17.0645 39.8374 17.1783C39.7236 16.3327 39.5528 15.4791 39.3252 14.6498ZM30.1463 5.58478C28.9024 5.24331 27.6098 4.96689 26.2927 4.75551C26.4146 5.64982 26.5203 6.57665 26.6179 7.51974C28.1057 7.71486 29.561 7.98315 30.9593 8.31649C30.7154 7.3734 30.439 6.4547 30.1463 5.58478ZM7.5122 13.2189C7.70732 11.7311 7.97561 10.2758 8.30894 8.87746C7.37398 9.11323 6.45528 9.38966 5.58537 9.68234C5.2439 10.9262 4.96748 12.2189 4.7561 13.536C5.65041 13.4303 6.57724 13.3165 7.5122 13.2189ZM16.4797 12.6579C16.5285 10.9262 16.5854 9.22705 16.6667 7.60104C15.6341 7.66608 14.6098 7.76364 13.6098 7.88559C13.4553 9.47096 13.3252 11.1132 13.2358 12.7799C14.2927 12.7311 15.3821 12.6905 16.4797 12.6579ZM32.0325 35.9669C32.3902 35.2677 32.7236 34.536 33.0325 33.7718C32.2033 34.0807 31.3496 34.3571 30.4715 34.601C30.0813 35.723 29.6504 36.788 29.1789 37.7718C30.1707 37.2514 31.1301 36.6417 32.0325 35.9669ZM9.36585 5.23518C9.7561 4.11323 10.187 3.04819 10.6585 2.06445C9.66667 2.58478 8.70732 3.1864 7.80488 3.86933C7.44715 4.56852 7.11382 5.30023 6.80488 6.06445C7.63415 5.76364 8.49593 5.47909 9.36585 5.23518Z" fill="#8FC73E"/>
</g>
</g>
<defs>
<clipPath id="clip0_1270_35734">
<rect width="40" height="40" fill="white"/>
</clipPath>
</defs>
</svg>
