<svg width="40" height="40" viewBox="0 0 40 40" fill="none" xmlns="http://www.w3.org/2000/svg">
<rect width="40" height="40" fill="#007DC6"/>
<path d="M19.9998 9.06641C19.1705 9.06641 18.5041 9.53133 18.5041 10.097L19.0078 15.8158C19.062 16.1567 19.4884 16.4281 19.992 16.4281C20.5034 16.4281 20.9218 16.1646 20.9838 15.8158L21.4875 10.097C21.4951 9.53133 20.8364 9.06641 19.9998 9.06641ZM11.7701 13.6538C11.3361 13.6616 10.8481 13.9871 10.5379 14.5295C10.1195 15.2501 10.1971 16.056 10.6854 16.3351L15.8926 18.7605C16.2181 18.8845 16.66 18.6521 16.9156 18.2103C17.1713 17.7686 17.1559 17.2727 16.8845 17.0477L12.181 13.7543C12.0492 13.6847 11.9174 13.6538 11.7701 13.6538ZM28.2293 13.6538C28.0819 13.6538 27.9501 13.6848 27.8261 13.7545L23.1226 17.0478C22.8513 17.2727 22.8359 17.7686 23.0916 18.2105C23.3471 18.6522 23.7887 18.8846 24.1144 18.7606L29.3219 16.3352C29.8099 16.0562 29.8795 15.2502 29.469 14.5297C29.1512 13.9948 28.6631 13.6695 28.2293 13.6538ZM16.0788 21.2015C16.0089 21.2015 15.9469 21.2092 15.8849 21.2325L10.6775 23.6502C10.1894 23.9371 10.112 24.7351 10.5303 25.4632C10.9488 26.1842 11.6772 26.525 12.1655 26.2387L16.8691 22.9452C17.1403 22.7203 17.1558 22.2247 16.9001 21.783C16.7064 21.426 16.3731 21.2015 16.0788 21.2015ZM23.9206 21.2015C23.6264 21.2092 23.3006 21.426 23.0916 21.7827C22.8359 22.2245 22.859 22.72 23.1226 22.945L27.8261 26.2383C28.3144 26.5173 29.0505 26.1763 29.4613 25.4631C29.8719 24.7426 29.8022 23.937 29.314 23.6501L24.1066 21.2323C24.0525 21.2092 23.9904 21.2015 23.9206 21.2015ZM19.9998 23.5727C19.4884 23.5727 19.0699 23.8363 19.0156 24.185L18.5119 29.9036C18.5119 30.4693 19.1705 30.9343 20.0074 30.9343C20.8441 30.9343 21.5029 30.4695 21.5029 29.9036L20.9991 24.185C20.9295 23.8362 20.5111 23.5727 19.9998 23.5727Z" fill="#FFC220"/>
</svg>
