<svg width="18" height="20" viewBox="0 0 18 20" fill="none" xmlns="http://www.w3.org/2000/svg">
<path fill-rule="evenodd" clip-rule="evenodd" d="M12.75 2V1.25C12.75 0.835786 13.0858 0.5 13.5 0.5C13.9142 0.5 14.25 0.835786 14.25 1.25V2H16.5C16.5 2 17.1213 2 17.5607 2.43934C17.5607 2.43934 18 2.87868 18 3.5V18.5C18 18.5 18 19.1213 17.5607 19.5607C17.5607 19.5607 17.1213 20 16.5 20H1.5C1.5 20 0.878678 20 0.43934 19.5607C0.43934 19.5607 0 19.1213 0 18.5V3.5C0 3.5 0 2.87868 0.43934 2.43934C0.43934 2.43934 0.87868 2 1.5 2H3.75V1.25C3.75 0.835786 4.08579 0.5 4.5 0.5C4.91421 0.5 5.25 0.835786 5.25 1.25V2H12.75ZM1.5 8V18.5H16.5V8H1.5ZM16.5 6.5H1.5V3.5H3.75V4.25C3.75 4.66421 4.08579 5 4.5 5C4.91421 5 5.25 4.66421 5.25 4.25V3.5H12.75V4.25C12.75 4.66421 13.0858 5 13.5 5C13.9142 5 14.25 4.66421 14.25 4.25V3.5H16.5V6.5Z" fill="#212121"/>
</svg>
