<svg width="16" height="16" viewBox="0 0 16 16" fill="none" xmlns="http://www.w3.org/2000/svg">
<path d="M4.9943 7.86065C4.87801 7.74952 4.72335 7.6875 4.5625 7.6875C4.56237 7.6875 4.54832 7.68766 4.54832 7.68766C4.38261 7.69142 4.22517 7.76086 4.11065 7.8807C3.99952 7.99699 3.9375 8.15165 3.9375 8.3125L3.93766 8.32668C3.94142 8.49239 4.01086 8.64983 4.1307 8.76435L6.41976 10.9519C6.66119 11.1826 7.04135 11.1827 7.28298 10.9522L11.8688 6.57737C11.9887 6.46295 12.0584 6.30542 12.0623 6.13971C12.0626 6.1297 12.0626 6.11969 12.0623 6.10968C12.0585 5.95435 11.997 5.806 11.8897 5.69358C11.7718 5.56995 11.6084 5.5 11.4375 5.5L11.4199 5.50025C11.2653 5.50461 11.1179 5.56608 11.0061 5.67278L6.85193 9.63585L4.9943 7.86065Z" fill="#666666"/>
<path fill-rule="evenodd" clip-rule="evenodd" d="M0.5 1.75C0.5 1.75 0.5 1.23223 0.866117 0.866117C0.866117 0.866117 1.23223 0.5 1.75 0.5H14.25C14.25 0.5 14.7678 0.5 15.1339 0.866117C15.1339 0.866117 15.5 1.23223 15.5 1.75V14.25C15.5 14.25 15.5 14.7678 15.1339 15.1339C15.1339 15.1339 14.7678 15.5 14.25 15.5H1.75C1.75 15.5 1.23223 15.5 0.866117 15.1339C0.866117 15.1339 0.5 14.7678 0.5 14.25V1.75ZM1.75 1.75V14.25H14.25V1.75H1.75Z" fill="#666666"/>
</svg>
