<svg width="543" height="170" viewBox="0 0 543 170" fill="none" xmlns="http://www.w3.org/2000/svg">
<path d="M355.418 37.4749C359.955 24.1757 374.632 12.8409 384.781 26.353C385.048 26.7089 385.295 27.0732 385.524 27.4453C385.664 27.6748 385.798 27.9074 385.925 28.1427C388.878 33.6279 388.085 40.6334 387.339 47.2246C386.666 53.1717 386.032 58.7814 388.221 62.6326C388.24 62.6667 388.26 62.7005 388.28 62.7343C389.136 64.1953 390.409 65.3973 392.255 66.2608C394.749 67.4229 397.918 67.3663 396.475 64.8626C396.202 64.3895 395.765 63.8289 395.127 63.1727C394.581 62.6085 394.128 62.0026 393.758 61.3589C391.403 57.2685 392.349 51.6546 393.376 45.5565C394.593 38.3317 395.924 30.4272 392.017 23.571C391.913 23.3881 391.805 23.2061 391.694 23.0248C390.166 20.5453 387.923 18.2114 384.704 16.1068C368.72 5.65035 355.524 14.6801 348.571 29.7214C341.618 44.7627 337.717 51.8184 320.196 51.8022C320.816 58.1645 320.186 62.9612 318.511 70.26L318.511 70.26L318.511 70.2607C337.461 70.1398 349.704 54.3697 355.418 37.4749Z" fill="#188FFF"/>
<path d="M348.046 48.9088C343.231 46.5165 336.179 58.0441 339.42 60.59C344.245 64.6716 352.792 51.2652 348.046 48.9088ZM340.823 58.6578C340.092 57.0894 345.047 50.0775 346.935 51.0751C348.822 52.0727 341.664 60.6634 340.759 58.7288L340.823 58.6578Z" fill="#0A0D14"/>
<ellipse cx="4.27559" cy="1.49184" rx="4.27559" ry="1.49184" transform="matrix(-0.644846 0.764445 0.765486 0.643296 346.39 51.1191)" fill="#0A0D14"/>
<path d="M348.416 50.1769C344.364 48.1637 338.429 57.8648 341.156 60.0073C345.217 63.4422 352.41 52.1599 348.416 50.1769ZM342.338 58.3812C341.722 57.0614 345.892 51.1604 347.481 52C349.069 52.8395 343.045 60.069 342.284 58.441L342.338 58.3812Z" fill="#188FFF"/>
<path d="M356.389 32.9496C351.161 31.6815 346.852 44.4818 350.579 46.2478C356.194 49.1608 361.543 34.1977 356.389 32.9496ZM351.517 44.0533C350.455 42.6856 353.725 34.7523 355.788 35.3077C357.851 35.863 352.784 45.8231 351.471 44.1367L351.517 44.0533Z" fill="#0A0D14"/>
<ellipse cx="4.27479" cy="1.49275" rx="4.27479" ry="1.49275" transform="matrix(-0.458715 0.888251 0.889406 0.457763 355.267 35.4707)" fill="#0A0D14"/>
<path d="M357.034 34.1062C352.634 33.039 349.008 43.8112 352.144 45.2974C356.87 47.7488 361.371 35.1566 357.034 34.1062ZM352.934 43.4506C352.04 42.2996 354.792 35.6233 356.528 36.0906C358.265 36.558 354 44.9399 352.895 43.5207L352.934 43.4506Z" fill="#188FFF"/>
<path d="M366.357 20.486C362.302 18.1278 355.498 27.7627 358.173 30.1648C362.14 33.9948 370.354 22.8092 366.357 20.486ZM359.507 28.5625C358.96 27.155 363.679 21.3324 365.265 22.3089C366.851 23.2855 360.123 30.357 359.447 28.6207L359.507 28.5625Z" fill="#0A0D14"/>
<ellipse cx="3.73148" cy="1.30168" rx="3.73148" ry="1.30168" transform="matrix(-0.693783 0.720485 0.721472 0.69213 364.788 22.3164)" fill="#0A0D14"/>
<path d="M366.608 21.6133C363.196 19.6287 357.469 27.737 359.72 29.7585C363.059 32.9816 369.972 23.5684 366.608 21.6133ZM360.843 28.41C360.383 27.2256 364.354 22.3255 365.689 23.1473C367.023 23.9692 361.362 29.9202 360.792 28.459L360.843 28.41Z" fill="#188FFF"/>
<path d="M379.696 21.0733C380.587 16.5345 371.128 14.7391 369.858 18.096C367.76 23.189 378.82 25.5474 379.696 21.0733ZM371.482 18.5704C372.48 17.4921 378.347 19.1048 377.955 20.9036C377.563 22.7025 370.189 19.8758 371.42 18.5433L371.482 18.5704Z" fill="#0A0D14"/>
<ellipse cx="3.47051" cy="1.30061" rx="3.47051" ry="1.30061" transform="matrix(-0.928681 -0.372086 -0.372684 0.927475 378.062 20.6543)" fill="#0A0D14"/>
<path d="M378.531 21.6345C379.336 17.8394 371.894 16.5558 370.815 19.3763C369.042 23.6593 377.738 25.3756 378.531 21.6345ZM372.089 19.7349C372.902 18.8158 377.507 20.027 377.157 21.532C376.807 23.037 371.037 20.8494 372.04 19.7137L372.089 19.7349Z" fill="#188FFF"/>
<path d="M387.106 30.6348C390.472 28.4661 385.921 21.5237 383.065 22.749C378.63 24.5009 383.79 32.7735 387.106 30.6348ZM383.743 24.04C385.014 24.0126 387.526 28.6181 386.168 29.4535C384.811 30.2888 382.153 24.0211 383.723 23.9855L383.743 24.04Z" fill="#0A0D14"/>
<ellipse cx="2.99606" cy="1.12496" rx="2.99606" ry="1.12496" transform="matrix(-0.37614 -0.925707 -0.927566 0.375775 386.39 29.3691)" fill="#0A0D14"/>
<path d="M386.059 30.2467C388.909 28.471 385.248 23.0867 382.842 24.1085C379.107 25.5766 383.25 31.9977 386.059 30.2467ZM383.382 25.1132C384.443 25.0667 386.448 28.6485 385.3 29.3336C384.151 30.0188 382.056 25.1293 383.366 25.0706L383.382 25.1132Z" fill="#188FFF"/>
<path d="M387.777 42.4499C391.779 42.2866 391.382 33.998 388.298 33.6067C383.586 32.8686 383.832 42.6119 387.777 42.4499ZM388.227 35.0625C389.336 35.6831 389.163 40.9245 387.569 40.9565C385.975 40.9886 386.866 34.2408 388.237 35.0053L388.227 35.0625Z" fill="#0A0D14"/>
<ellipse cx="2.99527" cy="1.12554" rx="2.99527" ry="1.12554" transform="matrix(0.14592 -0.988536 -0.990019 -0.146173 387.803 40.998)" fill="#0A0D14"/>
<path d="M387.072 41.5845C390.43 41.4989 390.009 35.004 387.416 34.6651C383.451 34.0373 383.761 41.6697 387.072 41.5845ZM387.371 35.8043C388.309 36.302 388.219 40.4046 386.881 40.4129C385.543 40.4211 386.22 35.1465 387.379 35.7596L387.371 35.8043Z" fill="#188FFF"/>
<path d="M387.548 52.6729C390.915 52.5356 390.58 45.5629 387.986 45.2338C384.022 44.6129 384.23 52.8093 387.548 52.6729ZM387.926 46.4584C388.859 46.9805 388.713 51.3897 387.373 51.4167C386.032 51.4437 386.782 45.7672 387.935 46.4103L387.926 46.4584Z" fill="#0A0D14"/>
<ellipse cx="2.51973" cy="0.946841" rx="2.51973" ry="0.946841" transform="matrix(0.14592 -0.988536 -0.990019 -0.146173 387.57 51.4512)" fill="#0A0D14"/>
<path d="M386.955 51.9461C389.78 51.8741 389.425 46.4104 387.244 46.1253C383.909 45.5972 384.17 52.0178 386.955 51.9461ZM387.206 47.0836C387.995 47.5023 387.92 50.9535 386.794 50.9605C385.668 50.9675 386.238 46.5302 387.213 47.046L387.206 47.0836Z" fill="#188FFF"/>
<path d="M388.044 61.0863C390.549 60.4823 389.259 55.2968 387.265 55.4356C384.199 55.5592 385.576 61.6824 388.044 61.0863ZM387.402 56.3641C388.18 56.6171 388.727 59.9494 387.726 60.1692C386.724 60.3889 386.441 56.0153 387.401 56.3266L387.402 56.3641Z" fill="#0A0D14"/>
<ellipse cx="1.92863" cy="0.723463" rx="1.92863" ry="0.723463" transform="matrix(-0.0494766 -0.997892 -0.999677 0.0490838 387.877 60.1641)" fill="#0A0D14"/>
<path d="M387.49 60.6284C389.598 60.154 388.518 56.1043 386.839 56.2148C384.26 56.3145 385.412 61.0965 387.49 60.6284ZM386.954 56.94C387.608 57.1369 388.065 59.7395 387.222 59.9122C386.379 60.0849 386.145 56.6685 386.953 56.9107L386.954 56.94Z" fill="#188FFF"/>
<path fill-rule="evenodd" clip-rule="evenodd" d="M336.955 63.5166C334.109 58.5634 321.047 64.6148 322.409 68.777C324.266 75.2325 339.763 68.3982 336.955 63.5166ZM334.69 64.7801C333.61 62.7852 325.075 66.0743 324.795 67.8932L324.696 67.9184C324.352 70.164 335.771 66.775 334.69 64.7801Z" fill="#0A0D14"/>
<path d="M330.694 68.8149C328.279 69.516 326.122 69.403 325.877 68.5623C325.632 67.7217 327.392 66.4719 329.808 65.7708C332.224 65.0697 334.38 65.1828 334.625 66.0234C334.87 66.864 333.11 68.1138 330.694 68.8149Z" fill="#0A0D14"/>
<path fill-rule="evenodd" clip-rule="evenodd" d="M336.532 64.861C334.137 60.6926 323.145 65.7852 324.291 69.2879C325.853 74.7205 338.895 68.9691 336.532 64.861ZM326.216 68.5653C326.452 67.0346 333.717 64.2455 334.626 65.9243C335.536 67.6031 325.926 70.4551 326.216 68.5653Z" fill="#188FFF"/>
<path d="M285.95 29.2541C285.45 14.6271 296.902 2.36447 311.529 1.8648C326.156 1.36512 338.419 12.8176 338.919 27.4446L340.225 65.6921L287.256 67.5016L285.95 29.2541Z" fill="#188FFF"/>
<path d="M331.206 29.4199C331.559 39.7577 323.465 48.4244 313.127 48.7775C302.79 49.1307 294.123 41.0365 293.77 30.6987C293.417 20.3609 301.511 11.6942 311.849 11.341C322.186 10.9879 330.853 19.0821 331.206 29.4199Z" fill="white"/>
<path fill-rule="evenodd" clip-rule="evenodd" d="M312.802 39.2377C317.871 39.0646 321.84 34.8151 321.667 29.7462C321.625 28.5226 321.345 27.363 320.874 26.3104C320.251 27.2699 319.186 27.92 317.956 27.962C315.955 28.0304 314.277 26.4637 314.209 24.4629C314.167 23.2328 314.743 22.1249 315.658 21.438C314.575 21.0397 313.399 20.84 312.175 20.8818C307.106 21.0549 303.137 25.3044 303.311 30.3733C303.484 35.4422 307.733 39.4109 312.802 39.2377Z" fill="#0A0D14"/>
<path fill-rule="evenodd" clip-rule="evenodd" d="M543 170H0V25.5332C8.39195 28.1603 16.0398 31.5049 23.5688 34.7976C46.6774 44.9037 68.6664 54.5202 107.614 41.3953C164.933 22.0798 172.781 24.6374 222.138 40.7207C222.82 40.943 223.51 41.1679 224.208 41.3953C265.184 54.7418 307.712 46.9564 323.854 41.3953C390.691 16.029 441.299 35.3371 461.014 45.4585C480.728 55.5799 502.487 58.8574 538.55 53.6521C540.061 53.4339 541.543 53.2067 543 52.9734V170Z" fill="#0A0D14"/>
<path d="M261.156 43.4742C268.63 39.6801 272.061 45.9013 272.869 49.3316C267.414 48.4263 264.394 52.4021 263.378 58.5264C262.362 64.6507 254.462 66.0366 255.572 61.1265C256.682 56.2164 251.815 48.2167 261.156 43.4742Z" fill="#188FFF"/>
<mask id="mask0_1700_5337" style="mask-type:alpha" maskUnits="userSpaceOnUse" x="362" y="17" width="58" height="62">
<rect x="362.211" y="36.8086" width="36.9682" height="49.2532" transform="rotate(-31.9034 362.211 36.8086)" fill="#D9D9D9"/>
</mask>
<g mask="url(#mask0_1700_5337)">
<path d="M355.42 37.4514C359.957 24.1523 374.634 12.8175 384.783 26.3296C385.051 26.6855 385.298 27.0498 385.526 27.4218C385.667 27.6514 385.8 27.8839 385.927 28.1192C388.88 33.6044 388.088 40.61 387.342 47.2012C386.669 53.1483 386.034 58.758 388.223 62.6092C388.243 62.6432 388.262 62.6771 388.282 62.7109C389.139 64.1719 390.412 65.3739 392.257 66.2374C394.752 67.3995 397.92 67.3428 396.477 64.8391C396.205 64.366 395.767 63.8055 395.13 63.1492C394.583 62.5851 394.131 61.9791 393.76 61.3355C391.405 57.245 392.351 51.6312 393.378 45.5331C394.595 38.3083 395.927 30.4037 392.02 23.5475C391.916 23.3647 391.808 23.1826 391.696 23.0013C390.168 20.5219 387.925 18.188 384.706 16.0834C368.722 5.62692 355.527 14.6566 348.574 29.6979C341.62 44.7392 337.72 51.795 320.199 51.7788C320.819 58.141 320.189 62.9378 318.513 70.2366L318.514 70.2366L318.514 70.2372C337.464 70.1164 349.706 54.3463 355.42 37.4514Z" fill="#188FFF"/>
<path d="M356.391 32.9261C351.163 31.658 346.854 44.4584 350.581 46.2244C356.197 49.1374 361.545 34.1743 356.391 32.9261ZM351.52 44.0298C350.457 42.6622 353.728 34.7289 355.791 35.2842C357.854 35.8396 352.787 45.7996 351.473 44.1132L351.52 44.0298Z" fill="#0A0D14"/>
<path d="M357.036 34.0827C352.637 33.0156 349.01 43.7878 352.147 45.2739C356.872 47.7254 361.374 35.1331 357.036 34.0827ZM352.936 43.4271C352.042 42.2761 354.794 35.5998 356.531 36.0672C358.267 36.5346 354.003 44.9165 352.897 43.4973L352.936 43.4271Z" fill="#188FFF"/>
<path d="M366.359 20.4626C362.305 18.1043 355.501 27.7393 358.176 30.1413C362.142 33.9714 370.357 22.7858 366.359 20.4626ZM359.509 28.539C358.963 27.1316 363.681 21.3089 365.267 22.2855C366.853 23.2621 360.126 30.3336 359.449 28.5972L359.509 28.539Z" fill="#0A0D14"/>
<ellipse cx="3.73148" cy="1.30168" rx="3.73148" ry="1.30168" transform="matrix(-0.693784 0.720485 0.721472 0.69213 364.79 22.293)" fill="#0A0D14"/>
<path d="M366.61 21.5898C363.198 19.6052 357.472 27.7136 359.723 29.735C363.061 32.9582 369.974 23.5449 366.61 21.5898ZM360.845 28.3866C360.385 27.2022 364.356 22.3021 365.691 23.1239C367.026 23.9457 361.364 29.8968 360.795 28.4356L360.845 28.3866Z" fill="#188FFF"/>
<path d="M379.699 21.0498C380.589 16.5111 371.13 14.7157 369.861 18.0726C367.762 23.1656 378.822 25.524 379.699 21.0498ZM371.484 18.5469C372.482 17.4687 378.35 19.0813 377.958 20.8802C377.566 22.679 370.192 19.8523 371.422 18.5198L371.484 18.5469Z" fill="#0A0D14"/>
<ellipse cx="3.47051" cy="1.30061" rx="3.47051" ry="1.30061" transform="matrix(-0.928681 -0.372086 -0.372684 0.927475 378.065 20.6309)" fill="#0A0D14"/>
<path d="M378.533 21.6111C379.338 17.816 371.896 16.5324 370.818 19.3529C369.045 23.6359 377.74 25.3522 378.533 21.6111ZM372.091 19.7114C372.905 18.7924 377.51 20.0036 377.16 21.5086C376.81 23.0136 371.04 20.826 372.043 19.6903L372.091 19.7114Z" fill="#188FFF"/>
<path d="M387.109 30.6114C390.474 28.4427 385.923 21.5003 383.068 22.7255C378.632 24.4775 383.792 32.7501 387.109 30.6114ZM383.745 24.0166C385.016 23.9892 387.528 28.5946 386.171 29.43C384.814 30.2654 382.156 23.9976 383.725 23.962L383.745 24.0166Z" fill="#0A0D14"/>
<ellipse cx="2.99606" cy="1.12496" rx="2.99606" ry="1.12496" transform="matrix(-0.37614 -0.925707 -0.927566 0.375775 386.392 29.3457)" fill="#0A0D14"/>
<path d="M386.061 30.2232C388.912 28.4476 385.251 23.0633 382.845 24.0851C379.11 25.5531 383.252 31.9743 386.061 30.2232ZM383.384 25.0897C384.445 25.0432 386.451 28.625 385.302 29.3102C384.153 29.9954 382.059 25.1059 383.369 25.0471L383.384 25.0897Z" fill="#188FFF"/>
<path d="M387.78 42.4264C391.782 42.2632 391.384 33.9745 388.301 33.5833C383.588 32.8452 383.835 42.5885 387.78 42.4264ZM388.229 35.0391C389.339 35.6596 389.165 40.901 387.571 40.9331C385.977 40.9651 386.869 34.2173 388.239 34.9819L388.229 35.0391Z" fill="#0A0D14"/>
<ellipse cx="2.99527" cy="1.12554" rx="2.99527" ry="1.12554" transform="matrix(0.14592 -0.988536 -0.990019 -0.146173 387.805 40.9746)" fill="#0A0D14"/>
<path d="M387.074 41.561C390.433 41.4755 390.011 34.9806 387.418 34.6417C383.453 34.0139 383.764 41.6463 387.074 41.561ZM387.373 35.7809C388.311 36.2786 388.221 40.3812 386.883 40.3894C385.545 40.3977 386.222 35.123 387.381 35.7362L387.373 35.7809Z" fill="#188FFF"/>
<path d="M387.551 52.6495C390.917 52.5122 390.583 45.5395 387.989 45.2103C384.024 44.5894 384.232 52.7858 387.551 52.6495ZM387.928 46.435C388.862 46.957 388.716 51.3663 387.375 51.3933C386.034 51.4202 386.784 45.7437 387.937 46.3869L387.928 46.435Z" fill="#0A0D14"/>
<ellipse cx="2.51973" cy="0.946841" rx="2.51973" ry="0.946841" transform="matrix(0.14592 -0.988536 -0.990019 -0.146173 387.572 51.4277)" fill="#0A0D14"/>
<path d="M386.957 51.9227C389.782 51.8507 389.428 46.3869 387.246 46.1018C383.911 45.5737 384.172 51.9944 386.957 51.9227ZM387.209 47.0602C387.998 47.4788 387.922 50.9301 386.796 50.9371C385.671 50.944 386.241 46.5068 387.215 47.0226L387.209 47.0602Z" fill="#188FFF"/>
<path d="M388.047 61.0629C390.551 60.4589 389.261 55.2734 387.267 55.4122C384.202 55.5358 385.578 61.6589 388.047 61.0629ZM387.404 56.3406C388.182 56.5937 388.73 59.926 387.728 60.1457C386.726 60.3655 386.443 55.9919 387.404 56.3032L387.404 56.3406Z" fill="#0A0D14"/>
<ellipse cx="1.92863" cy="0.723463" rx="1.92863" ry="0.723463" transform="matrix(-0.0494765 -0.997892 -0.999677 0.0490837 387.879 60.1406)" fill="#0A0D14"/>
<path d="M387.492 60.6049C389.6 60.1305 388.52 56.0809 386.842 56.1913C384.262 56.291 385.414 61.0731 387.492 60.6049ZM386.956 56.9165C387.611 57.1134 388.068 59.7161 387.225 59.8888C386.382 60.0615 386.148 56.645 386.956 56.8873L386.956 56.9165Z" fill="#188FFF"/>
</g>
</svg>
