<svg width="16" height="16" viewBox="0 0 16 16" fill="none" xmlns="http://www.w3.org/2000/svg">
<path fill-rule="evenodd" clip-rule="evenodd" d="M15.4953 5.76352L5.94194 15.3169C5.82473 15.4341 5.66576 15.4999 5.5 15.4999H1.75C1.75 15.4999 1.23223 15.4999 0.866117 15.1338C0.866117 15.1338 0.5 14.7677 0.5 14.2499L0.5 10.7577C0.5 10.7577 0.499137 10.5125 0.593136 10.2836C0.593136 10.2836 0.687136 10.0548 0.861654 9.8794L10.2377 0.503302C10.2377 0.503302 10.4106 0.32777 10.6422 0.230779C10.6422 0.230779 10.8739 0.133789 11.125 0.133789C11.125 0.133789 11.3761 0.133789 11.6078 0.23078C11.6078 0.23078 11.8394 0.327769 12.0156 0.506697L15.4966 3.98768C15.4966 3.98768 15.6722 4.16052 15.7692 4.39216C15.7692 4.39216 15.8661 4.62381 15.8661 4.87493C15.8661 4.87493 15.8661 5.12606 15.7692 5.3577C15.7692 5.3577 15.6731 5.58713 15.4966 5.76219L15.4953 5.76352ZM14.6161 4.87493L14.6127 4.87156L11.125 1.38379L11.1216 1.38719L1.75 10.7588V14.2499H5.24112L14.6127 4.8783L14.6161 4.87493Z" fill="#666666"/>
<path d="M14.875 14.25H5.49999C5.15481 14.25 4.87499 14.5298 4.87499 14.875C4.87499 15.2202 5.15482 15.4999 5.5 15.4999L14.875 15.5C15.2202 15.5 15.5 15.2202 15.5 14.875C15.5 14.5298 15.2202 14.25 14.875 14.25Z" fill="#666666"/>
<path d="M12.5577 7.81662C12.6749 7.93383 12.8342 8 13 8C13.1658 8 13.3247 7.93415 13.4419 7.81694C13.5591 7.69973 13.625 7.54076 13.625 7.375C13.625 7.20924 13.5591 7.05027 13.4419 6.93306L9.06701 2.55813C8.94972 2.44085 8.79075 2.375 8.62499 2.375C8.45923 2.375 8.30026 2.44085 8.18305 2.55806C8.06584 2.67527 7.99999 2.83424 7.99999 3C7.99999 3.16576 8.06584 3.32473 8.18305 3.44194L12.5577 7.81662Z" fill="#666666"/>
</svg>
