<svg width="20" height="4" viewBox="0 0 20 4" fill="none" xmlns="http://www.w3.org/2000/svg">
<path d="M2 6.99382e-07C3.10457 6.511e-07 4 0.895431 4 2C4 3.10457 3.10457 4 2 4C0.895431 4 4.82823e-08 3.10457 0 2C-4.82823e-08 0.895431 0.89543 7.47665e-07 2 6.99382e-07Z" fill="#606164"/>
<path d="M10 3.49691e-07C11.1046 3.01409e-07 12 0.895431 12 2C12 3.10457 11.1046 4 10 4C8.89543 4 8 3.10457 8 2C8 0.895431 8.89543 3.97973e-07 10 3.49691e-07Z" fill="#606164"/>
<path d="M20 2C20 0.89543 19.1046 -4.82819e-08 18 0C16.8954 4.82828e-08 16 0.895431 16 2C16 3.10457 16.8954 4 18 4C19.1046 4 20 3.10457 20 2Z" fill="#606164"/>
</svg>
