<svg width="10" height="14" viewBox="0 0 10 14" fill="none" xmlns="http://www.w3.org/2000/svg">
<path d="M0.71967 4.21967C0.426777 4.51256 0.426777 4.98744 0.71967 5.28033C1.01256 5.57322 1.48744 5.57322 1.78033 5.28033L5 2.06066L8.21967 5.28033C8.51256 5.57322 8.98744 5.57322 9.28033 5.28033C9.57322 4.98744 9.57322 4.51256 9.28033 4.21967L5.53033 0.46967C5.23744 0.176777 4.76256 0.176777 4.46967 0.46967L0.71967 4.21967Z" fill="#212121"/>
<path d="M9.28033 9.78033C9.57322 9.48744 9.57322 9.01256 9.28033 8.71967C8.98744 8.42678 8.51256 8.42678 8.21967 8.71967L5 11.9393L1.78033 8.71967C1.48744 8.42678 1.01256 8.42678 0.71967 8.71967C0.426777 9.01256 0.426777 9.48744 0.71967 9.78033L4.46967 13.5303C4.76256 13.8232 5.23744 13.8232 5.53033 13.5303L9.28033 9.78033Z" fill="#212121"/>
</svg>
