<svg width="16" height="16" viewBox="0 0 16 16" fill="none" xmlns="http://www.w3.org/2000/svg">
<path fill-rule="evenodd" clip-rule="evenodd" d="M15.5318 10.0898L15.5315 10.0908C15.5315 10.0908 14.9728 12.0969 13.4895 13.5588C13.4895 13.5588 12.0058 15.0211 9.991 15.5506C9.991 15.5506 7.97616 16.08 5.96521 15.536C5.96521 15.536 3.95426 14.9919 2.48119 13.5189C2.48119 13.5189 1.00812 12.0458 0.464074 10.0349C0.464074 10.0349 -0.0799684 8.02391 0.449483 6.00907C0.449483 6.00907 0.978935 3.99423 2.44129 2.51052C2.44129 2.51052 3.90365 1.02681 5.9106 0.468202C6.07029 0.423754 6.2411 0.444564 6.38544 0.526053C6.52979 0.607542 6.63585 0.743035 6.6803 0.902725C6.71093 1.01276 6.71082 1.12909 6.67998 1.23907C6.67998 1.23907 6.20026 2.94978 6.65015 4.66859C6.65015 4.66859 7.10004 6.38739 8.35636 7.64371C8.35636 7.64371 9.61268 8.90003 11.3315 9.34992C11.3315 9.34992 13.0503 9.7998 14.761 9.32009C14.8675 9.29022 14.9801 9.28916 15.0871 9.31702L15.0973 9.31977C15.3079 9.37837 15.4725 9.54269 15.5315 9.75313C15.5614 9.85965 15.5625 9.97219 15.5346 10.0793L15.5318 10.0898ZM12.6121 12.6685C12.6121 12.6685 13.4718 11.8212 13.9618 10.7561C13.9618 10.7561 12.4909 10.9455 11.015 10.5592C11.015 10.5592 8.96838 10.0235 7.47247 8.52759C7.47247 8.52759 5.97657 7.03169 5.44089 4.9851C5.44089 4.9851 5.05458 3.5092 5.24392 2.0383C5.24392 2.0383 4.1789 2.52826 3.33156 3.38797C3.33156 3.38797 2.10318 4.63429 1.65844 6.32675C1.65844 6.32675 1.2137 8.01922 1.6707 9.70841C1.6707 9.70841 2.12769 11.3976 3.36507 12.635C3.36507 12.635 4.60246 13.8724 6.29165 14.3294C6.29165 14.3294 7.98084 14.7864 9.67331 14.3416C9.67331 14.3416 11.3658 13.8969 12.6121 12.6685Z" fill="#666666"/>
</svg>
