<svg width="801" height="173" viewBox="0 0 801 173" fill="none" xmlns="http://www.w3.org/2000/svg">
<path d="M1 125.39C29.8824 117.097 97.3061 91.2713 135.942 54.3093C184.237 8.10691 273.725 27.2987 331.964 67.1039C390.202 106.909 393.043 139.607 433.525 59.997C474.008 -19.6133 485.372 -3.26475 508.809 62.8403C532.246 128.945 557.104 171.448 578.411 131.643C599.717 91.8379 621.024 -11.7938 648.723 8.10882C676.421 28.0114 689.916 111.886 724.716 104.067C759.517 96.2481 788.636 37.2511 800 1" stroke="#E1E6EF"/>
<path d="M135.942 54.3093C97.3061 91.2713 29.8824 117.097 1 125.39V173H800V1C788.636 37.2511 759.517 96.2481 724.716 104.067C689.916 111.886 676.421 28.0114 648.723 8.10882C621.024 -11.7938 599.717 91.8379 578.411 131.643C557.104 171.448 532.246 128.945 508.809 62.8403C485.372 -3.26475 474.008 -19.6133 433.525 59.997C393.043 139.607 390.202 106.909 331.964 67.1039C273.725 27.2987 184.237 8.10691 135.942 54.3093Z" fill="url(#paint0_linear_1635_456)"/>
<defs>
<linearGradient id="paint0_linear_1635_456" x1="400.5" y1="-19" x2="400.5" y2="219.5" gradientUnits="userSpaceOnUse">
<stop stop-color="#E1E6EF"/>
<stop offset="1" stop-color="#E1E6EF" stop-opacity="0"/>
</linearGradient>
</defs>
</svg>
