<svg width="20" height="20" viewBox="0 0 20 20" fill="none" xmlns="http://www.w3.org/2000/svg">
<path fill-rule="evenodd" clip-rule="evenodd" d="M13.1628 2.51376C11.6526 1.875 10 1.875 10 1.875C8.34739 1.875 6.83719 2.51376 6.83719 2.51376C5.37899 3.13053 4.25476 4.25476 4.25476 4.25476C3.13053 5.37899 2.51376 6.83719 2.51376 6.83719C1.875 8.34739 1.875 10 1.875 10C1.875 11.6526 2.51376 13.1628 2.51376 13.1628C3.13053 14.621 4.25476 15.7452 4.25476 15.7452C5.37899 16.8695 6.83719 17.4862 6.83719 17.4862C8.34739 18.125 10 18.125 10 18.125C11.6526 18.125 13.1628 17.4862 13.1628 17.4862C14.621 16.8695 15.7452 15.7452 15.7452 15.7452C16.8695 14.621 17.4862 13.1628 17.4862 13.1628C18.125 11.6526 18.125 10 18.125 10C18.125 8.34739 17.4862 6.83719 17.4862 6.83719C16.8695 5.37899 15.7452 4.25476 15.7452 4.25476C14.621 3.13053 13.1628 2.51376 13.1628 2.51376ZM6.5625 9.6875C6.72335 9.6875 6.87801 9.74952 6.9943 9.86065L8.85193 11.6359L13.0061 7.67278C13.1179 7.56608 13.2653 7.50461 13.4199 7.50025L13.4375 7.5C13.6084 7.5 13.7718 7.56995 13.8897 7.69358C13.997 7.806 14.0585 7.95435 14.0623 8.10968C14.0626 8.11969 14.0626 8.1297 14.0623 8.13971C14.0584 8.30542 13.9887 8.46295 13.8688 8.57737L9.28298 12.9522C9.04135 13.1827 8.66119 13.1826 8.41976 12.9519L6.1307 10.7644C6.01086 10.6498 5.94142 10.4924 5.93766 10.3267L5.9375 10.3125C5.9375 10.1516 5.99952 9.99699 6.11065 9.8807C6.22517 9.76086 6.38261 9.69142 6.54832 9.68766L6.5625 9.6875Z" fill="#212121"/>
</svg>
