<svg width="24" height="24" viewBox="0 0 24 24" fill="none" xmlns="http://www.w3.org/2000/svg">
<circle cx="12" cy="12" r="12" fill="#242424"/>
<path fill-rule="evenodd" clip-rule="evenodd" d="M13.1904 15.6376C13.1904 15.6376 13.1894 15.6386 13.1889 15.6398L11.9885 18.8973C11.9885 18.8973 11.8794 19.1912 11.622 19.3702C11.622 19.3702 11.3646 19.5493 11.051 19.5493C11.051 19.5493 10.7375 19.5493 10.48 19.3702C10.48 19.3702 10.2226 19.1912 10.1131 18.8962L8.91309 15.6399L8.91252 15.6388L8.91165 15.6376C8.91165 15.6376 8.91068 15.6367 8.90936 15.6362L5.65201 14.4358C5.65201 14.4358 5.35806 14.3267 5.17903 14.0692C5.17903 14.0692 5 13.8118 5 13.4983C5 13.4983 5 13.1847 5.17903 12.9273C5.17903 12.9273 5.35806 12.6699 5.65311 12.5604L8.90939 11.3604C8.90939 11.3604 8.91068 11.3599 8.91165 11.3589C8.91165 11.3589 8.91262 11.3579 8.9131 11.3566L10.1135 8.09928C10.1135 8.09928 10.2226 7.80532 10.48 7.6263C10.48 7.6263 10.7375 7.44727 11.051 7.44727C11.051 7.44727 11.3646 7.44727 11.622 7.6263C11.622 7.6263 11.8794 7.80532 11.9889 8.10038L13.1889 11.3567L13.1893 11.3574L13.1904 11.3589C13.1904 11.3589 13.1913 11.3599 13.1927 11.3604L16.45 12.5608C16.45 12.5608 16.744 12.6699 16.923 12.9273C16.923 12.9273 17.102 13.1847 17.102 13.4983C17.102 13.4983 17.102 13.8118 16.923 14.0692C16.923 14.0692 16.744 14.3267 16.4489 14.4362L13.1926 15.6362L13.1917 15.6366L13.1904 15.6376ZM12.2511 15.2928C12.2511 15.2928 12.3275 15.0863 12.4833 14.9305C12.4833 14.9305 12.6395 14.7743 12.8469 14.6979L16.102 13.4983L12.8469 12.2987C12.8469 12.2987 12.6395 12.2223 12.4833 12.066C12.4833 12.066 12.327 11.9098 12.2506 11.7024L11.051 8.44727L9.85141 11.7024C9.85141 11.7024 9.77502 11.9098 9.61875 12.066C9.61875 12.066 9.46249 12.2223 9.25513 12.2987L6 13.4983L9.25515 14.6979C9.25515 14.6979 9.46249 14.7743 9.61875 14.9305C9.61875 14.9305 9.77502 15.0868 9.85142 15.2942L11.051 18.5493L12.2511 15.2928Z" fill="#72FFA2"/>
<path d="M15.3683 6.86936L15.3687 6.86872L15.3694 6.8683L16.3111 6.52125C16.3964 6.48958 16.4482 6.41513 16.4482 6.41513C16.5 6.34068 16.5 6.25 16.5 6.25C16.5 6.15932 16.4482 6.08487 16.4482 6.08487C16.3964 6.01042 16.3114 5.97887 16.3114 5.97887L15.3694 5.6317L15.3687 5.63128L15.3683 5.63063L15.0212 4.68889C14.9896 4.60355 14.9151 4.55178 14.9151 4.55178C14.8407 4.5 14.75 4.5 14.75 4.5C14.6593 4.5 14.5849 4.55178 14.5849 4.55178C14.5104 4.60355 14.4789 4.68857 14.4789 4.68857L14.1317 5.63062L14.1313 5.63128L14.1306 5.6317L13.1889 5.97875C13.1036 6.01042 13.0518 6.08487 13.0518 6.08487C13 6.15932 13 6.25 13 6.25C13 6.34068 13.0518 6.41513 13.0518 6.41513C13.1036 6.48958 13.1886 6.52113 13.1886 6.52113L14.1306 6.8683L14.1313 6.86872L14.1317 6.86937L14.4787 7.81111C14.5104 7.89645 14.5849 7.94822 14.5849 7.94822C14.6593 8 14.75 8 14.75 8C14.8407 8 14.9151 7.94822 14.9151 7.94822C14.9896 7.89645 15.0211 7.81143 15.0211 7.81143L15.3683 6.86936Z" fill="#72FFA2"/>
<path d="M17.6916 10.1924L17.6919 10.1919L17.6924 10.1916L18.3651 9.94375C18.426 9.92113 18.463 9.86795 18.463 9.86795C18.5 9.81477 18.5 9.75 18.5 9.75C18.5 9.68523 18.463 9.63205 18.463 9.63205C18.426 9.57887 18.3653 9.55633 18.3653 9.55633L17.6924 9.30836L17.6919 9.30806L17.6916 9.30759L17.4438 8.63492C17.4211 8.57397 17.3679 8.53698 17.3679 8.53698C17.3148 8.5 17.25 8.5 17.25 8.5C17.1852 8.5 17.1321 8.53698 17.1321 8.53698C17.0789 8.57397 17.0563 8.63469 17.0563 8.63469L16.8084 9.30759L16.8081 9.30806L16.8076 9.30836L16.1349 9.55625C16.074 9.57887 16.037 9.63205 16.037 9.63205C16 9.68523 16 9.75 16 9.75C16 9.81477 16.037 9.86795 16.037 9.86795C16.074 9.92113 16.1347 9.94367 16.1347 9.94367L16.8076 10.1916L16.8081 10.1919L16.8084 10.1924L17.0562 10.8651C17.0789 10.926 17.1321 10.963 17.1321 10.963C17.1852 11 17.25 11 17.25 11C17.3148 11 17.3679 10.963 17.3679 10.963C17.4211 10.926 17.4437 10.8653 17.4437 10.8653L17.6916 10.1924Z" fill="#72FFA2"/>
</svg>
