<svg width="16" height="19" viewBox="0 0 16 19" fill="none" xmlns="http://www.w3.org/2000/svg">
<path d="M8.70613 9.43315L12.8561 4.97432C12.9359 4.86979 12.9766 4.73708 12.9704 4.60201C12.9643 4.46694 12.9116 4.33916 12.8228 4.24354C12.7339 4.14791 12.6152 4.09127 12.4896 4.08464C12.3641 4.07801 12.2408 4.12185 12.1436 4.20765L7.99988 8.6732L3.85613 4.20765C3.75899 4.12185 3.63565 4.07801 3.51013 4.08464C3.3846 4.09127 3.26586 4.14791 3.17699 4.24354C3.08812 4.33916 3.03549 4.46694 3.02932 4.60201C3.02316 4.73708 3.0639 4.86979 3.14363 4.97432L7.29363 9.43315L3.14363 13.892C3.04974 13.994 2.99707 14.1317 2.99707 14.2753C2.99707 14.4189 3.04974 14.5566 3.14363 14.6587C3.2392 14.7581 3.36694 14.8137 3.49988 14.8137C3.63282 14.8137 3.76056 14.7581 3.85613 14.6587L7.99988 10.1931L12.1436 14.6587C12.2392 14.7581 12.3669 14.8137 12.4999 14.8137C12.6328 14.8137 12.7606 14.7581 12.8561 14.6587C12.95 14.5566 13.0027 14.4189 13.0027 14.2753C13.0027 14.1317 12.95 13.994 12.8561 13.892L8.70613 9.43315Z" fill="#606164"/>
</svg>
