<svg width="54" height="115" viewBox="0 0 54 115" fill="none" xmlns="http://www.w3.org/2000/svg">
  <path fill-rule="evenodd" clip-rule="evenodd"
        d="M36.6426 87.4671L13.2544 73.9639C0.579601 66.6461 -3.76308 50.4389 3.55469 37.7642C10.2855 26.1061 24.5368 21.497 36.6426 26.5269V87.4671Z"
        fill="#188FFF"/>
  <path fill-rule="evenodd" clip-rule="evenodd"
        d="M36.6426 68.2345C31.1687 71.0504 24.4211 71.1123 18.6939 67.8057C9.73587 62.6338 6.66663 51.1792 11.8385 42.2212C16.8614 33.5214 27.81 30.3758 36.6426 34.9392V68.2345Z"
        fill="white"/>
  <path
    d="M32.6824 4.48667C27.7159 11.238 33.2913 15.642 36.5432 17C36.5432 11.4709 40.9597 9.14279 47.1678 9.14279C53.3758 9.14279 56.0364 1.57659 51.0109 1.8676C45.9853 2.15861 38.8904 -3.95255 32.6824 4.48667Z"
    fill="#188FFF"/>
  <path
    d="M31.6417 105.529C32.0256 105.737 32.4219 105.928 32.8315 106.102C34.1648 106.669 35.4354 107.062 36.6426 107.296V114.824C33.4312 114.494 30.763 113.656 28.5149 112.445C28.3274 112.344 28.1428 112.241 27.9611 112.135C21.146 108.157 18.3398 100.648 15.775 93.7849C13.6101 87.9922 11.6172 82.6595 7.53058 80.2982C6.88745 79.9267 6.19246 79.6287 5.43681 79.4142C4.55614 79.1655 3.89688 78.8994 3.42399 78.6264C0.921032 77.182 3.63536 75.546 6.37641 75.3027C8.40634 75.1258 10.1102 75.5287 11.5832 76.3644C11.6172 76.3837 11.6511 76.4032 11.6849 76.423C15.5088 78.66 17.7687 83.8334 20.1644 89.318C22.8197 95.3966 25.6419 101.857 30.9452 105.126C31.1728 105.266 31.4049 105.401 31.6417 105.529Z"
    fill="#188FFF"/>
  <mask id="mask0_1714_38259" style="mask-type:alpha" maskUnits="userSpaceOnUse" x="2" y="75" width="35" height="40">
    <path
      d="M31.6417 105.529C32.0256 105.737 32.4219 105.928 32.8315 106.102C34.1648 106.669 35.4354 107.062 36.6426 107.296V114.824C33.4312 114.494 30.763 113.656 28.5149 112.445C28.3274 112.344 28.1428 112.241 27.9611 112.135C21.146 108.157 18.3398 100.648 15.775 93.7849C13.6101 87.9922 11.6172 82.6595 7.53058 80.2982C6.88745 79.9267 6.19246 79.6287 5.43681 79.4142C4.55614 79.1655 3.89688 78.8994 3.42399 78.6264C0.921032 77.182 3.63536 75.546 6.37641 75.3027C8.40634 75.1258 10.1102 75.5287 11.5832 76.3644C11.6172 76.3837 11.6511 76.4032 11.6849 76.423C15.5088 78.66 17.7687 83.8334 20.1644 89.318C22.8197 95.3966 25.6419 101.857 30.9452 105.126C31.1728 105.266 31.4049 105.401 31.6417 105.529Z"
      fill="#188FFF"/>
  </mask>
  <g mask="url(#mask0_1714_38259)">
    <g filter="url(#filter0_dd_1714_38259)">
      <rect width="385" height="467" rx="8" transform="matrix(-1 0 0 1 421.643 -193)" fill="#3F444D"/>
    </g>
  </g>
  <path fill-rule="evenodd" clip-rule="evenodd"
        d="M36.1218 108.366C34.2639 110.856 26.8477 107.126 28.6746 103.564C28.8996 103.125 29.231 102.812 29.6328 102.608C32.044 101.386 36.9931 104.086 36.7259 106.942C36.6814 107.418 36.492 107.898 36.1218 108.366ZM30.0782 104.117C29.3218 105.519 33.8024 108.248 34.8889 107.587L34.9336 107.625C36.274 106.808 30.8345 102.714 30.0782 104.117Z"
        fill="#0A0D14"/>
  <ellipse cx="2.99606" cy="1.12496" rx="2.99606" ry="1.12496"
           transform="matrix(0.789169 0.612884 0.614677 -0.789784 29.9277 104.299)" fill="#0A0D14"/>
  <path fill-rule="evenodd" clip-rule="evenodd"
        d="M29.7749 103.375C28.197 106.339 34.0622 109.166 35.6333 107.077C38.1308 103.936 31.3294 100.452 29.7749 103.375ZM30.8894 103.785C30.2383 104.953 33.7678 107.049 34.6629 106.478L34.6979 106.507C35.8022 105.8 31.5406 102.616 30.8894 103.785Z"
        fill="#188FFF"/>
  <path
    d="M22.1765 93.6716C18.7943 95.8171 23.2896 102.792 26.1543 101.587C30.603 99.8655 25.5099 91.5557 22.1765 93.6716ZM25.4873 100.291C24.2161 100.309 21.7413 95.6857 23.105 94.8596C24.4686 94.0336 27.0762 100.321 25.507 100.345L25.4873 100.291Z"
    fill="#0A0D14"/>
  <ellipse cx="2.99527" cy="1.12554" rx="2.99527" ry="1.12554"
           transform="matrix(0.368758 0.928716 0.930126 -0.369283 22.8818 94.9414)" fill="#0A0D14"/>
  <path
    d="M23.2202 94.0663C20.3561 95.8223 23.9736 101.233 26.3877 100.228C30.1338 98.7856 26.0429 92.3346 23.2202 94.0663ZM25.856 99.2192C24.7947 99.2583 22.8182 95.662 23.9722 94.9848C25.1262 94.3075 27.1815 99.2123 25.8714 99.2619L25.856 99.2192Z"
    fill="#188FFF"/>
  <path
    d="M17.2554 84.71C14.4101 86.5149 18.1917 92.3826 20.6016 91.3685C24.3441 89.9205 20.0595 82.93 17.2554 84.71ZM20.0405 90.2783C18.9711 90.2939 16.8893 86.4043 18.0364 85.7094C19.1836 85.0146 21.3772 90.3036 20.0571 90.3243L20.0405 90.2783Z"
    fill="#0A0D14"/>
  <ellipse cx="2.51973" cy="0.946841" rx="2.51973" ry="0.946841"
           transform="matrix(0.368758 0.928716 0.930126 -0.369283 17.8486 85.7793)" fill="#0A0D14"/>
  <path
    d="M18.1335 85.0425C15.7241 86.5197 18.7673 91.0713 20.7981 90.2257C23.9494 89.0125 20.5081 83.5857 18.1335 85.0425ZM20.3508 89.3773C19.458 89.4101 17.7954 86.3848 18.7661 85.8151C19.7369 85.2454 21.4659 89.3714 20.3638 89.4132L20.3508 89.3773Z"
    fill="#188FFF"/>
  <path
    d="M12.6129 77.676C10.7478 79.453 14.4612 83.2954 16.1177 82.1766C18.7092 80.5343 14.4509 75.9239 12.6129 77.676ZM15.5339 81.4417C14.734 81.6121 12.5913 79.002 13.3482 78.3102C14.105 77.6184 16.5405 81.2622 15.5532 81.4737L15.5339 81.4417Z"
    fill="#0A0D14"/>
  <ellipse cx="1.92863" cy="0.723463" rx="1.92863" ry="0.723463"
           transform="matrix(0.542572 0.838959 0.840701 -0.543126 13.2188 78.3906)" fill="#0A0D14"/>
  <path
    d="M13.3219 77.7954C11.7348 79.2618 14.6977 82.2261 16.0951 81.29C18.2782 79.9116 14.8859 76.3496 13.3219 77.7954ZM15.6328 80.7196C14.9679 80.8769 13.2687 78.8531 13.9119 78.2814C14.5552 77.7097 16.4685 80.5497 15.6478 80.7447L15.6328 80.7196Z"
    fill="#188FFF"/>
  <path fill-rule="evenodd" clip-rule="evenodd"
        d="M36.6426 54.9487C36.4587 55.4631 36.2261 55.9683 35.9432 56.4582C33.4073 60.8505 27.7909 62.3554 23.3986 59.8195C22.3382 59.2073 21.4462 58.4156 20.7386 57.505C21.8783 57.4063 22.9532 56.7712 23.5685 55.7054C24.5695 53.9716 23.9755 51.7545 22.2417 50.7535C21.1757 50.1381 19.9272 50.1256 18.8908 50.6101C19.0482 49.4674 19.4249 48.3354 20.0372 47.2748C22.5731 42.8825 28.1896 41.3776 32.5819 43.9135C34.5493 45.0494 35.9374 46.8034 36.6426 48.7885V54.9487Z"
        fill="#0A0D14"/>
  <mask id="mask1_1714_38259" style="mask-type:alpha" maskUnits="userSpaceOnUse" x="0" y="24" width="37" height="64">
    <path fill-rule="evenodd" clip-rule="evenodd"
          d="M36.6426 87.4671L13.2544 73.9639C0.579601 66.6461 -3.76308 50.4389 3.55469 37.7642C10.2855 26.1061 24.5368 21.497 36.6426 26.5269V87.4671Z"
          fill="#188FFF"/>
  </mask>
  <g mask="url(#mask1_1714_38259)">
    <g filter="url(#filter1_dd_1714_38259)">
      <rect width="385" height="467" rx="8" transform="matrix(-1 0 0 1 421.643 -193)" fill="#3F444D"/>
    </g>
  </g>
  <defs>
    <filter id="filter0_dd_1714_38259" x="28.6426" y="-197" width="401" height="483" filterUnits="userSpaceOnUse"
            color-interpolation-filters="sRGB">
      <feFlood flood-opacity="0" result="BackgroundImageFix"/>
      <feColorMatrix in="SourceAlpha" type="matrix" values="0 0 0 0 0 0 0 0 0 0 0 0 0 0 0 0 0 0 127 0"
                     result="hardAlpha"/>
      <feOffset dy="4"/>
      <feGaussianBlur stdDeviation="4"/>
      <feColorMatrix type="matrix" values="0 0 0 0 0 0 0 0 0 0 0 0 0 0 0 0 0 0 0.56 0"/>
      <feBlend mode="normal" in2="BackgroundImageFix" result="effect1_dropShadow_1714_38259"/>
      <feColorMatrix in="SourceAlpha" type="matrix" values="0 0 0 0 0 0 0 0 0 0 0 0 0 0 0 0 0 0 127 0"
                     result="hardAlpha"/>
      <feOffset dy="-1"/>
      <feGaussianBlur stdDeviation="1"/>
      <feColorMatrix type="matrix" values="0 0 0 0 0 0 0 0 0 0 0 0 0 0 0 0 0 0 0.36 0"/>
      <feBlend mode="normal" in2="effect1_dropShadow_1714_38259" result="effect2_dropShadow_1714_38259"/>
      <feBlend mode="normal" in="SourceGraphic" in2="effect2_dropShadow_1714_38259" result="shape"/>
    </filter>
    <filter id="filter1_dd_1714_38259" x="28.6426" y="-197" width="401" height="483" filterUnits="userSpaceOnUse"
            color-interpolation-filters="sRGB">
      <feFlood flood-opacity="0" result="BackgroundImageFix"/>
      <feColorMatrix in="SourceAlpha" type="matrix" values="0 0 0 0 0 0 0 0 0 0 0 0 0 0 0 0 0 0 127 0"
                     result="hardAlpha"/>
      <feOffset dy="4"/>
      <feGaussianBlur stdDeviation="4"/>
      <feColorMatrix type="matrix" values="0 0 0 0 0 0 0 0 0 0 0 0 0 0 0 0 0 0 0.56 0"/>
      <feBlend mode="normal" in2="BackgroundImageFix" result="effect1_dropShadow_1714_38259"/>
      <feColorMatrix in="SourceAlpha" type="matrix" values="0 0 0 0 0 0 0 0 0 0 0 0 0 0 0 0 0 0 127 0"
                     result="hardAlpha"/>
      <feOffset dy="-1"/>
      <feGaussianBlur stdDeviation="1"/>
      <feColorMatrix type="matrix" values="0 0 0 0 0 0 0 0 0 0 0 0 0 0 0 0 0 0 0.36 0"/>
      <feBlend mode="normal" in2="effect1_dropShadow_1714_38259" result="effect2_dropShadow_1714_38259"/>
      <feBlend mode="normal" in="SourceGraphic" in2="effect2_dropShadow_1714_38259" result="shape"/>
    </filter>
  </defs>
</svg>
