<svg width="54" height="115" viewBox="0 0 54 115" fill="none" xmlns="http://www.w3.org/2000/svg">
<path fill-rule="evenodd" clip-rule="evenodd" d="M17 87.4671L40.3882 73.9639C53.063 66.6461 57.4057 50.4389 50.0879 37.7642C43.3571 26.1061 29.1058 21.497 17 26.5269V87.4671Z" fill="#188FFF"/>
<path fill-rule="evenodd" clip-rule="evenodd" d="M17 68.2345C22.4739 71.0504 29.2215 71.1123 34.9487 67.8057C43.9067 62.6338 46.976 51.1792 41.804 42.2212C36.7812 33.5214 25.8325 30.3758 17 34.9392V68.2345Z" fill="white"/>
<path d="M20.9602 4.48667C25.9266 11.238 20.3512 15.642 17.0994 17C17.0994 11.4709 12.6828 9.14279 6.47479 9.14279C0.266737 9.14279 -2.39386 1.57659 2.63171 1.8676C7.65728 2.15861 14.7521 -3.95255 20.9602 4.48667Z" fill="#188FFF"/>
<path d="M22.0009 105.529C21.617 105.737 21.2207 105.928 20.8111 106.102C19.4778 106.669 18.2072 107.062 17 107.296V114.824C20.2114 114.494 22.8796 113.656 25.1277 112.445C25.3152 112.344 25.4998 112.241 25.6815 112.135C32.4966 108.157 35.3028 100.648 37.8676 93.7849C40.0324 87.9922 42.0254 82.6595 46.112 80.2982C46.7551 79.9267 47.4501 79.6287 48.2058 79.4142C49.0864 79.1655 49.7457 78.8994 50.2186 78.6264C52.7215 77.182 50.0072 75.546 47.2662 75.3027C45.2362 75.1258 43.5323 75.5287 42.0594 76.3644C42.0253 76.3837 41.9914 76.4032 41.9577 76.423C38.1338 78.66 35.8739 83.8334 33.4781 89.318C30.8229 95.3966 28.0006 101.857 22.6973 105.126C22.4698 105.266 22.2377 105.401 22.0009 105.529Z" fill="#188FFF"/>
<mask id="mask0_1710_38199" style="mask-type:alpha" maskUnits="userSpaceOnUse" x="17" y="75" width="35" height="40">
<path d="M22.0009 105.529C21.617 105.737 21.2207 105.928 20.8111 106.102C19.4778 106.669 18.2072 107.062 17 107.296V114.824C20.2114 114.494 22.8796 113.656 25.1277 112.445C25.3152 112.344 25.4998 112.241 25.6815 112.135C32.4966 108.157 35.3028 100.648 37.8676 93.7849C40.0324 87.9922 42.0254 82.6595 46.112 80.2982C46.7551 79.9267 47.4501 79.6287 48.2058 79.4142C49.0864 79.1655 49.7457 78.8994 50.2186 78.6264C52.7215 77.182 50.0072 75.546 47.2662 75.3027C45.2362 75.1258 43.5323 75.5287 42.0594 76.3644C42.0253 76.3837 41.9914 76.4032 41.9577 76.423C38.1338 78.66 35.8739 83.8334 33.4781 89.318C30.8229 95.3966 28.0006 101.857 22.6973 105.126C22.4698 105.266 22.2377 105.401 22.0009 105.529Z" fill="#188FFF"/>
</mask>
<g mask="url(#mask0_1710_38199)">
<g filter="url(#filter0_dd_1710_38199)">
<rect x="-368" y="-193" width="385" height="467" rx="8" fill="#3F444D"/>
</g>
</g>
<path fill-rule="evenodd" clip-rule="evenodd" d="M17.5208 108.366C19.3787 110.856 26.7948 107.126 24.9679 103.564C24.743 103.125 24.4116 102.812 24.0097 102.608C21.5986 101.386 16.6495 104.086 16.9166 106.942C16.9612 107.418 17.1506 107.898 17.5208 108.366ZM23.5644 104.117C24.3208 105.519 19.8402 108.248 18.7537 107.587L18.709 107.625C17.3686 106.808 22.8081 102.714 23.5644 104.117Z" fill="#0A0D14"/>
<ellipse cx="2.99606" cy="1.12496" rx="2.99606" ry="1.12496" transform="matrix(-0.789169 0.612884 -0.614677 -0.789784 23.7148 104.299)" fill="#0A0D14"/>
<path fill-rule="evenodd" clip-rule="evenodd" d="M23.8677 103.375C25.4456 106.339 19.5803 109.166 18.0093 107.077C15.5118 103.936 22.3131 100.452 23.8677 103.375ZM22.7531 103.785C23.4043 104.953 19.8748 107.049 18.9797 106.478L18.9447 106.507C17.8404 105.8 22.102 102.616 22.7531 103.785Z" fill="#188FFF"/>
<path d="M31.466 93.6716C34.8483 95.8171 30.353 102.792 27.4883 101.587C23.0395 99.8655 28.1327 91.5557 31.466 93.6716ZM28.1553 100.291C29.4265 100.309 31.9012 95.6857 30.5376 94.8596C29.1739 94.0336 26.5664 100.321 28.1356 100.345L28.1553 100.291Z" fill="#0A0D14"/>
<ellipse cx="2.99527" cy="1.12554" rx="2.99527" ry="1.12554" transform="matrix(-0.368758 0.928716 -0.930126 -0.369283 30.7607 94.9414)" fill="#0A0D14"/>
<path d="M30.4224 94.0663C33.2865 95.8223 29.669 101.233 27.2549 100.228C23.5088 98.7856 27.5997 92.3346 30.4224 94.0663ZM27.7866 99.2192C28.8479 99.2583 30.8243 95.662 29.6703 94.9848C28.5164 94.3075 26.4611 99.2123 27.7712 99.2619L27.7866 99.2192Z" fill="#188FFF"/>
<path d="M36.3872 84.71C39.2325 86.5149 35.4509 92.3826 33.041 91.3685C29.2985 89.9205 33.5831 82.93 36.3872 84.71ZM33.6021 90.2783C34.6714 90.2939 36.7533 86.4043 35.6061 85.7094C34.459 85.0146 32.2654 90.3036 33.5855 90.3243L33.6021 90.2783Z" fill="#0A0D14"/>
<ellipse cx="2.51973" cy="0.946841" rx="2.51973" ry="0.946841" transform="matrix(-0.368758 0.928716 -0.930126 -0.369283 35.7939 85.7793)" fill="#0A0D14"/>
<path d="M35.5091 85.0425C37.9185 86.5197 34.8753 91.0713 32.8444 90.2257C29.6931 89.0125 33.1345 83.5857 35.5091 85.0425ZM33.2918 89.3773C34.1845 89.4101 35.8472 86.3848 34.8764 85.8151C33.9057 85.2454 32.1767 89.3714 33.2788 89.4132L33.2918 89.3773Z" fill="#188FFF"/>
<path d="M41.0296 77.676C42.8947 79.453 39.1814 83.2954 37.5249 82.1766C34.9334 80.5343 39.1917 75.9239 41.0296 77.676ZM38.1086 81.4417C38.9086 81.6121 41.0513 79.002 40.2944 78.3102C39.5376 77.6184 37.102 81.2622 38.0893 81.4737L38.1086 81.4417Z" fill="#0A0D14"/>
<ellipse cx="1.92863" cy="0.723463" rx="1.92863" ry="0.723463" transform="matrix(-0.542572 0.838959 -0.840701 -0.543126 40.4238 78.3906)" fill="#0A0D14"/>
<path d="M40.3207 77.7954C41.9078 79.2618 38.9449 82.2261 37.5475 81.29C35.3644 79.9116 38.7567 76.3496 40.3207 77.7954ZM38.0098 80.7196C38.6747 80.8769 40.3739 78.8531 39.7307 78.2814C39.0874 77.7097 37.1741 80.5497 37.9947 80.7447L38.0098 80.7196Z" fill="#188FFF"/>
<path fill-rule="evenodd" clip-rule="evenodd" d="M17 54.9487C17.1839 55.4631 17.4165 55.9683 17.6993 56.4582C20.2352 60.8505 25.8517 62.3554 30.244 59.8195C31.3043 59.2073 32.1964 58.4156 32.904 57.505C31.7643 57.4063 30.6894 56.7712 30.0741 55.7054C29.073 53.9716 29.6671 51.7545 31.4009 50.7535C32.4668 50.1381 33.7154 50.1256 34.7518 50.6101C34.5944 49.4674 34.2177 48.3354 33.6053 47.2748C31.0694 42.8825 25.453 41.3776 21.0607 43.9135C19.0932 45.0494 17.7051 46.8034 17 48.7885V54.9487Z" fill="#0A0D14"/>
<mask id="mask1_1710_38199" style="mask-type:alpha" maskUnits="userSpaceOnUse" x="17" y="24" width="37" height="64">
<path fill-rule="evenodd" clip-rule="evenodd" d="M17 87.4671L40.3882 73.9639C53.063 66.6461 57.4057 50.4389 50.0879 37.7642C43.3571 26.1061 29.1058 21.497 17 26.5269V87.4671Z" fill="#188FFF"/>
</mask>
<g mask="url(#mask1_1710_38199)">
<g filter="url(#filter1_dd_1710_38199)">
<rect x="-368" y="-193" width="385" height="467" rx="8" fill="#3F444D"/>
</g>
</g>
<defs>
<filter id="filter0_dd_1710_38199" x="-376" y="-197" width="401" height="483" filterUnits="userSpaceOnUse" color-interpolation-filters="sRGB">
<feFlood flood-opacity="0" result="BackgroundImageFix"/>
<feColorMatrix in="SourceAlpha" type="matrix" values="0 0 0 0 0 0 0 0 0 0 0 0 0 0 0 0 0 0 127 0" result="hardAlpha"/>
<feOffset dy="4"/>
<feGaussianBlur stdDeviation="4"/>
<feColorMatrix type="matrix" values="0 0 0 0 0 0 0 0 0 0 0 0 0 0 0 0 0 0 0.56 0"/>
<feBlend mode="normal" in2="BackgroundImageFix" result="effect1_dropShadow_1710_38199"/>
<feColorMatrix in="SourceAlpha" type="matrix" values="0 0 0 0 0 0 0 0 0 0 0 0 0 0 0 0 0 0 127 0" result="hardAlpha"/>
<feOffset dy="-1"/>
<feGaussianBlur stdDeviation="1"/>
<feColorMatrix type="matrix" values="0 0 0 0 0 0 0 0 0 0 0 0 0 0 0 0 0 0 0.36 0"/>
<feBlend mode="normal" in2="effect1_dropShadow_1710_38199" result="effect2_dropShadow_1710_38199"/>
<feBlend mode="normal" in="SourceGraphic" in2="effect2_dropShadow_1710_38199" result="shape"/>
</filter>
<filter id="filter1_dd_1710_38199" x="-376" y="-197" width="401" height="483" filterUnits="userSpaceOnUse" color-interpolation-filters="sRGB">
<feFlood flood-opacity="0" result="BackgroundImageFix"/>
<feColorMatrix in="SourceAlpha" type="matrix" values="0 0 0 0 0 0 0 0 0 0 0 0 0 0 0 0 0 0 127 0" result="hardAlpha"/>
<feOffset dy="4"/>
<feGaussianBlur stdDeviation="4"/>
<feColorMatrix type="matrix" values="0 0 0 0 0 0 0 0 0 0 0 0 0 0 0 0 0 0 0.56 0"/>
<feBlend mode="normal" in2="BackgroundImageFix" result="effect1_dropShadow_1710_38199"/>
<feColorMatrix in="SourceAlpha" type="matrix" values="0 0 0 0 0 0 0 0 0 0 0 0 0 0 0 0 0 0 127 0" result="hardAlpha"/>
<feOffset dy="-1"/>
<feGaussianBlur stdDeviation="1"/>
<feColorMatrix type="matrix" values="0 0 0 0 0 0 0 0 0 0 0 0 0 0 0 0 0 0 0.36 0"/>
<feBlend mode="normal" in2="effect1_dropShadow_1710_38199" result="effect2_dropShadow_1710_38199"/>
<feBlend mode="normal" in="SourceGraphic" in2="effect2_dropShadow_1710_38199" result="shape"/>
</filter>
</defs>
</svg>
