<svg width="119" height="71" viewBox="0 0 119 71" fill="none" xmlns="http://www.w3.org/2000/svg">
<g clip-path="url(#clip0_1783_20020)">
<path d="M96.5312 27.303C87.6083 37.2533 93.8816 50.2062 89.0863 62.8909C83.306 78.1563 64.425 84.7427 53.2146 77.0687C55.1786 73.0682 57.2672 69.1856 59.6802 65.4281C77.9037 74.6351 82.124 58.2723 85.0209 44.2923C87.2187 33.6557 89.2994 21.78 102.008 19.0616C106.804 18.0328 110.403 19.0825 107.946 20.4947C105.954 21.6633 101.578 21.6665 96.5312 27.303Z" fill="#188FFF"/>
<path d="M89.6978 59.8728C86.0323 58.626 88.3424 49.1348 91.2875 49.4969C95.8219 49.888 93.3107 61.1032 89.6978 59.8728ZM91.0128 51.2013C89.8406 51.6264 88.7731 57.7406 90.2408 58.1991C91.7085 58.6575 92.4642 50.6095 91.0166 51.1323L91.0128 51.2013Z" fill="#0A0D14"/>
<ellipse cx="3.08638" cy="1.07551" rx="3.08638" ry="1.07551" transform="matrix(0.0876053 -0.99757 0.994612 0.0890402 89.9883 57.8965)" fill="#0A0D14"/>
<path d="M90.5355 59.415C87.4507 58.3658 89.3948 50.3784 91.8733 50.6831C95.6892 51.0123 93.5759 60.4505 90.5355 59.415ZM91.6421 52.1175C90.6556 52.4753 89.7573 57.6207 90.9924 58.0065C92.2275 58.3923 92.8635 51.6194 91.6453 52.0594L91.6421 52.1175Z" fill="#188FFF"/>
<path d="M90.4504 47.4966C87.2422 46.4198 89.2277 38.1161 91.8032 38.4221C95.7677 38.748 93.6125 48.5592 90.4504 47.4966ZM91.5691 39.9128C90.546 40.2885 89.6346 45.6362 90.919 46.0318C92.2035 46.4273 92.8356 39.3904 91.5722 39.8525L91.5691 39.9128Z" fill="#0A0D14"/>
<ellipse cx="2.6976" cy="0.940033" rx="2.6976" ry="0.940033" transform="matrix(0.0835707 -0.997916 0.994964 0.0850176 90.6973 45.7695)" fill="#0A0D14"/>
<path d="M91.1812 47.0941C88.4813 46.1879 90.1522 39.1999 92.3196 39.4575C95.656 39.7317 93.8422 47.9884 91.1812 47.0941ZM92.1226 40.7119C91.2616 41.0281 90.4947 45.5285 91.5756 45.8614C92.6565 46.1942 93.1884 40.2723 92.1252 40.6612L92.1226 40.7119Z" fill="#188FFF"/>
<path d="M91.5954 35.8529C88.7347 34.045 92.6354 26.4504 95.0645 27.3593C98.8382 28.6173 94.4146 37.6361 91.5954 35.8529ZM94.4831 28.7517C93.4 28.8737 91.2447 33.852 92.3985 34.5413C93.5522 35.2305 95.8374 28.545 94.5004 28.6939L94.4831 28.7517Z" fill="#0A0D14"/>
<ellipse cx="2.6976" cy="0.940033" rx="2.6976" ry="0.940033" transform="matrix(0.318167 -0.949521 0.94631 0.318872 92.2451 34.2324)" fill="#0A0D14"/>
<path d="M92.4005 35.636C89.9931 34.1146 93.2758 27.7233 95.32 28.4882C98.4958 29.5469 94.7731 37.1367 92.4005 35.636ZM94.8307 29.66C93.9192 29.7627 92.1055 33.9522 93.0764 34.5322C94.0473 35.1122 95.9704 29.4861 94.8453 29.6113L94.8307 29.66Z" fill="#188FFF"/>
<path d="M96.7515 25.7063C95.6393 23.2032 101.68 19.8461 102.906 21.5501C104.88 24.0938 97.847 28.1742 96.7515 25.7063ZM101.888 22.2257C101.105 21.8208 97.4153 24.202 97.8818 25.1847C98.3484 26.1674 102.893 22.6957 101.926 22.1946L101.888 22.2257Z" fill="#0A0D14"/>
<ellipse cx="2.18347" cy="0.760876" rx="2.18347" ry="0.760876" transform="matrix(0.792075 -0.612728 0.609668 0.790877 97.9175 24.9082)" fill="#0A0D14"/>
<path d="M97.3913 25.9222C96.4553 23.8157 101.539 20.9905 102.57 22.4246C104.232 24.5652 98.3132 27.9991 97.3913 25.9222ZM101.714 22.9932C101.055 22.6524 97.9499 24.6563 98.3425 25.4833C98.7351 26.3103 102.559 23.3886 101.746 22.967L101.714 22.9932Z" fill="#188FFF"/>
<path d="M114.628 16.3726C114.628 14 112.32 12.2633 109.844 12.2633" stroke="#F1F3F9" stroke-width="1.5" stroke-linecap="round"/>
<path d="M112.703 18.427C112.703 16.5 110.5 15.0814 108.825 15.0803" stroke="#F1F3F9" stroke-width="1.5" stroke-linecap="round"/>
</g>
<path d="M3.43098 55.4641C8.5938 51.783 11.9615 55.9154 13 58.3257C8.77183 58.3257 6.99155 61.5991 6.99155 66.2005C6.99155 70.8018 1.20563 72.7738 1.42816 69.0489C1.6507 65.324 -3.02254 60.0654 3.43098 55.4641Z" fill="#188FFF"/>
<g clip-path="url(#clip1_1783_20020)">
<path d="M77.8682 55.645C81.0123 41.3511 71.9736 27.2149 57.6797 24.0709C43.3859 20.9268 29.2497 29.9655 26.1056 44.2593L15.2787 93.4821L67.0413 104.868L77.8682 55.645Z" fill="#188FFF"/>
<path d="M33.3312 47.5985C31.1091 57.7008 37.4973 67.6918 47.5997 69.9139C57.702 72.1359 67.6929 65.7477 69.915 55.6454C72.1371 45.5431 65.7489 35.5522 55.6466 33.3301C45.5442 31.108 35.5533 37.4962 33.3312 47.5985Z" fill="white"/>
<path fill-rule="evenodd" clip-rule="evenodd" d="M57.9246 42.0345C55.9693 41.6045 54.7328 39.6707 55.1629 37.7154C55.3453 36.8863 55.798 36.1865 56.4081 35.6882C56.3923 35.6846 56.3765 35.6811 56.3607 35.6776C51.4073 34.5881 46.5085 37.7203 45.4189 42.6737C44.3294 47.6271 47.4617 52.5259 52.4151 53.6155C57.3685 54.705 62.2673 51.5727 63.3568 46.6193C63.9018 44.1416 63.3905 41.6776 62.1233 39.6971C61.5257 41.403 59.7344 42.4326 57.9246 42.0345Z" fill="#0A0D14"/>
</g>
<defs>
<clipPath id="clip0_1783_20020">
<rect width="50" height="51" fill="white" transform="translate(69 7)"/>
</clipPath>
<clipPath id="clip1_1783_20020">
<rect width="74" height="58" fill="white" transform="matrix(-1 -1.49246e-08 -1.49246e-08 1 83.9961 0)"/>
</clipPath>
</defs>
</svg>
