<svg width="24" height="24" viewBox="0 0 24 24" fill="none" xmlns="http://www.w3.org/2000/svg">
<path fill-rule="evenodd" clip-rule="evenodd" d="M12 3.875C12 3.875 13.6526 3.875 15.1628 4.51376C15.1628 4.51376 16.621 5.13053 17.7452 6.25476C17.7452 6.25476 18.8695 7.37899 19.4862 8.83719C19.4862 8.83719 20.125 10.3474 20.125 12C20.125 12 20.125 13.6526 19.4862 15.1628C19.4862 15.1628 18.8695 16.621 17.7452 17.7452C17.7452 17.7452 16.621 18.8695 15.1628 19.4862C15.1628 19.4862 13.6526 20.125 12 20.125C12 20.125 10.3474 20.125 8.83719 19.4862C8.83719 19.4862 7.37899 18.8695 6.25476 17.7452C6.25476 17.7452 5.13053 16.621 4.51376 15.1628C4.51376 15.1628 3.875 13.6526 3.875 12C3.875 12 3.875 10.3474 4.51376 8.83719C4.51376 8.83719 5.13053 7.37899 6.25476 6.25476C6.25476 6.25476 7.37899 5.13053 8.83719 4.51376C8.83719 4.51376 10.3474 3.875 12 3.875ZM12 5.125C12 5.125 10.6009 5.125 9.32413 5.66501C9.32413 5.66501 8.09047 6.18681 7.13864 7.13864C7.13864 7.13864 6.18681 8.09047 5.66502 9.32413C5.66502 9.32413 5.125 10.6009 5.125 12C5.125 12 5.125 13.3991 5.66502 14.6759C5.66502 14.6759 6.18681 15.9095 7.13864 16.8614C7.13864 16.8614 8.09047 17.8132 9.32413 18.335C9.32413 18.335 10.6009 18.875 12 18.875C12 18.875 13.3991 18.875 14.6759 18.335C14.6759 18.335 15.9095 17.8132 16.8614 16.8614C16.8614 16.8614 17.8132 15.9095 18.335 14.6759C18.335 14.6759 18.875 13.3991 18.875 12C18.875 12 18.875 10.6009 18.335 9.32413C18.335 9.32413 17.8132 8.09047 16.8614 7.13864C16.8614 7.13864 15.9095 6.18681 14.6759 5.66501C14.6759 5.66501 13.3991 5.125 12 5.125Z" fill="#1F2020"/>
<path d="M8.875 12.625H15.125C15.4702 12.625 15.75 12.3452 15.75 12C15.75 11.6548 15.4702 11.375 15.125 11.375H8.875C8.52982 11.375 8.25 11.6548 8.25 12C8.25 12.3452 8.52982 12.625 8.875 12.625Z" fill="#1F2020"/>
<path d="M11.375 8.875V15.125C11.375 15.4702 11.6548 15.75 12 15.75C12.3452 15.75 12.625 15.4702 12.625 15.125V8.875C12.625 8.52982 12.3452 8.25 12 8.25C11.6548 8.25 11.375 8.52982 11.375 8.875Z" fill="#1F2020"/>
</svg>
