<svg width="36" height="36" viewBox="0 0 36 36" fill="none" xmlns="http://www.w3.org/2000/svg">
<circle opacity="0.6" cx="18" cy="18" r="18" fill="#72FFA2"/>
<circle cx="18" cy="18" r="14" fill="#72FFA2"/>
<path fill-rule="evenodd" clip-rule="evenodd" d="M19.488 22.5505C19.488 22.5505 19.4868 22.5517 19.4862 22.5532L17.9856 26.625C17.9856 26.625 17.8492 26.9924 17.5275 27.2162C17.5275 27.2162 17.2057 27.44 16.8138 27.44C16.8138 27.44 16.4218 27.44 16.1 27.2162C16.1 27.2162 15.7783 26.9924 15.6414 26.6236L14.1414 22.5533L14.1407 22.5519L14.1396 22.5505C14.1396 22.5505 14.1383 22.5492 14.1367 22.5486L10.065 21.0481C10.065 21.0481 9.69757 20.9117 9.47379 20.59C9.47379 20.59 9.25 20.2682 9.25 19.8763C9.25 19.8763 9.25 19.4843 9.47379 19.1625C9.47379 19.1625 9.69757 18.8408 10.0664 18.7039L14.1367 17.2039C14.1367 17.2039 14.1383 17.2033 14.1396 17.2021C14.1396 17.2021 14.1408 17.2008 14.1414 17.1992L15.6419 13.1275C15.6419 13.1275 15.7783 12.7601 16.1 12.5363C16.1 12.5363 16.4218 12.3125 16.8138 12.3125C16.8138 12.3125 17.2057 12.3125 17.5275 12.5363C17.5275 12.5363 17.8492 12.7601 17.9861 13.1289L19.4862 17.1992L19.4866 17.2002L19.488 17.2021C19.488 17.2021 19.4892 17.2033 19.4908 17.2039L23.5625 18.7044C23.5625 18.7044 23.9299 18.8408 24.1537 19.1625C24.1537 19.1625 24.3775 19.4843 24.3775 19.8763C24.3775 19.8763 24.3775 20.2682 24.1537 20.59C24.1537 20.59 23.9299 20.9117 23.5611 21.0486L19.4908 22.5487L19.4896 22.5492L19.488 22.5505ZM18.3138 22.1195C18.3138 22.1195 18.4094 21.8613 18.6041 21.6666C18.6041 21.6666 18.7994 21.4712 19.0586 21.3757L23.1275 19.8763L19.0586 18.3768C19.0586 18.3768 18.7994 18.2813 18.6041 18.0859C18.6041 18.0859 18.4087 17.8906 18.3132 17.6314L16.8138 13.5625L15.3143 17.6314C15.3143 17.6314 15.2188 17.8906 15.0234 18.0859C15.0234 18.0859 14.8281 18.2813 14.5689 18.3768L10.5 19.8763L14.5689 21.3758C14.5689 21.3758 14.8281 21.4712 15.0234 21.6666C15.0234 21.6666 15.2188 21.8619 15.3143 22.1211L16.8138 26.19L18.3138 22.1195Z" fill="#212121"/>
<path d="M22.2104 11.5867L22.2109 11.5859L22.2117 11.5854L23.3889 11.1516C23.4956 11.112 23.5603 11.0189 23.5603 11.0189C23.625 10.9259 23.625 10.8125 23.625 10.8125C23.625 10.6991 23.5603 10.6061 23.5603 10.6061C23.4956 10.513 23.3893 10.4736 23.3893 10.4736L22.2117 10.0396L22.2109 10.0391L22.2104 10.0383L21.7766 8.86111C21.737 8.75444 21.6439 8.68972 21.6439 8.68972C21.5509 8.625 21.4375 8.625 21.4375 8.625C21.3241 8.625 21.2311 8.68972 21.2311 8.68972C21.138 8.75444 21.0986 8.86071 21.0986 8.86071L20.6646 10.0383L20.6641 10.0391L20.6633 10.0396L19.4861 10.4734C19.3794 10.513 19.3147 10.6061 19.3147 10.6061C19.25 10.6991 19.25 10.8125 19.25 10.8125C19.25 10.9259 19.3147 11.0189 19.3147 11.0189C19.3794 11.112 19.4857 11.1514 19.4857 11.1514L20.6633 11.5854L20.6641 11.5859L20.6646 11.5867L21.0984 12.7639C21.138 12.8706 21.2311 12.9353 21.2311 12.9353C21.3241 13 21.4375 13 21.4375 13C21.5509 13 21.6439 12.9353 21.6439 12.9353C21.737 12.8706 21.7764 12.7643 21.7764 12.7643L22.2104 11.5867Z" fill="#212121"/>
<path d="M25.1146 15.7405L25.1149 15.7399L25.1155 15.7396L25.9564 15.4297C26.0325 15.4014 26.0788 15.3349 26.0788 15.3349C26.125 15.2685 26.125 15.1875 26.125 15.1875C26.125 15.1065 26.0788 15.0401 26.0788 15.0401C26.0325 14.9736 25.9566 14.9454 25.9566 14.9454L25.1155 14.6354L25.1149 14.6351L25.1146 14.6345L24.8047 13.7936C24.7764 13.7175 24.7099 13.6712 24.7099 13.6712C24.6435 13.625 24.5625 13.625 24.5625 13.625C24.4815 13.625 24.4151 13.6712 24.4151 13.6712C24.3486 13.7175 24.3204 13.7934 24.3204 13.7934L24.0104 14.6345L24.0101 14.6351L24.0095 14.6354L23.1686 14.9453C23.0925 14.9736 23.0462 15.0401 23.0462 15.0401C23 15.1065 23 15.1875 23 15.1875C23 15.2685 23.0462 15.3349 23.0462 15.3349C23.0925 15.4014 23.1684 15.4296 23.1684 15.4296L24.0095 15.7396L24.0101 15.7399L24.0104 15.7405L24.3203 16.5814C24.3486 16.6575 24.4151 16.7038 24.4151 16.7038C24.4815 16.75 24.5625 16.75 24.5625 16.75C24.6435 16.75 24.7099 16.7038 24.7099 16.7038C24.7764 16.6575 24.8046 16.5816 24.8046 16.5816L25.1146 15.7405Z" fill="#212121"/>
</svg>
