<svg width="36" height="36" viewBox="0 0 36 36" fill="none" xmlns="http://www.w3.org/2000/svg">
<circle opacity="0.3" cx="18" cy="18" r="18" fill="#72FFA2"/>
<circle cx="18" cy="18" r="12" fill="#72FFA2"/>
<path fill-rule="evenodd" clip-rule="evenodd" d="M19.1904 21.6376C19.1904 21.6376 19.1894 21.6386 19.1889 21.6398L17.9885 24.8973C17.9885 24.8973 17.8794 25.1912 17.622 25.3702C17.622 25.3702 17.3646 25.5493 17.051 25.5493C17.051 25.5493 16.7375 25.5493 16.48 25.3702C16.48 25.3702 16.2226 25.1912 16.1131 24.8962L14.9131 21.6399L14.9125 21.6388L14.9116 21.6376C14.9116 21.6376 14.9107 21.6367 14.9094 21.6362L11.652 20.4358C11.652 20.4358 11.3581 20.3267 11.179 20.0692C11.179 20.0692 11 19.8118 11 19.4983C11 19.4983 11 19.1847 11.179 18.9273C11.179 18.9273 11.3581 18.6699 11.6531 18.5604L14.9094 17.3604C14.9094 17.3604 14.9107 17.3599 14.9116 17.3589C14.9116 17.3589 14.9126 17.3579 14.9131 17.3566L16.1135 14.0993C16.1135 14.0993 16.2226 13.8053 16.48 13.6263C16.48 13.6263 16.7375 13.4473 17.051 13.4473C17.051 13.4473 17.3646 13.4473 17.622 13.6263C17.622 13.6263 17.8794 13.8053 17.9889 14.1004L19.1889 17.3567L19.1893 17.3574L19.1904 17.3589C19.1904 17.3589 19.1913 17.3599 19.1927 17.3604L22.45 18.5608C22.45 18.5608 22.744 18.6699 22.923 18.9273C22.923 18.9273 23.102 19.1847 23.102 19.4983C23.102 19.4983 23.102 19.8118 22.923 20.0692C22.923 20.0692 22.744 20.3267 22.4489 20.4362L19.1926 21.6362L19.1917 21.6366L19.1904 21.6376ZM18.2511 21.2928C18.2511 21.2928 18.3275 21.0863 18.4833 20.9305C18.4833 20.9305 18.6395 20.7743 18.8469 20.6979L22.102 19.4983L18.8469 18.2987C18.8469 18.2987 18.6395 18.2223 18.4833 18.066C18.4833 18.066 18.327 17.9098 18.2506 17.7024L17.051 14.4473L15.8514 17.7024C15.8514 17.7024 15.775 17.9098 15.6188 18.066C15.6188 18.066 15.4625 18.2223 15.2551 18.2987L12 19.4983L15.2552 20.6979C15.2552 20.6979 15.4625 20.7743 15.6188 20.9305C15.6188 20.9305 15.775 21.0868 15.8514 21.2942L17.051 24.5493L18.2511 21.2928Z" fill="#212121"/>
<path d="M21.3683 12.8694L21.3687 12.8687L21.3694 12.8683L22.3111 12.5213C22.3964 12.4896 22.4482 12.4151 22.4482 12.4151C22.5 12.3407 22.5 12.25 22.5 12.25C22.5 12.1593 22.4482 12.0849 22.4482 12.0849C22.3964 12.0104 22.3114 11.9789 22.3114 11.9789L21.3694 11.6317L21.3687 11.6313L21.3683 11.6306L21.0212 10.6889C20.9896 10.6036 20.9151 10.5518 20.9151 10.5518C20.8407 10.5 20.75 10.5 20.75 10.5C20.6593 10.5 20.5849 10.5518 20.5849 10.5518C20.5104 10.6036 20.4789 10.6886 20.4789 10.6886L20.1317 11.6306L20.1313 11.6313L20.1306 11.6317L19.1889 11.9787C19.1036 12.0104 19.0518 12.0849 19.0518 12.0849C19 12.1593 19 12.25 19 12.25C19 12.3407 19.0518 12.4151 19.0518 12.4151C19.1036 12.4896 19.1886 12.5211 19.1886 12.5211L20.1306 12.8683L20.1313 12.8687L20.1317 12.8694L20.4787 13.8111C20.5104 13.8964 20.5849 13.9482 20.5849 13.9482C20.6593 14 20.75 14 20.75 14C20.8407 14 20.9151 13.9482 20.9151 13.9482C20.9896 13.8964 21.0211 13.8114 21.0211 13.8114L21.3683 12.8694Z" fill="#212121"/>
<path d="M23.6916 16.1924L23.6919 16.1919L23.6924 16.1916L24.3651 15.9437C24.426 15.9211 24.463 15.8679 24.463 15.8679C24.5 15.8148 24.5 15.75 24.5 15.75C24.5 15.6852 24.463 15.6321 24.463 15.6321C24.426 15.5789 24.3653 15.5563 24.3653 15.5563L23.6924 15.3084L23.6919 15.3081L23.6916 15.3076L23.4438 14.6349C23.4211 14.574 23.3679 14.537 23.3679 14.537C23.3148 14.5 23.25 14.5 23.25 14.5C23.1852 14.5 23.1321 14.537 23.1321 14.537C23.0789 14.574 23.0563 14.6347 23.0563 14.6347L22.8084 15.3076L22.8081 15.3081L22.8076 15.3084L22.1349 15.5562C22.074 15.5789 22.037 15.6321 22.037 15.6321C22 15.6852 22 15.75 22 15.75C22 15.8148 22.037 15.8679 22.037 15.8679C22.074 15.9211 22.1347 15.9437 22.1347 15.9437L22.8076 16.1916L22.8081 16.1919L22.8084 16.1924L23.0562 16.8651C23.0789 16.926 23.1321 16.963 23.1321 16.963C23.1852 17 23.25 17 23.25 17C23.3148 17 23.3679 16.963 23.3679 16.963C23.4211 16.926 23.4437 16.8653 23.4437 16.8653L23.6916 16.1924Z" fill="#212121"/>
</svg>
