<svg width="20" height="20" viewBox="0 0 20 20" fill="none" xmlns="http://www.w3.org/2000/svg">
<path fill-rule="evenodd" clip-rule="evenodd" d="M13.1628 2.51376C11.6526 1.875 10 1.875 10 1.875C8.34739 1.875 6.83719 2.51376 6.83719 2.51376C5.37899 3.13053 4.25476 4.25476 4.25476 4.25476C3.13053 5.37899 2.51376 6.83719 2.51376 6.83719C1.875 8.34739 1.875 10 1.875 10C1.875 11.6526 2.51376 13.1628 2.51376 13.1628C3.13053 14.621 4.25476 15.7452 4.25476 15.7452C5.37899 16.8695 6.83719 17.4862 6.83719 17.4862C8.34739 18.125 10 18.125 10 18.125C11.6526 18.125 13.1628 17.4862 13.1628 17.4862C14.621 16.8695 15.7452 15.7452 15.7452 15.7452C16.8695 14.621 17.4862 13.1628 17.4862 13.1628C18.125 11.6526 18.125 10 18.125 10C18.125 8.34739 17.4862 6.83719 17.4862 6.83719C16.8695 5.37899 15.7452 4.25476 15.7452 4.25476C14.621 3.13053 13.1628 2.51376 13.1628 2.51376ZM9.375 10.625V6.25C9.375 5.90482 9.65482 5.625 10 5.625C10.3452 5.625 10.625 5.90482 10.625 6.25V10.625C10.625 10.9702 10.3452 11.25 10 11.25C9.65482 11.25 9.375 10.9702 9.375 10.625ZM10 14.375C10.5177 14.375 10.9375 13.9553 10.9375 13.4375C10.9375 12.9197 10.5177 12.5 10 12.5C9.48227 12.5 9.0625 12.9197 9.0625 13.4375C9.0625 13.9553 9.48227 14.375 10 14.375Z" fill="#1F2020"/>
</svg>
