<svg width="20" height="20" viewBox="0 0 20 20" fill="none" xmlns="http://www.w3.org/2000/svg">
<path d="M15.1831 3.93306L3.93306 15.1831C3.81585 15.3003 3.75 15.4592 3.75 15.625C3.75 15.7908 3.81585 15.9497 3.93306 16.0669C4.05027 16.1842 4.20924 16.25 4.375 16.25C4.54076 16.25 4.69973 16.1842 4.81694 16.0669L16.0669 4.81694C16.1842 4.69973 16.25 4.54076 16.25 4.375C16.25 4.20924 16.1842 4.05027 16.0669 3.93306C15.9497 3.81585 15.7908 3.75 15.625 3.75C15.4592 3.75 15.3003 3.81585 15.1831 3.93306Z" fill="white" fill-opacity="0.9"/>
<path d="M4.81694 3.93306C4.69973 3.81585 4.54076 3.75 4.375 3.75C4.20924 3.75 4.05027 3.81585 3.93306 3.93306C3.81585 4.05027 3.75 4.20924 3.75 4.375C3.75 4.54076 3.81585 4.69973 3.93306 4.81694L15.1831 16.0669C15.3003 16.1842 15.4592 16.25 15.625 16.25C15.7908 16.25 15.9497 16.1842 16.0669 16.0669C16.1842 15.9497 16.25 15.7908 16.25 15.625C16.25 15.4592 16.1842 15.3003 16.0669 15.1831L4.81694 3.93306Z" fill="white" fill-opacity="0.9"/>
<path d="M15.1831 3.93306L3.93306 15.1831C3.81585 15.3003 3.75 15.4592 3.75 15.625C3.75 15.7908 3.81585 15.9497 3.93306 16.0669C4.05027 16.1842 4.20924 16.25 4.375 16.25C4.54076 16.25 4.69973 16.1842 4.81694 16.0669L16.0669 4.81694C16.1842 4.69973 16.25 4.54076 16.25 4.375C16.25 4.20924 16.1842 4.05027 16.0669 3.93306C15.9497 3.81585 15.7908 3.75 15.625 3.75C15.4592 3.75 15.3003 3.81585 15.1831 3.93306Z" stroke="white" stroke-opacity="0.9"/>
<path d="M4.81694 3.93306C4.69973 3.81585 4.54076 3.75 4.375 3.75C4.20924 3.75 4.05027 3.81585 3.93306 3.93306C3.81585 4.05027 3.75 4.20924 3.75 4.375C3.75 4.54076 3.81585 4.69973 3.93306 4.81694L15.1831 16.0669C15.3003 16.1842 15.4592 16.25 15.625 16.25C15.7908 16.25 15.9497 16.1842 16.0669 16.0669C16.1842 15.9497 16.25 15.7908 16.25 15.625C16.25 15.4592 16.1842 15.3003 16.0669 15.1831L4.81694 3.93306Z" stroke="white" stroke-opacity="0.9"/>
</svg>
